M48
; DRILL file KiCad 10.0.3 date 2026-08-02T01:51:21
; FORMAT={-:-/ absolute / metric / decimal}
; #@! TF.CreationDate,2026-08-02T01:51:21+09:00
; #@! TF.GenerationSoftware,Kicad,Pcbnew,10.0.3
; #@! TF.FileFunction,NonPlated,1,2,NPTH
FMAT,2
METRIC
; #@! TA.AperFunction,NonPlated,NPTH,ComponentDrill
T1C1.500
%
G90
G05
T1
X42.545Y-27.94
X42.545Y-43.18
X45.085Y-27.94
X45.085Y-43.18
X47.625Y-27.94
X47.625Y-43.18
X50.165Y-27.94
X50.165Y-43.18
X52.705Y-27.94
X52.705Y-43.18
X55.245Y-27.94
X55.245Y-43.18
X57.785Y-27.94
X57.785Y-43.18
X60.325Y-27.94
X60.325Y-43.18
X62.865Y-27.94
X62.865Y-43.18
X65.405Y-27.94
X65.405Y-43.18
X67.945Y-27.94
X67.945Y-43.18
X70.485Y-27.94
X70.485Y-43.18
X73.025Y-27.94
X73.025Y-43.18
X75.565Y-27.94
X75.565Y-43.18
X78.105Y-27.94
X78.105Y-43.18
X80.645Y-27.94
X80.645Y-43.18
X83.185Y-27.94
X83.185Y-43.18
X85.725Y-27.94
X85.725Y-43.18
X88.265Y-43.18
M30
