M48
; DRILL file KiCad 10.0.3 date 2026-08-02T01:51:21
; FORMAT={-:-/ absolute / metric / decimal}
; #@! TF.CreationDate,2026-08-02T01:51:21+09:00
; #@! TF.GenerationSoftware,Kicad,Pcbnew,10.0.3
; #@! TF.FileFunction,Plated,1,2,PTH
FMAT,2
METRIC
; #@! TA.AperFunction,Plated,PTH,ViaDrill
T1C0.200
; #@! TA.AperFunction,Plated,PTH,ComponentDrill
T2C0.850
; #@! TA.AperFunction,Plated,PTH,ComponentDrill
T3C1.500
%
G90
G05
T1
X39.243Y-29.337
X39.37Y-32.639
X39.37Y-38.354
X39.37Y-41.275
X40.894Y-29.413
X41.275Y-41.91
X41.4Y-38.97
X41.89Y-31.24
X42.037Y-29.845
X43.307Y-29.083
X43.561Y-30.734
X43.815Y-39.37
X43.815Y-41.91
X44.704Y-32.893
X44.704Y-38.227
X44.958Y-29.972
X45.339Y-31.75
X46.355Y-29.21
X46.355Y-39.37
X46.355Y-41.91
X46.482Y-32.893
X46.609Y-33.909
X46.609Y-37.211
X46.99Y-31.115
X47.752Y-36.576
X47.752Y-38.354
X47.879Y-31.877
X48.514Y-30.734
X48.514Y-32.893
X48.514Y-33.909
X48.895Y-29.21
X48.895Y-36.449
X48.895Y-37.465
X48.895Y-39.37
X48.895Y-41.91
X49.022Y-34.925
X49.149Y-31.877
X50.038Y-31.496
X50.165Y-38.481
X50.292Y-34.544
X50.546Y-32.766
X51.054Y-36.576
X51.435Y-29.21
X51.435Y-30.734
X51.435Y-34.671
X51.435Y-38.735
X51.435Y-41.91
X51.816Y-35.814
X52.451Y-35.052
X52.578Y-32.893
X52.705Y-29.845
X52.832Y-38.862
X53.086Y-33.528
X53.086Y-36.068
X53.975Y-28.575
X53.975Y-31.115
X53.975Y-35.687
X53.975Y-41.91
X54.102Y-38.862
X54.864Y-34.544
X55.22Y-36.246
X55.245Y-29.845
X55.245Y-33.274
X55.372Y-38.735
X56.134Y-36.83
X56.134Y-37.973
X56.261Y-35.179
X56.515Y-29.21
X56.515Y-31.115
X56.515Y-33.655
X56.515Y-41.91
X56.896Y-38.735
X57.785Y-29.845
X57.785Y-35.941
X58.039Y-38.862
X59.055Y-28.575
X59.055Y-31.115
X59.055Y-33.655
X59.055Y-41.91
X59.182Y-36.068
X59.182Y-38.862
X60.325Y-29.845
X60.452Y-36.068
X60.452Y-38.862
X61.214Y-37.465
X61.595Y-29.21
X61.595Y-31.115
X61.595Y-33.655
X61.595Y-39.37
X61.595Y-41.91
X62.865Y-29.845
X64.135Y-28.575
X64.135Y-31.115
X64.135Y-33.655
X64.135Y-36.195
X64.135Y-39.37
X64.135Y-41.91
X65.405Y-29.845
X66.675Y-29.21
X66.675Y-31.115
X66.675Y-33.655
X66.675Y-41.91
X69.215Y-29.21
X69.215Y-31.115
X69.215Y-33.655
X69.215Y-41.91
X71.755Y-29.21
X71.755Y-31.115
X71.755Y-33.655
X71.755Y-36.195
X71.755Y-39.37
X71.755Y-41.91
X74.295Y-29.21
X74.295Y-31.115
X74.295Y-33.655
X74.295Y-36.195
X74.295Y-39.37
X74.295Y-41.91
X76.835Y-29.21
X76.835Y-31.115
X76.835Y-33.655
X76.835Y-36.195
X76.835Y-39.37
X76.835Y-41.91
X79.375Y-29.21
X79.375Y-31.115
X79.375Y-33.655
X79.375Y-35.56
X79.375Y-39.37
X79.375Y-41.91
X81.915Y-29.21
X81.915Y-31.115
X81.915Y-33.655
X81.915Y-36.195
X81.915Y-39.37
X81.915Y-41.91
X84.455Y-29.21
X84.455Y-31.115
X84.455Y-38.862
X85.09Y-41.275
X85.725Y-36.83
X86.36Y-41.275
X86.995Y-29.21
X86.995Y-38.862
X87.63Y-33.655
X88.265Y-36.195
X88.265Y-39.37
X88.9Y-31.115
T2
X42.205Y-33.475
X42.205Y-37.675
T3
X40.005Y-27.94
X40.005Y-43.18
X88.265Y-27.94
M30
