G04 #@! TF.GenerationSoftware,KiCad,Pcbnew,10.0.3*
G04 #@! TF.CreationDate,2026-08-02T01:51:15+09:00*
G04 #@! TF.ProjectId,squeeki-kleen Video FC,73717565-656b-4692-9d6b-6c65656e2056,1.1.0*
G04 #@! TF.SameCoordinates,Original*
G04 #@! TF.FileFunction,Copper,L1,Top*
G04 #@! TF.FilePolarity,Positive*
%FSLAX46Y46*%
G04 Gerber Fmt 4.6, Leading zero omitted, Abs format (unit mm)*
G04 Created by KiCad (PCBNEW 10.0.3) date 2026-08-02 01:51:15*
%MOMM*%
%LPD*%
G01*
G04 APERTURE LIST*
G04 Aperture macros list*
%AMRoundRect*
0 Rectangle with rounded corners*
0 $1 Rounding radius*
0 $2 $3 $4 $5 $6 $7 $8 $9 X,Y pos of 4 corners*
0 Add a 4 corners polygon primitive as box body*
4,1,4,$2,$3,$4,$5,$6,$7,$8,$9,$2,$3,0*
0 Add four circle primitives for the rounded corners*
1,1,$1+$1,$2,$3*
1,1,$1+$1,$4,$5*
1,1,$1+$1,$6,$7*
1,1,$1+$1,$8,$9*
0 Add four rect primitives between the rounded corners*
20,1,$1+$1,$2,$3,$4,$5,0*
20,1,$1+$1,$4,$5,$6,$7,0*
20,1,$1+$1,$6,$7,$8,$9,0*
20,1,$1+$1,$8,$9,$2,$3,0*%
G04 Aperture macros list end*
G04 #@! TA.AperFunction,SMDPad,CuDef*
%ADD10C,0.500000*%
G04 #@! TD*
G04 #@! TA.AperFunction,ComponentPad*
%ADD11RoundRect,0.250000X-0.675000X0.675000X-0.675000X-0.675000X0.675000X-0.675000X0.675000X0.675000X0*%
G04 #@! TD*
G04 #@! TA.AperFunction,ComponentPad*
%ADD12C,1.850000*%
G04 #@! TD*
G04 #@! TA.AperFunction,SMDPad,CuDef*
%ADD13RoundRect,0.250000X0.450000X-0.262500X0.450000X0.262500X-0.450000X0.262500X-0.450000X-0.262500X0*%
G04 #@! TD*
G04 #@! TA.AperFunction,SMDPad,CuDef*
%ADD14RoundRect,0.250000X1.500000X0.550000X-1.500000X0.550000X-1.500000X-0.550000X1.500000X-0.550000X0*%
G04 #@! TD*
G04 #@! TA.AperFunction,ComponentPad*
%ADD15C,2.000000*%
G04 #@! TD*
G04 #@! TA.AperFunction,SMDPad,CuDef*
%ADD16RoundRect,0.250000X0.425000X-0.450000X0.425000X0.450000X-0.425000X0.450000X-0.425000X-0.450000X0*%
G04 #@! TD*
G04 #@! TA.AperFunction,SMDPad,CuDef*
%ADD17RoundRect,0.250000X-0.550000X1.500000X-0.550000X-1.500000X0.550000X-1.500000X0.550000X1.500000X0*%
G04 #@! TD*
G04 #@! TA.AperFunction,SMDPad,CuDef*
%ADD18RoundRect,0.150000X0.150000X-0.587500X0.150000X0.587500X-0.150000X0.587500X-0.150000X-0.587500X0*%
G04 #@! TD*
G04 #@! TA.AperFunction,SMDPad,CuDef*
%ADD19RoundRect,0.250000X-0.475000X0.250000X-0.475000X-0.250000X0.475000X-0.250000X0.475000X0.250000X0*%
G04 #@! TD*
G04 #@! TA.AperFunction,SMDPad,CuDef*
%ADD20RoundRect,0.250000X-0.450000X0.262500X-0.450000X-0.262500X0.450000X-0.262500X0.450000X0.262500X0*%
G04 #@! TD*
G04 #@! TA.AperFunction,ViaPad*
%ADD21C,0.600000*%
G04 #@! TD*
G04 #@! TA.AperFunction,Conductor*
%ADD22C,0.250000*%
G04 #@! TD*
G04 #@! TA.AperFunction,Conductor*
%ADD23C,0.500000*%
G04 #@! TD*
G04 APERTURE END LIST*
D10*
X79370000Y-36750000D03*
D11*
X42205000Y-33475000D03*
D12*
X42205000Y-37675000D03*
D13*
X51435000Y-33655000D03*
X51435000Y-31830000D03*
D14*
X58934000Y-37465000D03*
X53334000Y-37465000D03*
D15*
X40005000Y-43180000D03*
D16*
X64135000Y-32385000D03*
X64135000Y-29685000D03*
D15*
X88265000Y-27940000D03*
D17*
X85725000Y-33495000D03*
X85725000Y-38895000D03*
D16*
X53975000Y-32385000D03*
X53975000Y-29685000D03*
D15*
X40005000Y-27940000D03*
D10*
X40005000Y-40005000D03*
D16*
X59055000Y-32385000D03*
X59055000Y-29685000D03*
D18*
X47564000Y-33703500D03*
X49464000Y-33703500D03*
X48514000Y-31828500D03*
D19*
X47752000Y-35560000D03*
X47752000Y-37460000D03*
D20*
X50165000Y-35640000D03*
X50165000Y-37465000D03*
D10*
X40005000Y-31115000D03*
D21*
X56515000Y-29210000D03*
X58039000Y-38862000D03*
X48514000Y-30734000D03*
X46990000Y-31115000D03*
X39370000Y-38354000D03*
X81915000Y-41910000D03*
X71755000Y-31115000D03*
X60452000Y-36068000D03*
X79375000Y-35560000D03*
X56896000Y-38735000D03*
X53975000Y-31115000D03*
X52705000Y-29845000D03*
X54864000Y-34544000D03*
X60452000Y-38862000D03*
X79375000Y-41910000D03*
X76835000Y-39370000D03*
X55245000Y-33274000D03*
X51435000Y-30734000D03*
X64135000Y-33655000D03*
X43307000Y-29083000D03*
X81915000Y-33655000D03*
X47879000Y-31877000D03*
X76835000Y-41910000D03*
X74295000Y-31115000D03*
X76835000Y-31115000D03*
X69215000Y-41910000D03*
X81915000Y-31115000D03*
X51816000Y-35814000D03*
X48895000Y-37465000D03*
X66675000Y-41910000D03*
X88900000Y-31115000D03*
X57785000Y-35941000D03*
X48895000Y-41910000D03*
X59055000Y-33655000D03*
X55219600Y-36245800D03*
X56515000Y-31115000D03*
X39370000Y-32639000D03*
X84455000Y-29210000D03*
X51435000Y-38735000D03*
X51435000Y-29210000D03*
X47752000Y-36576000D03*
X47752000Y-38354000D03*
X48895000Y-29210000D03*
X66675000Y-33655000D03*
X64135000Y-39370000D03*
X84455000Y-31115000D03*
X88265000Y-39370000D03*
X62865000Y-29845000D03*
X56515000Y-41910000D03*
X48514000Y-33909000D03*
X64135000Y-31115000D03*
X60325000Y-29845000D03*
X46609000Y-37211000D03*
X46355000Y-41910000D03*
X49022000Y-34925000D03*
X46609000Y-33909000D03*
X76835000Y-29210000D03*
X44958000Y-29972000D03*
X61595000Y-31115000D03*
X81915000Y-29210000D03*
X50546000Y-32766000D03*
X61595000Y-33655000D03*
X51435000Y-41910000D03*
X81915000Y-39370000D03*
X48514000Y-32893000D03*
X40894000Y-29413200D03*
X56515000Y-33655000D03*
X46482000Y-32893000D03*
X64135000Y-36195000D03*
X56134000Y-37973000D03*
X61214000Y-37465000D03*
X74295000Y-36195000D03*
X59182000Y-36068000D03*
X74295000Y-39370000D03*
X76835000Y-33655000D03*
X55372000Y-38735000D03*
X71755000Y-36195000D03*
X71755000Y-41910000D03*
X44704000Y-32893000D03*
X88265000Y-36195000D03*
X48895000Y-39370000D03*
X56261000Y-35179000D03*
X71755000Y-29210000D03*
X81915000Y-36195000D03*
X86360000Y-41275000D03*
X48895000Y-36449000D03*
X66675000Y-29210000D03*
X59055000Y-41910000D03*
X74295000Y-29210000D03*
X61595000Y-41910000D03*
X53975000Y-28575000D03*
X79375000Y-39370000D03*
X50292000Y-34544000D03*
X54102000Y-38862000D03*
X65405000Y-29845000D03*
X57785000Y-29845000D03*
X39370000Y-41275000D03*
X52832000Y-38862000D03*
X41890000Y-31240000D03*
X86995000Y-29210000D03*
X51054000Y-36576000D03*
X55245000Y-29845000D03*
X87630000Y-33655000D03*
X69215000Y-33655000D03*
X74295000Y-41910000D03*
X85725000Y-36830000D03*
X41400000Y-38970000D03*
X79375000Y-33655000D03*
X64135000Y-28575000D03*
X61595000Y-29210000D03*
X79375000Y-29210000D03*
X84455000Y-38862000D03*
X42037000Y-29845000D03*
X64135000Y-41910000D03*
X52578000Y-32893000D03*
X71755000Y-39370000D03*
X44704000Y-38227000D03*
X74295000Y-33655000D03*
X39243000Y-29337000D03*
X51435000Y-34671000D03*
X45339000Y-31750000D03*
X43815000Y-41910000D03*
X46355000Y-29210000D03*
X53086000Y-36068000D03*
X85090000Y-41275000D03*
X52451000Y-35052000D03*
X53975000Y-35687000D03*
X59055000Y-31115000D03*
X79375000Y-31115000D03*
X53086000Y-33528000D03*
X69215000Y-31115000D03*
X86995000Y-38862000D03*
X41275000Y-41910000D03*
X61595000Y-39370000D03*
X66675000Y-31115000D03*
X76835000Y-36195000D03*
X69215000Y-29210000D03*
X43561000Y-30734000D03*
X50038000Y-31496000D03*
X59055000Y-28575000D03*
X43815000Y-39370000D03*
X53975000Y-41910000D03*
X46355000Y-39370000D03*
X49149000Y-31877000D03*
X59182000Y-38862000D03*
X71755000Y-33655000D03*
X50165000Y-38481000D03*
X56134000Y-36830000D03*
D22*
X45235000Y-35560000D02*
X43150000Y-33475000D01*
X43150000Y-33475000D02*
X42205000Y-33475000D01*
D23*
X88265000Y-29845000D02*
X85725000Y-32385000D01*
X51435000Y-31830000D02*
X53975000Y-32385000D01*
X88265000Y-27940000D02*
X88265000Y-29845000D01*
X59055000Y-32385000D02*
X64135000Y-32385000D01*
X64135000Y-32385000D02*
X85725000Y-32385000D01*
X53975000Y-32385000D02*
X59055000Y-32385000D01*
D22*
X51435000Y-33655000D02*
X55372000Y-35560000D01*
X49464000Y-33703500D02*
X51435000Y-33655000D01*
X55372000Y-35560000D02*
X58934000Y-37465000D01*
X50165000Y-37465000D02*
X53334000Y-37465000D01*
X50165000Y-35640000D02*
X47752000Y-35560000D01*
X47752000Y-35560000D02*
X45235000Y-35560000D01*
X47564000Y-33703500D02*
X46652604Y-31750000D01*
X40005000Y-27940000D02*
X46652604Y-31750000D01*
G04 #@! TA.AperFunction,Conductor*
G36*
X86746699Y-31025193D02*
G01*
X87084417Y-31362911D01*
X87087844Y-31371184D01*
X87084578Y-31379293D01*
X87053427Y-31411689D01*
X87053417Y-31411700D01*
X86873457Y-31635830D01*
X86873454Y-31635835D01*
X86717374Y-31887235D01*
X86717371Y-31887240D01*
X86604843Y-32130602D01*
X86604840Y-32130611D01*
X86538105Y-32351449D01*
X86538103Y-32351455D01*
X86513115Y-32546216D01*
X86524258Y-32705750D01*
X86521415Y-32714242D01*
X86514496Y-32718108D01*
X85183668Y-32938328D01*
X85174946Y-32936298D01*
X85170215Y-32928695D01*
X85170075Y-32926164D01*
X85233055Y-31755664D01*
X85236921Y-31747588D01*
X85244301Y-31744602D01*
X85344539Y-31740869D01*
X85344543Y-31740868D01*
X85344553Y-31740868D01*
X85470220Y-31723868D01*
X85470226Y-31723867D01*
X85493646Y-31718555D01*
X85596907Y-31695135D01*
X85742657Y-31649324D01*
X85886711Y-31591923D01*
X86048332Y-31514260D01*
X86203104Y-31427291D01*
X86363305Y-31324190D01*
X86508790Y-31218047D01*
X86730742Y-31024643D01*
X86739228Y-31021794D01*
X86746699Y-31025193D01*
G37*
G04 #@! TD.AperFunction*
G04 #@! TA.AperFunction,Conductor*
G36*
X53556021Y-31696784D02*
G01*
X53559295Y-31700279D01*
X53970743Y-32376611D01*
X53972115Y-32385460D01*
X53968249Y-32391670D01*
X53332430Y-32922980D01*
X53323885Y-32925655D01*
X53315950Y-32921504D01*
X53314238Y-32918757D01*
X53304528Y-32896911D01*
X53252862Y-32797533D01*
X53196556Y-32710879D01*
X53131662Y-32630687D01*
X53063322Y-32562914D01*
X53063320Y-32562912D01*
X52981171Y-32498338D01*
X52981163Y-32498332D01*
X52956540Y-32483237D01*
X52897291Y-32446913D01*
X52737005Y-32378137D01*
X52731358Y-32376611D01*
X52597948Y-32340562D01*
X52590855Y-32335096D01*
X52589570Y-32326771D01*
X52691555Y-31860030D01*
X52696668Y-31852682D01*
X52704883Y-31850986D01*
X52880045Y-31879827D01*
X52880057Y-31879827D01*
X52880061Y-31879828D01*
X52931520Y-31882401D01*
X53098912Y-31890773D01*
X53273441Y-31872094D01*
X53273444Y-31872093D01*
X53273445Y-31872093D01*
X53342902Y-31849182D01*
X53402001Y-31829688D01*
X53491984Y-31767642D01*
X53539724Y-31699636D01*
X53547281Y-31694835D01*
X53556021Y-31696784D01*
G37*
G04 #@! TD.AperFunction*
G04 #@! TA.AperFunction,Conductor*
G36*
X52108121Y-31460673D02*
G01*
X52166651Y-31554091D01*
X52166652Y-31554092D01*
X52166651Y-31554092D01*
X52236538Y-31636081D01*
X52236541Y-31636084D01*
X52310186Y-31699961D01*
X52385918Y-31748515D01*
X52536988Y-31810828D01*
X52676428Y-31845368D01*
X52677610Y-31845625D01*
X52684966Y-31850732D01*
X52686556Y-31859545D01*
X52686553Y-31859556D01*
X52584876Y-32324893D01*
X52579762Y-32332243D01*
X52570948Y-32333825D01*
X52570684Y-32333764D01*
X52496964Y-32315853D01*
X52496964Y-32315852D01*
X52355383Y-32282013D01*
X52355380Y-32282012D01*
X52355370Y-32282010D01*
X52332309Y-32278503D01*
X52168739Y-32253634D01*
X52168736Y-32253634D01*
X52036260Y-32257993D01*
X52036259Y-32257993D01*
X51945442Y-32288207D01*
X51893794Y-32334599D01*
X51885350Y-32337578D01*
X51877272Y-32333713D01*
X51877191Y-32333622D01*
X51831793Y-32282009D01*
X51443529Y-31840595D01*
X51440639Y-31832121D01*
X51444588Y-31824084D01*
X51446543Y-31822692D01*
X52092441Y-31456706D01*
X52101326Y-31455609D01*
X52108121Y-31460673D01*
G37*
G04 #@! TD.AperFunction*
G04 #@! TA.AperFunction,Conductor*
G36*
X88270561Y-27937194D02*
G01*
X88919592Y-28288388D01*
X89136161Y-28405575D01*
X89141806Y-28412526D01*
X89140883Y-28421433D01*
X89140625Y-28421886D01*
X88971974Y-28702905D01*
X88971445Y-28703709D01*
X88818764Y-28916309D01*
X88818647Y-28916470D01*
X88781409Y-28966501D01*
X88780752Y-28967385D01*
X88660022Y-29146850D01*
X88583624Y-29314775D01*
X88555420Y-29413594D01*
X88546791Y-29460095D01*
X88534369Y-29527043D01*
X88519922Y-29672687D01*
X88519920Y-29672713D01*
X88515061Y-29842847D01*
X88514175Y-29846990D01*
X88442667Y-30019626D01*
X88440131Y-30023422D01*
X88386279Y-30077274D01*
X88378006Y-30080701D01*
X88369733Y-30077274D01*
X88050867Y-29758408D01*
X88050866Y-29758408D01*
X88035871Y-29794611D01*
X88029539Y-29800943D01*
X88020585Y-29800943D01*
X88014253Y-29794611D01*
X88013367Y-29790484D01*
X88012406Y-29758408D01*
X88009624Y-29665511D01*
X88002149Y-29594129D01*
X87993857Y-29514931D01*
X87993856Y-29514926D01*
X87968237Y-29387853D01*
X87933308Y-29278898D01*
X87889610Y-29182670D01*
X87837684Y-29093775D01*
X87711313Y-28916419D01*
X87554795Y-28698105D01*
X87554276Y-28697315D01*
X87389355Y-28421879D01*
X87388046Y-28413023D01*
X87393384Y-28405833D01*
X87393800Y-28405595D01*
X88259433Y-27937196D01*
X88268339Y-27936274D01*
X88270561Y-27937194D01*
G37*
G04 #@! TD.AperFunction*
G04 #@! TA.AperFunction,Conductor*
G36*
X59593259Y-31714631D02*
G01*
X59821776Y-31836930D01*
X59822605Y-31837419D01*
X60009793Y-31958469D01*
X60162322Y-32056537D01*
X60162326Y-32056538D01*
X60162330Y-32056541D01*
X60290813Y-32116307D01*
X60290815Y-32116307D01*
X60290818Y-32116309D01*
X60290819Y-32116309D01*
X60290822Y-32116310D01*
X60362997Y-32128124D01*
X60395190Y-32133394D01*
X60402801Y-32138112D01*
X60405000Y-32144940D01*
X60405000Y-32624811D01*
X60401573Y-32633084D01*
X60394908Y-32636400D01*
X60308630Y-32648370D01*
X60214261Y-32685366D01*
X60009797Y-32811527D01*
X59829365Y-32928476D01*
X59828538Y-32928965D01*
X59593266Y-33055347D01*
X59584356Y-33056243D01*
X59578531Y-33052271D01*
X59059684Y-32392231D01*
X59057265Y-32383609D01*
X59059684Y-32377769D01*
X59248074Y-32138112D01*
X59578541Y-31717715D01*
X59586347Y-31713330D01*
X59593259Y-31714631D01*
G37*
G04 #@! TD.AperFunction*
G04 #@! TA.AperFunction,Conductor*
G36*
X63611468Y-31717728D02*
G01*
X64130315Y-32377769D01*
X64132734Y-32386391D01*
X64130315Y-32392231D01*
X63611459Y-33052283D01*
X63603652Y-33056669D01*
X63596740Y-33055368D01*
X63368223Y-32933069D01*
X63367391Y-32932578D01*
X63302353Y-32890519D01*
X63180207Y-32811531D01*
X63180194Y-32811522D01*
X63027682Y-32713465D01*
X63027669Y-32713458D01*
X62899186Y-32653692D01*
X62899177Y-32653689D01*
X62794810Y-32636605D01*
X62787199Y-32631887D01*
X62785000Y-32625059D01*
X62785000Y-32145188D01*
X62788427Y-32136915D01*
X62795089Y-32133600D01*
X62881368Y-32121630D01*
X62975736Y-32084635D01*
X63180207Y-31958469D01*
X63360649Y-31841514D01*
X63361446Y-31841042D01*
X63596734Y-31714651D01*
X63605643Y-31713756D01*
X63611468Y-31717728D01*
G37*
G04 #@! TD.AperFunction*
G04 #@! TA.AperFunction,Conductor*
G36*
X64673259Y-31714631D02*
G01*
X64901776Y-31836930D01*
X64902605Y-31837419D01*
X65089793Y-31958469D01*
X65242322Y-32056537D01*
X65242326Y-32056538D01*
X65242330Y-32056541D01*
X65370813Y-32116307D01*
X65370815Y-32116307D01*
X65370818Y-32116309D01*
X65370819Y-32116309D01*
X65370822Y-32116310D01*
X65442997Y-32128124D01*
X65475190Y-32133394D01*
X65482801Y-32138112D01*
X65485000Y-32144940D01*
X65485000Y-32624811D01*
X65481573Y-32633084D01*
X65474908Y-32636400D01*
X65388630Y-32648370D01*
X65294261Y-32685366D01*
X65089797Y-32811527D01*
X64909365Y-32928476D01*
X64908538Y-32928965D01*
X64673266Y-33055347D01*
X64664356Y-33056243D01*
X64658531Y-33052271D01*
X64139684Y-32392231D01*
X64137265Y-32383609D01*
X64139684Y-32377769D01*
X64328074Y-32138112D01*
X64658541Y-31717715D01*
X64666347Y-31713330D01*
X64673259Y-31714631D01*
G37*
G04 #@! TD.AperFunction*
G04 #@! TA.AperFunction,Conductor*
G36*
X85085069Y-31769542D02*
G01*
X85717382Y-32376725D01*
X85720976Y-32384927D01*
X85717717Y-32393268D01*
X85717546Y-32393442D01*
X84942921Y-33167100D01*
X84934646Y-33170522D01*
X84926375Y-33167090D01*
X84922990Y-33159751D01*
X84919768Y-33119252D01*
X84904709Y-33058232D01*
X84877416Y-32995468D01*
X84840377Y-32938324D01*
X84786118Y-32878064D01*
X84786116Y-32878062D01*
X84722401Y-32825124D01*
X84722399Y-32825123D01*
X84634973Y-32770058D01*
X84634968Y-32770055D01*
X84634962Y-32770052D01*
X84564019Y-32736208D01*
X84540673Y-32725071D01*
X84540670Y-32725070D01*
X84540662Y-32725066D01*
X84540661Y-32725065D01*
X84425214Y-32684101D01*
X84425182Y-32684092D01*
X84312287Y-32655938D01*
X84135400Y-32636162D01*
X84127559Y-32631837D01*
X84125000Y-32624534D01*
X84125000Y-32145506D01*
X84128427Y-32137233D01*
X84135443Y-32133874D01*
X84249678Y-32121559D01*
X84376779Y-32083957D01*
X84667686Y-31952582D01*
X85072094Y-31767343D01*
X85081041Y-31767014D01*
X85085069Y-31769542D01*
G37*
G04 #@! TD.AperFunction*
G04 #@! TA.AperFunction,Conductor*
G36*
X54513259Y-31714631D02*
G01*
X54741776Y-31836930D01*
X54742605Y-31837419D01*
X54929793Y-31958469D01*
X55082322Y-32056537D01*
X55082326Y-32056538D01*
X55082330Y-32056541D01*
X55210813Y-32116307D01*
X55210815Y-32116307D01*
X55210818Y-32116309D01*
X55210819Y-32116309D01*
X55210822Y-32116310D01*
X55282997Y-32128124D01*
X55315190Y-32133394D01*
X55322801Y-32138112D01*
X55325000Y-32144940D01*
X55325000Y-32624811D01*
X55321573Y-32633084D01*
X55314908Y-32636400D01*
X55228630Y-32648370D01*
X55134261Y-32685366D01*
X54929797Y-32811527D01*
X54749365Y-32928476D01*
X54748538Y-32928965D01*
X54513266Y-33055347D01*
X54504356Y-33056243D01*
X54498531Y-33052271D01*
X53979684Y-32392231D01*
X53977265Y-32383609D01*
X53979684Y-32377769D01*
X54168074Y-32138112D01*
X54498541Y-31717715D01*
X54506347Y-31713330D01*
X54513259Y-31714631D01*
G37*
G04 #@! TD.AperFunction*
G04 #@! TA.AperFunction,Conductor*
G36*
X58531468Y-31717728D02*
G01*
X59050315Y-32377769D01*
X59052734Y-32386391D01*
X59050315Y-32392231D01*
X58531459Y-33052283D01*
X58523652Y-33056669D01*
X58516740Y-33055368D01*
X58288223Y-32933069D01*
X58287391Y-32932578D01*
X58222353Y-32890519D01*
X58100207Y-32811531D01*
X58100194Y-32811522D01*
X57947682Y-32713465D01*
X57947669Y-32713458D01*
X57819186Y-32653692D01*
X57819177Y-32653689D01*
X57714810Y-32636605D01*
X57707199Y-32631887D01*
X57705000Y-32625059D01*
X57705000Y-32145188D01*
X57708427Y-32136915D01*
X57715089Y-32133600D01*
X57801368Y-32121630D01*
X57895736Y-32084635D01*
X58100207Y-31958469D01*
X58280649Y-31841514D01*
X58281446Y-31841042D01*
X58516734Y-31714651D01*
X58525643Y-31713756D01*
X58531468Y-31717728D01*
G37*
G04 #@! TD.AperFunction*
G04 #@! TA.AperFunction,Conductor*
G36*
X52130078Y-33429589D02*
G01*
X52135915Y-33436380D01*
X52136442Y-33438874D01*
X52144525Y-33520195D01*
X52168573Y-33599313D01*
X52168575Y-33599318D01*
X52204840Y-33676940D01*
X52204851Y-33676960D01*
X52261469Y-33766779D01*
X52261477Y-33766789D01*
X52328582Y-33850886D01*
X52410150Y-33934751D01*
X52410168Y-33934769D01*
X52494453Y-34006636D01*
X52628190Y-34092126D01*
X52633315Y-34099469D01*
X52632420Y-34107080D01*
X52532831Y-34312898D01*
X52526143Y-34318853D01*
X52517902Y-34318644D01*
X52367893Y-34257805D01*
X52367891Y-34257804D01*
X52083362Y-34181498D01*
X51934422Y-34160718D01*
X51793358Y-34141037D01*
X51793354Y-34141036D01*
X51793349Y-34141036D01*
X51533846Y-34138056D01*
X51533834Y-34138056D01*
X51334251Y-34165222D01*
X51325591Y-34162942D01*
X51321080Y-34155207D01*
X51321263Y-34151040D01*
X51432633Y-33661019D01*
X51437807Y-33653713D01*
X51440381Y-33652501D01*
X52121149Y-33428915D01*
X52130078Y-33429589D01*
G37*
G04 #@! TD.AperFunction*
G04 #@! TA.AperFunction,Conductor*
G36*
X49763887Y-33412866D02*
G01*
X49767185Y-33418980D01*
X49771799Y-33442560D01*
X49789212Y-33474793D01*
X49826506Y-33509831D01*
X49874250Y-33534589D01*
X49910773Y-33543462D01*
X49975358Y-33559155D01*
X49975362Y-33559155D01*
X49975368Y-33559157D01*
X50050035Y-33563193D01*
X50058112Y-33567061D01*
X50061100Y-33574588D01*
X50066702Y-33802265D01*
X50063480Y-33810620D01*
X50055559Y-33814240D01*
X50043476Y-33814811D01*
X49922042Y-33835699D01*
X49833439Y-33875151D01*
X49833434Y-33875155D01*
X49782134Y-33927527D01*
X49768767Y-33959263D01*
X49766993Y-33973015D01*
X49762535Y-33980781D01*
X49753891Y-33983121D01*
X49747233Y-33979905D01*
X49471416Y-33711708D01*
X49467873Y-33703484D01*
X49471184Y-33695164D01*
X49747344Y-33413041D01*
X49755578Y-33409528D01*
X49763887Y-33412866D01*
G37*
G04 #@! TD.AperFunction*
G04 #@! TA.AperFunction,Conductor*
G36*
X50895332Y-33166949D02*
G01*
X51165943Y-33411212D01*
X51426378Y-33646291D01*
X51430223Y-33654378D01*
X51427223Y-33662816D01*
X51426378Y-33663661D01*
X50895272Y-34143104D01*
X50886835Y-34146104D01*
X50882175Y-34144871D01*
X50684491Y-34045440D01*
X50683383Y-34044805D01*
X50525498Y-33942447D01*
X50525395Y-33942379D01*
X50435733Y-33882890D01*
X50323094Y-33825883D01*
X50235279Y-33811372D01*
X50227676Y-33806643D01*
X50225491Y-33800119D01*
X50219827Y-33569901D01*
X50223049Y-33561549D01*
X50229456Y-33558100D01*
X50290516Y-33547159D01*
X50357730Y-33515409D01*
X50496902Y-33411210D01*
X50538477Y-33377341D01*
X50538975Y-33376960D01*
X50706496Y-33255833D01*
X50707977Y-33254922D01*
X50882138Y-33165232D01*
X50891061Y-33164492D01*
X50895332Y-33166949D01*
G37*
G04 #@! TD.AperFunction*
G04 #@! TA.AperFunction,Conductor*
G36*
X56801852Y-36182652D02*
G01*
X56876817Y-36220569D01*
X57042850Y-36293263D01*
X57042853Y-36293264D01*
X57042862Y-36293268D01*
X57042866Y-36293270D01*
X57206572Y-36353741D01*
X57226811Y-36361217D01*
X57440835Y-36428076D01*
X57669398Y-36488112D01*
X57913390Y-36541399D01*
X58165914Y-36586143D01*
X58165927Y-36586144D01*
X58165929Y-36586145D01*
X58667703Y-36645750D01*
X58667705Y-36645750D01*
X58667721Y-36645752D01*
X59120145Y-36664408D01*
X59128269Y-36668173D01*
X59131352Y-36676580D01*
X59131014Y-36678929D01*
X58937131Y-37456450D01*
X58931805Y-37463648D01*
X58925584Y-37465317D01*
X57199150Y-37436555D01*
X57190935Y-37432991D01*
X57187647Y-37424662D01*
X57188075Y-37421713D01*
X57195788Y-37394103D01*
X57207528Y-37316561D01*
X57208161Y-37237040D01*
X57196537Y-37144468D01*
X57173197Y-37051611D01*
X57134121Y-36946650D01*
X57084046Y-36844789D01*
X57019961Y-36739932D01*
X57019959Y-36739928D01*
X56948601Y-36643273D01*
X56948600Y-36643272D01*
X56948598Y-36643269D01*
X56799733Y-36487361D01*
X56682154Y-36403910D01*
X56677392Y-36396328D01*
X56678609Y-36388853D01*
X56786256Y-36187574D01*
X56793178Y-36181897D01*
X56801852Y-36182652D01*
G37*
G04 #@! TD.AperFunction*
G04 #@! TA.AperFunction,Conductor*
G36*
X50717714Y-36974844D02*
G01*
X50826689Y-37026123D01*
X50827596Y-37026600D01*
X50926816Y-37084394D01*
X50927673Y-37084944D01*
X51090269Y-37199682D01*
X51176097Y-37262187D01*
X51283046Y-37321552D01*
X51368044Y-37338153D01*
X51375506Y-37343101D01*
X51377500Y-37349635D01*
X51377500Y-37579920D01*
X51374073Y-37588193D01*
X51367532Y-37591491D01*
X51305393Y-37600789D01*
X51236117Y-37630469D01*
X51236114Y-37630471D01*
X51090299Y-37730295D01*
X51090300Y-37730296D01*
X50901880Y-37861082D01*
X50900513Y-37861899D01*
X50717843Y-37954821D01*
X50708915Y-37955518D01*
X50704698Y-37953078D01*
X50347306Y-37630467D01*
X50173620Y-37473684D01*
X50169776Y-37465598D01*
X50172776Y-37457160D01*
X50173621Y-37456315D01*
X50704893Y-36976745D01*
X50713330Y-36973746D01*
X50717714Y-36974844D01*
G37*
G04 #@! TD.AperFunction*
G04 #@! TA.AperFunction,Conductor*
G36*
X51665529Y-36741821D02*
G01*
X51665548Y-36741829D01*
X52676415Y-37179715D01*
X52951093Y-37298700D01*
X53308080Y-37453339D01*
X53311829Y-37455931D01*
X53312768Y-37456900D01*
X53316063Y-37465225D01*
X53312637Y-37473313D01*
X53311792Y-37474158D01*
X53308170Y-37476621D01*
X51666609Y-38187710D01*
X51662148Y-38188672D01*
X51659127Y-38188721D01*
X51650799Y-38185429D01*
X51650713Y-38185345D01*
X51459701Y-37996601D01*
X51227028Y-37787328D01*
X51226901Y-37787207D01*
X51226793Y-37787117D01*
X51059389Y-37670732D01*
X51059335Y-37670694D01*
X51059327Y-37670690D01*
X51059325Y-37670689D01*
X50918412Y-37609603D01*
X50796313Y-37591795D01*
X50792013Y-37590268D01*
X50790063Y-37589106D01*
X50784946Y-37582736D01*
X50784594Y-37581674D01*
X50784000Y-37577993D01*
X50784000Y-37352845D01*
X50784889Y-37348371D01*
X50785710Y-37346389D01*
X50791477Y-37340308D01*
X50791851Y-37340129D01*
X50792653Y-37339747D01*
X50796452Y-37338671D01*
X50882262Y-37329521D01*
X50979564Y-37298699D01*
X51077941Y-37248456D01*
X51179429Y-37179715D01*
X51399886Y-36990430D01*
X51649948Y-36745351D01*
X51653759Y-36742861D01*
X51656577Y-36741728D01*
X51665529Y-36741821D01*
G37*
G04 #@! TD.AperFunction*
G04 #@! TA.AperFunction,Conductor*
G36*
X49626003Y-35152559D02*
G01*
X49626165Y-35152702D01*
X49746818Y-35261620D01*
X50154651Y-35629789D01*
X50157376Y-35633448D01*
X50158140Y-35635054D01*
X50158574Y-35643500D01*
X50158600Y-35643997D01*
X50158598Y-35643998D01*
X50158171Y-35645203D01*
X50154985Y-35649973D01*
X49626901Y-36126633D01*
X49622985Y-36128971D01*
X49620130Y-36129987D01*
X49611186Y-36129532D01*
X49611115Y-36129498D01*
X49495805Y-36073751D01*
X49495247Y-36073462D01*
X49494703Y-36073162D01*
X49494154Y-36072840D01*
X49390822Y-36008281D01*
X49390293Y-36007930D01*
X49389778Y-36007568D01*
X49389274Y-36007193D01*
X49223119Y-35876529D01*
X49223042Y-35876468D01*
X49222967Y-35876408D01*
X49222860Y-35876321D01*
X49140132Y-35808519D01*
X49140128Y-35808516D01*
X49140127Y-35808515D01*
X49140123Y-35808512D01*
X49140119Y-35808509D01*
X49039803Y-35746195D01*
X49039802Y-35746194D01*
X49039801Y-35746194D01*
X48960236Y-35727470D01*
X48956081Y-35725577D01*
X48954092Y-35724145D01*
X48949626Y-35717667D01*
X48949404Y-35716835D01*
X48949014Y-35713431D01*
X48951188Y-35647872D01*
X48956511Y-35487327D01*
X48957550Y-35482887D01*
X48958488Y-35480819D01*
X48964245Y-35475033D01*
X48965277Y-35474558D01*
X48968873Y-35473561D01*
X49031425Y-35466663D01*
X49104383Y-35439586D01*
X49157562Y-35407538D01*
X49159018Y-35406795D01*
X49160516Y-35406158D01*
X49162063Y-35405624D01*
X49215186Y-35391392D01*
X49329314Y-35325500D01*
X49391123Y-35263689D01*
X49392068Y-35262843D01*
X49393097Y-35262021D01*
X49394128Y-35261287D01*
X49412600Y-35249640D01*
X49413053Y-35249370D01*
X49413604Y-35249060D01*
X49414057Y-35248820D01*
X49610109Y-35151123D01*
X49614510Y-35149924D01*
X49617513Y-35149715D01*
X49626003Y-35152559D01*
G37*
G04 #@! TD.AperFunction*
G04 #@! TA.AperFunction,Conductor*
G36*
X48329486Y-35082313D02*
G01*
X48443488Y-35137233D01*
X48444568Y-35137825D01*
X48546140Y-35200713D01*
X48547138Y-35201406D01*
X48710383Y-35328025D01*
X48710483Y-35328105D01*
X48789208Y-35391814D01*
X48889987Y-35454247D01*
X48971540Y-35473474D01*
X48978806Y-35478708D01*
X48980549Y-35485250D01*
X48972919Y-35715377D01*
X48969219Y-35723532D01*
X48962477Y-35726622D01*
X48920393Y-35731152D01*
X48898885Y-35733467D01*
X48898883Y-35733467D01*
X48898879Y-35733468D01*
X48826469Y-35759721D01*
X48669516Y-35851908D01*
X48531318Y-35937337D01*
X48530368Y-35937865D01*
X48329539Y-36037560D01*
X48320605Y-36038169D01*
X48316804Y-36036033D01*
X47957206Y-35733467D01*
X47761640Y-35568918D01*
X47757517Y-35560970D01*
X47760221Y-35552433D01*
X47761636Y-35551018D01*
X48316880Y-35083901D01*
X48325416Y-35081198D01*
X48329486Y-35082313D01*
G37*
G04 #@! TD.AperFunction*
G04 #@! TA.AperFunction,Conductor*
G36*
X47187253Y-35084014D02*
G01*
X47742358Y-35551047D01*
X47746483Y-35558996D01*
X47743779Y-35567532D01*
X47742358Y-35568953D01*
X47187051Y-36036155D01*
X47178515Y-36038859D01*
X47174557Y-36037798D01*
X47068520Y-35988137D01*
X47067646Y-35987682D01*
X46970888Y-35931999D01*
X46970062Y-35931476D01*
X46811102Y-35821360D01*
X46810957Y-35821258D01*
X46767834Y-35790409D01*
X46729439Y-35762943D01*
X46704817Y-35749372D01*
X46621460Y-35703428D01*
X46536460Y-35686845D01*
X46528996Y-35681898D01*
X46527000Y-35675362D01*
X46527000Y-35445101D01*
X46530427Y-35436828D01*
X46536991Y-35433527D01*
X46598038Y-35424528D01*
X46666469Y-35395714D01*
X46811026Y-35298692D01*
X46989636Y-35176477D01*
X46990930Y-35175710D01*
X47174426Y-35082534D01*
X47183352Y-35081845D01*
X47187253Y-35084014D01*
G37*
G04 #@! TD.AperFunction*
G04 #@! TA.AperFunction,Conductor*
G36*
X47263245Y-32762625D02*
G01*
X47268506Y-32773294D01*
X47268509Y-32773300D01*
X47268512Y-32773305D01*
X47330644Y-32868468D01*
X47337361Y-32878755D01*
X47337361Y-32878756D01*
X47410289Y-32946611D01*
X47479996Y-32974696D01*
X47479996Y-32974697D01*
X47479998Y-32974697D01*
X47480001Y-32974698D01*
X47514807Y-32975252D01*
X47536640Y-32969665D01*
X47545502Y-32970934D01*
X47550873Y-32978099D01*
X47551236Y-32980787D01*
X47564248Y-33694811D01*
X47560973Y-33703145D01*
X47555047Y-33706454D01*
X47277428Y-33767105D01*
X47268614Y-33765523D01*
X47263501Y-33758172D01*
X47263248Y-33756321D01*
X47254043Y-33588187D01*
X47228408Y-33430949D01*
X47191071Y-33279690D01*
X47113079Y-33048539D01*
X47036079Y-32868467D01*
X47035978Y-32859514D01*
X47041890Y-32853265D01*
X47247806Y-32757196D01*
X47256751Y-32756805D01*
X47263245Y-32762625D01*
G37*
G04 #@! TD.AperFunction*
G04 #@! TA.AperFunction,Conductor*
G36*
X40784896Y-27315087D02*
G01*
X40785284Y-27315590D01*
X40932989Y-27518297D01*
X40933753Y-27519491D01*
X41040610Y-27711198D01*
X41041164Y-27712332D01*
X41115155Y-27887076D01*
X41115436Y-27887807D01*
X41131872Y-27935233D01*
X41171342Y-28049128D01*
X41222612Y-28196914D01*
X41222613Y-28196916D01*
X41302551Y-28370952D01*
X41302556Y-28370961D01*
X41408805Y-28520848D01*
X41408809Y-28520853D01*
X41470111Y-28584698D01*
X41479257Y-28594223D01*
X41564696Y-28667992D01*
X41564705Y-28667999D01*
X41671880Y-28745665D01*
X41790580Y-28818888D01*
X41795822Y-28826148D01*
X41794588Y-28834664D01*
X41681509Y-29031963D01*
X41674422Y-29037437D01*
X41665929Y-29036509D01*
X41513319Y-28956562D01*
X41513305Y-28956556D01*
X41489340Y-28946658D01*
X41369085Y-28896991D01*
X41298848Y-28876684D01*
X41239653Y-28859569D01*
X41140180Y-28843799D01*
X41121439Y-28840828D01*
X41117238Y-28840693D01*
X41010852Y-28837298D01*
X40904345Y-28845515D01*
X40904322Y-28845518D01*
X40689173Y-28883318D01*
X40689139Y-28883325D01*
X40633885Y-28893379D01*
X40468836Y-28923412D01*
X40467760Y-28923557D01*
X40204176Y-28946594D01*
X40202705Y-28946629D01*
X39919352Y-28935663D01*
X39911217Y-28931919D01*
X39908113Y-28923520D01*
X39908157Y-28922862D01*
X39910623Y-28896993D01*
X40001527Y-27943143D01*
X40005723Y-27935233D01*
X40005781Y-27935186D01*
X40280520Y-27711198D01*
X40768437Y-27313411D01*
X40777012Y-27310840D01*
X40784896Y-27315087D01*
G37*
G04 #@! TD.AperFunction*
G04 #@! TA.AperFunction,Conductor*
G36*
X39339382Y-43534840D02*
G01*
X39343136Y-43539414D01*
X39422437Y-43658097D01*
X39526903Y-43762563D01*
X39645571Y-43841854D01*
X39658434Y-43861104D01*
X39653917Y-43883812D01*
X39650155Y-43888396D01*
X39402931Y-44135620D01*
X39402931Y-44135621D01*
X39414321Y-44143896D01*
X39486158Y-44180499D01*
X39503951Y-44189565D01*
X39513214Y-44196865D01*
X39515330Y-44199341D01*
X39522491Y-44221358D01*
X39512008Y-44241972D01*
X39511709Y-44242228D01*
X39492035Y-44249500D01*
X38971766Y-44249500D01*
X38960185Y-44247195D01*
X38955935Y-44245434D01*
X38955934Y-44245433D01*
X38955931Y-44245432D01*
X38939565Y-44229064D01*
X38937801Y-44224806D01*
X38935500Y-44213233D01*
X38935500Y-43695435D01*
X38937800Y-43683866D01*
X38939046Y-43680856D01*
X38955411Y-43664483D01*
X38978520Y-43664459D01*
X38978759Y-43664557D01*
X38978884Y-43664609D01*
X38994312Y-43678844D01*
X39041105Y-43770680D01*
X39041109Y-43770686D01*
X39049377Y-43782066D01*
X39049378Y-43782066D01*
X39296603Y-43534839D01*
X39317992Y-43525980D01*
X39339382Y-43534840D01*
G37*
G04 #@! TD.AperFunction*
G04 #@! TA.AperFunction,Conductor*
G36*
X87607082Y-26872800D02*
G01*
X87610092Y-26874047D01*
X87617636Y-26881589D01*
X87626460Y-26890403D01*
X87626460Y-26890410D01*
X87626465Y-26890415D01*
X87626473Y-26913556D01*
X87625918Y-26914898D01*
X87615745Y-26927810D01*
X87507866Y-27006190D01*
X87507865Y-27006189D01*
X87482924Y-27024311D01*
X87349309Y-27157926D01*
X87349210Y-27158047D01*
X87348943Y-27158431D01*
X87241435Y-27306404D01*
X87241434Y-27306406D01*
X87238238Y-27310803D01*
X87152454Y-27479161D01*
X87152408Y-27479279D01*
X87152282Y-27479692D01*
X87094062Y-27658868D01*
X87094058Y-27658884D01*
X87094058Y-27658886D01*
X87064500Y-27845517D01*
X87064500Y-28034481D01*
X87094058Y-28221112D01*
X87094058Y-28221114D01*
X87094062Y-28221130D01*
X87152282Y-28400306D01*
X87152408Y-28400719D01*
X87152454Y-28400837D01*
X87197472Y-28489188D01*
X87197473Y-28489189D01*
X87202959Y-28499957D01*
X87204491Y-28503511D01*
X87213042Y-28527445D01*
X87213043Y-28527448D01*
X87374459Y-28797029D01*
X87377965Y-28802884D01*
X87382524Y-28810149D01*
X87382955Y-28810806D01*
X87383054Y-28810956D01*
X87386421Y-28815859D01*
X87387783Y-28817843D01*
X87516223Y-28996994D01*
X87544091Y-29035865D01*
X87544142Y-29035937D01*
X87664135Y-29204340D01*
X87665619Y-29206636D01*
X87706072Y-29275890D01*
X87707492Y-29278634D01*
X87740537Y-29351405D01*
X87741796Y-29354666D01*
X87768539Y-29438085D01*
X87769386Y-29441342D01*
X87790200Y-29544587D01*
X87790633Y-29547415D01*
X87801913Y-29655138D01*
X87795328Y-29677334D01*
X87793217Y-29679678D01*
X86616032Y-30856863D01*
X86609683Y-30861719D01*
X86595735Y-30869712D01*
X86381475Y-31056413D01*
X86379436Y-31058040D01*
X86294714Y-31119852D01*
X86247751Y-31154115D01*
X86246293Y-31155114D01*
X86097830Y-31250661D01*
X86096278Y-31251596D01*
X85954236Y-31331411D01*
X85952519Y-31332304D01*
X85805021Y-31403181D01*
X85803117Y-31404017D01*
X85736999Y-31430363D01*
X85675161Y-31455004D01*
X85674759Y-31455164D01*
X85672631Y-31455921D01*
X85544464Y-31496205D01*
X85542085Y-31496848D01*
X85434956Y-31521146D01*
X85432320Y-31521622D01*
X85328369Y-31535684D01*
X85325440Y-31535936D01*
X85236657Y-31539243D01*
X85236648Y-31539245D01*
X85215226Y-31543830D01*
X85208895Y-31544500D01*
X85120730Y-31544500D01*
X85117585Y-31544794D01*
X85117585Y-31544795D01*
X85114670Y-31545068D01*
X85093442Y-31547058D01*
X85093436Y-31547059D01*
X85090303Y-31547353D01*
X85090302Y-31547353D01*
X85090301Y-31547354D01*
X85087648Y-31548282D01*
X85087640Y-31548284D01*
X85023209Y-31570830D01*
X85023204Y-31570832D01*
X85016084Y-31573322D01*
X85013088Y-31574199D01*
X84986519Y-31580508D01*
X84986510Y-31580511D01*
X84582643Y-31765502D01*
X84582496Y-31765569D01*
X84306889Y-31890034D01*
X84303021Y-31891472D01*
X84211811Y-31918456D01*
X84206472Y-31919525D01*
X84113412Y-31929558D01*
X84100087Y-31933347D01*
X84091816Y-31934500D01*
X65524294Y-31934500D01*
X65513677Y-31932576D01*
X65508387Y-31930593D01*
X65435985Y-31918741D01*
X65428116Y-31916317D01*
X65371613Y-31890034D01*
X65343557Y-31876983D01*
X65339957Y-31875000D01*
X65201262Y-31785827D01*
X65201274Y-31785807D01*
X65201193Y-31785783D01*
X65014191Y-31664852D01*
X65007014Y-31660418D01*
X65006194Y-31659935D01*
X64998769Y-31655760D01*
X64969519Y-31640106D01*
X64918599Y-31612854D01*
X64787929Y-31542921D01*
X64784240Y-31540589D01*
X64772887Y-31532210D01*
X64772885Y-31532209D01*
X64772884Y-31532208D01*
X64772879Y-31532206D01*
X64772869Y-31532202D01*
X64772858Y-31532198D01*
X64644751Y-31487371D01*
X64644694Y-31487352D01*
X64620561Y-31485090D01*
X64617777Y-31484829D01*
X64617776Y-31484828D01*
X64614267Y-31484500D01*
X64614266Y-31484500D01*
X63655734Y-31484500D01*
X63655730Y-31484500D01*
X63652585Y-31484794D01*
X63652585Y-31484795D01*
X63649670Y-31485068D01*
X63628442Y-31487058D01*
X63628436Y-31487059D01*
X63625303Y-31487353D01*
X63625302Y-31487353D01*
X63625301Y-31487354D01*
X63622651Y-31488280D01*
X63622647Y-31488282D01*
X63566578Y-31507902D01*
X63566578Y-31507901D01*
X63497134Y-31532200D01*
X63497118Y-31532206D01*
X63497113Y-31532209D01*
X63485498Y-31540781D01*
X63481852Y-31543088D01*
X63264218Y-31659997D01*
X63256732Y-31664221D01*
X63255919Y-31664703D01*
X63248872Y-31669071D01*
X63070656Y-31784583D01*
X63070088Y-31784943D01*
X62885847Y-31898626D01*
X62881003Y-31901045D01*
X62832357Y-31920116D01*
X62825473Y-31921916D01*
X62766851Y-31930049D01*
X62756817Y-31933151D01*
X62747883Y-31934500D01*
X60444294Y-31934500D01*
X60433677Y-31932576D01*
X60428387Y-31930593D01*
X60355985Y-31918741D01*
X60348116Y-31916317D01*
X60291613Y-31890034D01*
X60263557Y-31876983D01*
X60259957Y-31875000D01*
X60121262Y-31785827D01*
X60121274Y-31785807D01*
X60121193Y-31785783D01*
X59934191Y-31664852D01*
X59927014Y-31660418D01*
X59926194Y-31659935D01*
X59918769Y-31655760D01*
X59889519Y-31640106D01*
X59838599Y-31612854D01*
X59707929Y-31542921D01*
X59704240Y-31540589D01*
X59692887Y-31532210D01*
X59692885Y-31532209D01*
X59692884Y-31532208D01*
X59692879Y-31532206D01*
X59692869Y-31532202D01*
X59692858Y-31532198D01*
X59564751Y-31487371D01*
X59564694Y-31487352D01*
X59540561Y-31485090D01*
X59537777Y-31484829D01*
X59537776Y-31484828D01*
X59534267Y-31484500D01*
X59534266Y-31484500D01*
X58575734Y-31484500D01*
X58575730Y-31484500D01*
X58572585Y-31484794D01*
X58572585Y-31484795D01*
X58569670Y-31485068D01*
X58548442Y-31487058D01*
X58548436Y-31487059D01*
X58545303Y-31487353D01*
X58545302Y-31487353D01*
X58545301Y-31487354D01*
X58542651Y-31488280D01*
X58542647Y-31488282D01*
X58486578Y-31507902D01*
X58486578Y-31507901D01*
X58417134Y-31532200D01*
X58417118Y-31532206D01*
X58417113Y-31532209D01*
X58405498Y-31540781D01*
X58401852Y-31543088D01*
X58184218Y-31659997D01*
X58176732Y-31664221D01*
X58175919Y-31664703D01*
X58168872Y-31669071D01*
X57990656Y-31784583D01*
X57990088Y-31784943D01*
X57805847Y-31898626D01*
X57801003Y-31901045D01*
X57752357Y-31920116D01*
X57745473Y-31921916D01*
X57686851Y-31930049D01*
X57676817Y-31933151D01*
X57667883Y-31934500D01*
X55364294Y-31934500D01*
X55353677Y-31932576D01*
X55348387Y-31930593D01*
X55275985Y-31918741D01*
X55268116Y-31916317D01*
X55211613Y-31890034D01*
X55183557Y-31876983D01*
X55179957Y-31875000D01*
X55041262Y-31785827D01*
X55041274Y-31785807D01*
X55041193Y-31785783D01*
X54854191Y-31664852D01*
X54847014Y-31660418D01*
X54846194Y-31659935D01*
X54838769Y-31655760D01*
X54809519Y-31640106D01*
X54758599Y-31612854D01*
X54627929Y-31542921D01*
X54624240Y-31540589D01*
X54612887Y-31532210D01*
X54612885Y-31532209D01*
X54612884Y-31532208D01*
X54612879Y-31532206D01*
X54612869Y-31532202D01*
X54612858Y-31532198D01*
X54484751Y-31487371D01*
X54484694Y-31487352D01*
X54460561Y-31485090D01*
X54457777Y-31484829D01*
X54457776Y-31484828D01*
X54454267Y-31484500D01*
X54454266Y-31484500D01*
X53495734Y-31484500D01*
X53495730Y-31484500D01*
X53492585Y-31484794D01*
X53492585Y-31484795D01*
X53489670Y-31485068D01*
X53468442Y-31487058D01*
X53468436Y-31487059D01*
X53465303Y-31487353D01*
X53465302Y-31487353D01*
X53465301Y-31487354D01*
X53462651Y-31488280D01*
X53462647Y-31488282D01*
X53406578Y-31507902D01*
X53406578Y-31507901D01*
X53337140Y-31532198D01*
X53337113Y-31532209D01*
X53337110Y-31532210D01*
X53227854Y-31612845D01*
X53227849Y-31612849D01*
X53227845Y-31612854D01*
X53189710Y-31664525D01*
X53169879Y-31676474D01*
X53168590Y-31676640D01*
X53095428Y-31684471D01*
X53090698Y-31684605D01*
X52903662Y-31675251D01*
X52900258Y-31674887D01*
X52738272Y-31648216D01*
X52736889Y-31648117D01*
X52736903Y-31647915D01*
X52731551Y-31647311D01*
X52603403Y-31615567D01*
X52599141Y-31614168D01*
X52483822Y-31566601D01*
X52479030Y-31564103D01*
X52477437Y-31563082D01*
X52448454Y-31544500D01*
X52435456Y-31536167D01*
X52431962Y-31533553D01*
X52384605Y-31492477D01*
X52381409Y-31489253D01*
X52334236Y-31433911D01*
X52331639Y-31430371D01*
X52294164Y-31370557D01*
X52291247Y-31364490D01*
X52287793Y-31354618D01*
X52272508Y-31333908D01*
X52207150Y-31245350D01*
X52207149Y-31245349D01*
X52179596Y-31225014D01*
X52097888Y-31164710D01*
X52097885Y-31164709D01*
X52097884Y-31164708D01*
X52097879Y-31164706D01*
X52097869Y-31164702D01*
X52097858Y-31164698D01*
X51969751Y-31119871D01*
X51969694Y-31119852D01*
X51945561Y-31117590D01*
X51942777Y-31117329D01*
X51942776Y-31117328D01*
X51939267Y-31117000D01*
X51939266Y-31117000D01*
X50930734Y-31117000D01*
X50930730Y-31117000D01*
X50927585Y-31117294D01*
X50927585Y-31117295D01*
X50923935Y-31117637D01*
X50903433Y-31119559D01*
X50903428Y-31119559D01*
X50900303Y-31119853D01*
X50900302Y-31119853D01*
X50900301Y-31119854D01*
X50897671Y-31120774D01*
X50897653Y-31120778D01*
X50831307Y-31143995D01*
X50772140Y-31164698D01*
X50772113Y-31164709D01*
X50772110Y-31164710D01*
X50662854Y-31245345D01*
X50662849Y-31245349D01*
X50662845Y-31245354D01*
X50582207Y-31354616D01*
X50582201Y-31354627D01*
X50582137Y-31354817D01*
X50539880Y-31475584D01*
X50539879Y-31475585D01*
X50537870Y-31481326D01*
X50537378Y-31482529D01*
X50534500Y-31513233D01*
X50534500Y-32146765D01*
X50537352Y-32177194D01*
X50537371Y-32177251D01*
X50582198Y-32305358D01*
X50582202Y-32305369D01*
X50582206Y-32305379D01*
X50582208Y-32305384D01*
X50582209Y-32305385D01*
X50582210Y-32305388D01*
X50649977Y-32397208D01*
X50662849Y-32414649D01*
X50662850Y-32414650D01*
X50756393Y-32483688D01*
X50772118Y-32495293D01*
X50900301Y-32540146D01*
X50930734Y-32543000D01*
X50930735Y-32543000D01*
X51939265Y-32543000D01*
X51939266Y-32543000D01*
X51969699Y-32540146D01*
X52097882Y-32495293D01*
X52137855Y-32465788D01*
X52160321Y-32460215D01*
X52299830Y-32481425D01*
X52301413Y-32481666D01*
X52301413Y-32481667D01*
X52314724Y-32483691D01*
X52317175Y-32484169D01*
X52448515Y-32515561D01*
X52448613Y-32515631D01*
X52448624Y-32515587D01*
X52522167Y-32533455D01*
X52522194Y-32533461D01*
X52522250Y-32533475D01*
X52524335Y-32533969D01*
X52524353Y-32533973D01*
X52524420Y-32533989D01*
X52524684Y-32534050D01*
X52528283Y-32534138D01*
X52540975Y-32537277D01*
X52544342Y-32538947D01*
X52667292Y-32572169D01*
X52671311Y-32573566D01*
X52800564Y-32629027D01*
X52804445Y-32631036D01*
X52862067Y-32666362D01*
X52864938Y-32668360D01*
X52872934Y-32674645D01*
X52925647Y-32716081D01*
X52928254Y-32718384D01*
X52977806Y-32767525D01*
X52980020Y-32769975D01*
X53029078Y-32830597D01*
X53030929Y-32833145D01*
X53074326Y-32899935D01*
X53075799Y-32902462D01*
X53118870Y-32985306D01*
X53119120Y-32985797D01*
X53119408Y-32986376D01*
X53126452Y-33002223D01*
X53139601Y-33027009D01*
X53139779Y-33027366D01*
X53139789Y-33027514D01*
X53141242Y-33030837D01*
X53147200Y-33047864D01*
X53147204Y-33047873D01*
X53147206Y-33047879D01*
X53147208Y-33047884D01*
X53147209Y-33047885D01*
X53147210Y-33047888D01*
X53227845Y-33157144D01*
X53227849Y-33157149D01*
X53227854Y-33157153D01*
X53305601Y-33214533D01*
X53325497Y-33229217D01*
X53337118Y-33237793D01*
X53465301Y-33282646D01*
X53495734Y-33285500D01*
X53495735Y-33285500D01*
X54454265Y-33285500D01*
X54454266Y-33285500D01*
X54484699Y-33282646D01*
X54612882Y-33237793D01*
X54624510Y-33229209D01*
X54628142Y-33226910D01*
X54845785Y-33109999D01*
X54853132Y-33105856D01*
X54853959Y-33105367D01*
X54861137Y-33100921D01*
X55039370Y-32985396D01*
X55039894Y-32985063D01*
X55224149Y-32871372D01*
X55228985Y-32868957D01*
X55277648Y-32849880D01*
X55284521Y-32848083D01*
X55343148Y-32839950D01*
X55353181Y-32836848D01*
X55362114Y-32835500D01*
X57665709Y-32835500D01*
X57676324Y-32837424D01*
X57681613Y-32839406D01*
X57681612Y-32839406D01*
X57684936Y-32839950D01*
X57754012Y-32851256D01*
X57761880Y-32853680D01*
X57846451Y-32893019D01*
X57850032Y-32894991D01*
X57988725Y-32984163D01*
X58175799Y-33105140D01*
X58182947Y-33109558D01*
X58183779Y-33110049D01*
X58191256Y-33114253D01*
X58401748Y-33226905D01*
X58402068Y-33227076D01*
X58405755Y-33229407D01*
X58417118Y-33237793D01*
X58545301Y-33282646D01*
X58575734Y-33285500D01*
X58575735Y-33285500D01*
X59534265Y-33285500D01*
X59534266Y-33285500D01*
X59564699Y-33282646D01*
X59692882Y-33237793D01*
X59704510Y-33229209D01*
X59708142Y-33226910D01*
X59925785Y-33109999D01*
X59933132Y-33105856D01*
X59933959Y-33105367D01*
X59941137Y-33100921D01*
X60119370Y-32985396D01*
X60119894Y-32985063D01*
X60304149Y-32871372D01*
X60308985Y-32868957D01*
X60357648Y-32849880D01*
X60364521Y-32848083D01*
X60423148Y-32839950D01*
X60433181Y-32836848D01*
X60442114Y-32835500D01*
X62745709Y-32835500D01*
X62756324Y-32837424D01*
X62761613Y-32839406D01*
X62761612Y-32839406D01*
X62764936Y-32839950D01*
X62834012Y-32851256D01*
X62841880Y-32853680D01*
X62926451Y-32893019D01*
X62930032Y-32894991D01*
X63068725Y-32984163D01*
X63255799Y-33105140D01*
X63262947Y-33109558D01*
X63263779Y-33110049D01*
X63271256Y-33114253D01*
X63481748Y-33226905D01*
X63482068Y-33227076D01*
X63485755Y-33229407D01*
X63497118Y-33237793D01*
X63625301Y-33282646D01*
X63655734Y-33285500D01*
X63655735Y-33285500D01*
X64614265Y-33285500D01*
X64614266Y-33285500D01*
X64644699Y-33282646D01*
X64772882Y-33237793D01*
X64784510Y-33229209D01*
X64788142Y-33226910D01*
X65005785Y-33109999D01*
X65013132Y-33105856D01*
X65013959Y-33105367D01*
X65021137Y-33100921D01*
X65199370Y-32985396D01*
X65199894Y-32985063D01*
X65384149Y-32871372D01*
X65388985Y-32868957D01*
X65437648Y-32849880D01*
X65444521Y-32848083D01*
X65503148Y-32839950D01*
X65513181Y-32836848D01*
X65522114Y-32835500D01*
X84092490Y-32835500D01*
X84101650Y-32836920D01*
X84112567Y-32840390D01*
X84273855Y-32858421D01*
X84277808Y-32859132D01*
X84364431Y-32880734D01*
X84367218Y-32881574D01*
X84445963Y-32909516D01*
X84460356Y-32914623D01*
X84463265Y-32915829D01*
X84534024Y-32949585D01*
X84537121Y-32951291D01*
X84574800Y-32975023D01*
X84593104Y-32986552D01*
X84599776Y-32990754D01*
X84602985Y-32993083D01*
X84641667Y-33025222D01*
X84644809Y-33028241D01*
X84675187Y-33061978D01*
X84678077Y-33065748D01*
X84694375Y-33090893D01*
X84696729Y-33095279D01*
X84703153Y-33110049D01*
X84708328Y-33121950D01*
X84709956Y-33126765D01*
X84715651Y-33149841D01*
X84716437Y-33154689D01*
X84718136Y-33176046D01*
X84723516Y-33196617D01*
X84724500Y-33204270D01*
X84724500Y-35049265D01*
X84727352Y-35079694D01*
X84727371Y-35079751D01*
X84757069Y-35164620D01*
X84772206Y-35207879D01*
X84772208Y-35207884D01*
X84772209Y-35207885D01*
X84772210Y-35207888D01*
X84829611Y-35285663D01*
X84834880Y-35292802D01*
X84852850Y-35317150D01*
X84962118Y-35397793D01*
X85090301Y-35442646D01*
X85120734Y-35445500D01*
X85120735Y-35445500D01*
X86329265Y-35445500D01*
X86329266Y-35445500D01*
X86359699Y-35442646D01*
X86487882Y-35397793D01*
X86597150Y-35317150D01*
X86677793Y-35207882D01*
X86722646Y-35079699D01*
X86725500Y-35049266D01*
X86725500Y-32722868D01*
X86725742Y-32719047D01*
X86726219Y-32715301D01*
X86729259Y-32691431D01*
X86725574Y-32638673D01*
X86725500Y-32636565D01*
X86725500Y-32507609D01*
X86725746Y-32503760D01*
X86728321Y-32483688D01*
X86739439Y-32397032D01*
X86740481Y-32392154D01*
X86796789Y-32205820D01*
X86798282Y-32201893D01*
X86897829Y-31986605D01*
X86899584Y-31983351D01*
X86951299Y-31900052D01*
X87040518Y-31756344D01*
X87042615Y-31753381D01*
X87207096Y-31548529D01*
X87207332Y-31548241D01*
X87208053Y-31547366D01*
X87232708Y-31521728D01*
X87245370Y-31502160D01*
X87246482Y-31500813D01*
X87246858Y-31500613D01*
X87248416Y-31498685D01*
X88508177Y-30238924D01*
X88512757Y-30235167D01*
X88531585Y-30222587D01*
X88531585Y-30222586D01*
X88531589Y-30222584D01*
X88585441Y-30168732D01*
X88611006Y-30137579D01*
X88612334Y-30135589D01*
X88614903Y-30132270D01*
X88615482Y-30131619D01*
X88625489Y-30121614D01*
X88625490Y-30121612D01*
X88684798Y-30018887D01*
X88684799Y-30018886D01*
X88715500Y-29904309D01*
X88715500Y-29891427D01*
X88715913Y-29886443D01*
X88716011Y-29885845D01*
X88716017Y-29885822D01*
X88720477Y-29848714D01*
X88725099Y-29686831D01*
X88725232Y-29684759D01*
X88737880Y-29557243D01*
X88738235Y-29554746D01*
X88755437Y-29462044D01*
X88756090Y-29459267D01*
X88776404Y-29388092D01*
X88777958Y-29383867D01*
X88826474Y-29277227D01*
X88838994Y-29249706D01*
X88841421Y-29245363D01*
X88948141Y-29086725D01*
X88948945Y-29085587D01*
X88983497Y-29039168D01*
X88983505Y-29039156D01*
X88983549Y-29039098D01*
X88984852Y-29037325D01*
X88984887Y-29037278D01*
X88985004Y-29037117D01*
X88985680Y-29036181D01*
X89002395Y-29012907D01*
X89138336Y-28823616D01*
X89138339Y-28823611D01*
X89138361Y-28823581D01*
X89143118Y-28816663D01*
X89143647Y-28815859D01*
X89148178Y-28808652D01*
X89278161Y-28592062D01*
X89283990Y-28587744D01*
X89288244Y-28581867D01*
X89292940Y-28581114D01*
X89296764Y-28578282D01*
X89303942Y-28579350D01*
X89311105Y-28578203D01*
X89314957Y-28580991D01*
X89319664Y-28581692D01*
X89329860Y-28591775D01*
X89330013Y-28592025D01*
X89334500Y-28607877D01*
X89334500Y-44213233D01*
X89332195Y-44224814D01*
X89330432Y-44229068D01*
X89314071Y-44245431D01*
X89310865Y-44246759D01*
X89309816Y-44247194D01*
X89298234Y-44249500D01*
X40520436Y-44249500D01*
X40508861Y-44247197D01*
X40505850Y-44245950D01*
X40489480Y-44229580D01*
X40489480Y-44229063D01*
X40489460Y-44206479D01*
X40489478Y-44206434D01*
X40489611Y-44206113D01*
X40503843Y-44190688D01*
X40595674Y-44143898D01*
X40595683Y-44143892D01*
X40607066Y-44135620D01*
X40359843Y-43888397D01*
X40350983Y-43867007D01*
X40359843Y-43845617D01*
X40364424Y-43841857D01*
X40483097Y-43762563D01*
X40587563Y-43658097D01*
X40666855Y-43539426D01*
X40686105Y-43526564D01*
X40708813Y-43531081D01*
X40713397Y-43534843D01*
X40960619Y-43782065D01*
X40960620Y-43782066D01*
X40968892Y-43770683D01*
X40968898Y-43770674D01*
X41049430Y-43612622D01*
X41049432Y-43612615D01*
X41049471Y-43612516D01*
X41049585Y-43612143D01*
X41104248Y-43443913D01*
X41104250Y-43443905D01*
X41132000Y-43268697D01*
X41132000Y-43091302D01*
X41130955Y-43084705D01*
X41130441Y-43081461D01*
X41130440Y-43081455D01*
X41544500Y-43081455D01*
X41544500Y-43278543D01*
X41582947Y-43471830D01*
X41582954Y-43471850D01*
X41658362Y-43653905D01*
X41658364Y-43653910D01*
X41743996Y-43782066D01*
X41767861Y-43817782D01*
X41907217Y-43957138D01*
X41984888Y-44009036D01*
X42071063Y-44066617D01*
X42071088Y-44066634D01*
X42071093Y-44066636D01*
X42143915Y-44096799D01*
X42231823Y-44133211D01*
X42253165Y-44142051D01*
X42446459Y-44180500D01*
X42446461Y-44180500D01*
X42643539Y-44180500D01*
X42643541Y-44180500D01*
X42836835Y-44142051D01*
X42946082Y-44096799D01*
X42946084Y-44096799D01*
X42984766Y-44080776D01*
X43018910Y-44066634D01*
X43018911Y-44066633D01*
X43018914Y-44066632D01*
X43182782Y-43957139D01*
X43322139Y-43817782D01*
X43431632Y-43653914D01*
X43448736Y-43612623D01*
X43448740Y-43612614D01*
X43453092Y-43602104D01*
X43461799Y-43581082D01*
X43507051Y-43471835D01*
X43545500Y-43278541D01*
X43545500Y-43081459D01*
X43545499Y-43081455D01*
X44084500Y-43081455D01*
X44084500Y-43278543D01*
X44122947Y-43471830D01*
X44122954Y-43471850D01*
X44198362Y-43653905D01*
X44198364Y-43653910D01*
X44283996Y-43782066D01*
X44307861Y-43817782D01*
X44447217Y-43957138D01*
X44524888Y-44009036D01*
X44611063Y-44066617D01*
X44611088Y-44066634D01*
X44611093Y-44066636D01*
X44683915Y-44096799D01*
X44771823Y-44133211D01*
X44793165Y-44142051D01*
X44986459Y-44180500D01*
X44986461Y-44180500D01*
X45183539Y-44180500D01*
X45183541Y-44180500D01*
X45376835Y-44142051D01*
X45486082Y-44096799D01*
X45486084Y-44096799D01*
X45524766Y-44080776D01*
X45558910Y-44066634D01*
X45558911Y-44066633D01*
X45558914Y-44066632D01*
X45722782Y-43957139D01*
X45862139Y-43817782D01*
X45971632Y-43653914D01*
X45988736Y-43612623D01*
X45988740Y-43612614D01*
X45993092Y-43602104D01*
X46001799Y-43581082D01*
X46047051Y-43471835D01*
X46085500Y-43278541D01*
X46085500Y-43081459D01*
X46085499Y-43081455D01*
X46624500Y-43081455D01*
X46624500Y-43278543D01*
X46662947Y-43471830D01*
X46662954Y-43471850D01*
X46738362Y-43653905D01*
X46738364Y-43653910D01*
X46823996Y-43782066D01*
X46847861Y-43817782D01*
X46987217Y-43957138D01*
X47064888Y-44009036D01*
X47151063Y-44066617D01*
X47151088Y-44066634D01*
X47151093Y-44066636D01*
X47223915Y-44096799D01*
X47311823Y-44133211D01*
X47333165Y-44142051D01*
X47526459Y-44180500D01*
X47526461Y-44180500D01*
X47723539Y-44180500D01*
X47723541Y-44180500D01*
X47916835Y-44142051D01*
X48026082Y-44096799D01*
X48026084Y-44096799D01*
X48064766Y-44080776D01*
X48098910Y-44066634D01*
X48098911Y-44066633D01*
X48098914Y-44066632D01*
X48262782Y-43957139D01*
X48402139Y-43817782D01*
X48511632Y-43653914D01*
X48528736Y-43612623D01*
X48528740Y-43612614D01*
X48533092Y-43602104D01*
X48541799Y-43581082D01*
X48587051Y-43471835D01*
X48625500Y-43278541D01*
X48625500Y-43081459D01*
X48625499Y-43081455D01*
X49164500Y-43081455D01*
X49164500Y-43278543D01*
X49202947Y-43471830D01*
X49202954Y-43471850D01*
X49278362Y-43653905D01*
X49278364Y-43653910D01*
X49363996Y-43782066D01*
X49387861Y-43817782D01*
X49527217Y-43957138D01*
X49604888Y-44009036D01*
X49691063Y-44066617D01*
X49691088Y-44066634D01*
X49691093Y-44066636D01*
X49763915Y-44096799D01*
X49851823Y-44133211D01*
X49873165Y-44142051D01*
X50066459Y-44180500D01*
X50066461Y-44180500D01*
X50263539Y-44180500D01*
X50263541Y-44180500D01*
X50456835Y-44142051D01*
X50566082Y-44096799D01*
X50566084Y-44096799D01*
X50604766Y-44080776D01*
X50638910Y-44066634D01*
X50638911Y-44066633D01*
X50638914Y-44066632D01*
X50802782Y-43957139D01*
X50942139Y-43817782D01*
X51051632Y-43653914D01*
X51068736Y-43612623D01*
X51068740Y-43612614D01*
X51073092Y-43602104D01*
X51081799Y-43581082D01*
X51127051Y-43471835D01*
X51165500Y-43278541D01*
X51165500Y-43081459D01*
X51165499Y-43081455D01*
X51704500Y-43081455D01*
X51704500Y-43278543D01*
X51742947Y-43471830D01*
X51742954Y-43471850D01*
X51818362Y-43653905D01*
X51818364Y-43653910D01*
X51903996Y-43782066D01*
X51927861Y-43817782D01*
X52067217Y-43957138D01*
X52144888Y-44009036D01*
X52231063Y-44066617D01*
X52231088Y-44066634D01*
X52231093Y-44066636D01*
X52303915Y-44096799D01*
X52391823Y-44133211D01*
X52413165Y-44142051D01*
X52606459Y-44180500D01*
X52606461Y-44180500D01*
X52803539Y-44180500D01*
X52803541Y-44180500D01*
X52996835Y-44142051D01*
X53106082Y-44096799D01*
X53106084Y-44096799D01*
X53144766Y-44080776D01*
X53178910Y-44066634D01*
X53178911Y-44066633D01*
X53178914Y-44066632D01*
X53342782Y-43957139D01*
X53482139Y-43817782D01*
X53591632Y-43653914D01*
X53608736Y-43612623D01*
X53608740Y-43612614D01*
X53613092Y-43602104D01*
X53621799Y-43581082D01*
X53667051Y-43471835D01*
X53705500Y-43278541D01*
X53705500Y-43081459D01*
X53705499Y-43081455D01*
X54244500Y-43081455D01*
X54244500Y-43278543D01*
X54282947Y-43471830D01*
X54282954Y-43471850D01*
X54358362Y-43653905D01*
X54358364Y-43653910D01*
X54443996Y-43782066D01*
X54467861Y-43817782D01*
X54607217Y-43957138D01*
X54684888Y-44009036D01*
X54771063Y-44066617D01*
X54771088Y-44066634D01*
X54771093Y-44066636D01*
X54843915Y-44096799D01*
X54931823Y-44133211D01*
X54953165Y-44142051D01*
X55146459Y-44180500D01*
X55146461Y-44180500D01*
X55343539Y-44180500D01*
X55343541Y-44180500D01*
X55536835Y-44142051D01*
X55646082Y-44096799D01*
X55646084Y-44096799D01*
X55684766Y-44080776D01*
X55718910Y-44066634D01*
X55718911Y-44066633D01*
X55718914Y-44066632D01*
X55882782Y-43957139D01*
X56022139Y-43817782D01*
X56131632Y-43653914D01*
X56148736Y-43612623D01*
X56148740Y-43612614D01*
X56153092Y-43602104D01*
X56161799Y-43581082D01*
X56207051Y-43471835D01*
X56245500Y-43278541D01*
X56245500Y-43081459D01*
X56245499Y-43081455D01*
X56784500Y-43081455D01*
X56784500Y-43278543D01*
X56822947Y-43471830D01*
X56822954Y-43471850D01*
X56898362Y-43653905D01*
X56898364Y-43653910D01*
X56983996Y-43782066D01*
X57007861Y-43817782D01*
X57147217Y-43957138D01*
X57224888Y-44009036D01*
X57311063Y-44066617D01*
X57311088Y-44066634D01*
X57311093Y-44066636D01*
X57383915Y-44096799D01*
X57471823Y-44133211D01*
X57493165Y-44142051D01*
X57686459Y-44180500D01*
X57686461Y-44180500D01*
X57883539Y-44180500D01*
X57883541Y-44180500D01*
X58076835Y-44142051D01*
X58186082Y-44096799D01*
X58186084Y-44096799D01*
X58224766Y-44080776D01*
X58258910Y-44066634D01*
X58258911Y-44066633D01*
X58258914Y-44066632D01*
X58422782Y-43957139D01*
X58562139Y-43817782D01*
X58671632Y-43653914D01*
X58688736Y-43612623D01*
X58688740Y-43612614D01*
X58693092Y-43602104D01*
X58701799Y-43581082D01*
X58747051Y-43471835D01*
X58785500Y-43278541D01*
X58785500Y-43081459D01*
X58785499Y-43081455D01*
X59324500Y-43081455D01*
X59324500Y-43278543D01*
X59362947Y-43471830D01*
X59362954Y-43471850D01*
X59438362Y-43653905D01*
X59438364Y-43653910D01*
X59523996Y-43782066D01*
X59547861Y-43817782D01*
X59687217Y-43957138D01*
X59764888Y-44009036D01*
X59851063Y-44066617D01*
X59851088Y-44066634D01*
X59851093Y-44066636D01*
X59923915Y-44096799D01*
X60011823Y-44133211D01*
X60033165Y-44142051D01*
X60226459Y-44180500D01*
X60226461Y-44180500D01*
X60423539Y-44180500D01*
X60423541Y-44180500D01*
X60616835Y-44142051D01*
X60726082Y-44096799D01*
X60726084Y-44096799D01*
X60764766Y-44080776D01*
X60798910Y-44066634D01*
X60798911Y-44066633D01*
X60798914Y-44066632D01*
X60962782Y-43957139D01*
X61102139Y-43817782D01*
X61211632Y-43653914D01*
X61228736Y-43612623D01*
X61228740Y-43612614D01*
X61233092Y-43602104D01*
X61241799Y-43581082D01*
X61287051Y-43471835D01*
X61325500Y-43278541D01*
X61325500Y-43081459D01*
X61325499Y-43081455D01*
X61864500Y-43081455D01*
X61864500Y-43278543D01*
X61902947Y-43471830D01*
X61902954Y-43471850D01*
X61978362Y-43653905D01*
X61978364Y-43653910D01*
X62063996Y-43782066D01*
X62087861Y-43817782D01*
X62227217Y-43957138D01*
X62304888Y-44009036D01*
X62391063Y-44066617D01*
X62391088Y-44066634D01*
X62391093Y-44066636D01*
X62463915Y-44096799D01*
X62551823Y-44133211D01*
X62573165Y-44142051D01*
X62766459Y-44180500D01*
X62766461Y-44180500D01*
X62963539Y-44180500D01*
X62963541Y-44180500D01*
X63156835Y-44142051D01*
X63266082Y-44096799D01*
X63266084Y-44096799D01*
X63304766Y-44080776D01*
X63338910Y-44066634D01*
X63338911Y-44066633D01*
X63338914Y-44066632D01*
X63502782Y-43957139D01*
X63642139Y-43817782D01*
X63751632Y-43653914D01*
X63768736Y-43612623D01*
X63768740Y-43612614D01*
X63773092Y-43602104D01*
X63781799Y-43581082D01*
X63827051Y-43471835D01*
X63865500Y-43278541D01*
X63865500Y-43081459D01*
X63865499Y-43081455D01*
X64404500Y-43081455D01*
X64404500Y-43278543D01*
X64442947Y-43471830D01*
X64442954Y-43471850D01*
X64518362Y-43653905D01*
X64518364Y-43653910D01*
X64603996Y-43782066D01*
X64627861Y-43817782D01*
X64767217Y-43957138D01*
X64844888Y-44009036D01*
X64931063Y-44066617D01*
X64931088Y-44066634D01*
X64931093Y-44066636D01*
X65003915Y-44096799D01*
X65091823Y-44133211D01*
X65113165Y-44142051D01*
X65306459Y-44180500D01*
X65306461Y-44180500D01*
X65503539Y-44180500D01*
X65503541Y-44180500D01*
X65696835Y-44142051D01*
X65806082Y-44096799D01*
X65806084Y-44096799D01*
X65844766Y-44080776D01*
X65878910Y-44066634D01*
X65878911Y-44066633D01*
X65878914Y-44066632D01*
X66042782Y-43957139D01*
X66182139Y-43817782D01*
X66291632Y-43653914D01*
X66308736Y-43612623D01*
X66308740Y-43612614D01*
X66313092Y-43602104D01*
X66321799Y-43581082D01*
X66367051Y-43471835D01*
X66405500Y-43278541D01*
X66405500Y-43081459D01*
X66405499Y-43081455D01*
X66944500Y-43081455D01*
X66944500Y-43278543D01*
X66982947Y-43471830D01*
X66982954Y-43471850D01*
X67058362Y-43653905D01*
X67058364Y-43653910D01*
X67143996Y-43782066D01*
X67167861Y-43817782D01*
X67307217Y-43957138D01*
X67384888Y-44009036D01*
X67471063Y-44066617D01*
X67471088Y-44066634D01*
X67471093Y-44066636D01*
X67543915Y-44096799D01*
X67631823Y-44133211D01*
X67653165Y-44142051D01*
X67846459Y-44180500D01*
X67846461Y-44180500D01*
X68043539Y-44180500D01*
X68043541Y-44180500D01*
X68236835Y-44142051D01*
X68346082Y-44096799D01*
X68346084Y-44096799D01*
X68384766Y-44080776D01*
X68418910Y-44066634D01*
X68418911Y-44066633D01*
X68418914Y-44066632D01*
X68582782Y-43957139D01*
X68722139Y-43817782D01*
X68831632Y-43653914D01*
X68848736Y-43612623D01*
X68848740Y-43612614D01*
X68853092Y-43602104D01*
X68861799Y-43581082D01*
X68907051Y-43471835D01*
X68945500Y-43278541D01*
X68945500Y-43081459D01*
X68945499Y-43081455D01*
X69484500Y-43081455D01*
X69484500Y-43278543D01*
X69522947Y-43471830D01*
X69522954Y-43471850D01*
X69598362Y-43653905D01*
X69598364Y-43653910D01*
X69683996Y-43782066D01*
X69707861Y-43817782D01*
X69847217Y-43957138D01*
X69924888Y-44009036D01*
X70011063Y-44066617D01*
X70011088Y-44066634D01*
X70011093Y-44066636D01*
X70083915Y-44096799D01*
X70171823Y-44133211D01*
X70193165Y-44142051D01*
X70386459Y-44180500D01*
X70386461Y-44180500D01*
X70583539Y-44180500D01*
X70583541Y-44180500D01*
X70776835Y-44142051D01*
X70886082Y-44096799D01*
X70886084Y-44096799D01*
X70924766Y-44080776D01*
X70958910Y-44066634D01*
X70958911Y-44066633D01*
X70958914Y-44066632D01*
X71122782Y-43957139D01*
X71262139Y-43817782D01*
X71371632Y-43653914D01*
X71388736Y-43612623D01*
X71388740Y-43612614D01*
X71393092Y-43602104D01*
X71401799Y-43581082D01*
X71447051Y-43471835D01*
X71485500Y-43278541D01*
X71485500Y-43081459D01*
X71485499Y-43081455D01*
X72024500Y-43081455D01*
X72024500Y-43278543D01*
X72062947Y-43471830D01*
X72062954Y-43471850D01*
X72138362Y-43653905D01*
X72138364Y-43653910D01*
X72223996Y-43782066D01*
X72247861Y-43817782D01*
X72387217Y-43957138D01*
X72464888Y-44009036D01*
X72551063Y-44066617D01*
X72551088Y-44066634D01*
X72551093Y-44066636D01*
X72623915Y-44096799D01*
X72711823Y-44133211D01*
X72733165Y-44142051D01*
X72926459Y-44180500D01*
X72926461Y-44180500D01*
X73123539Y-44180500D01*
X73123541Y-44180500D01*
X73316835Y-44142051D01*
X73426082Y-44096799D01*
X73426084Y-44096799D01*
X73464766Y-44080776D01*
X73498910Y-44066634D01*
X73498911Y-44066633D01*
X73498914Y-44066632D01*
X73662782Y-43957139D01*
X73802139Y-43817782D01*
X73911632Y-43653914D01*
X73928736Y-43612623D01*
X73928740Y-43612614D01*
X73933092Y-43602104D01*
X73941799Y-43581082D01*
X73987051Y-43471835D01*
X74025500Y-43278541D01*
X74025500Y-43081459D01*
X74025499Y-43081455D01*
X74564500Y-43081455D01*
X74564500Y-43278543D01*
X74602947Y-43471830D01*
X74602954Y-43471850D01*
X74678362Y-43653905D01*
X74678364Y-43653910D01*
X74763996Y-43782066D01*
X74787861Y-43817782D01*
X74927217Y-43957138D01*
X75004888Y-44009036D01*
X75091063Y-44066617D01*
X75091088Y-44066634D01*
X75091093Y-44066636D01*
X75163915Y-44096799D01*
X75251823Y-44133211D01*
X75273165Y-44142051D01*
X75466459Y-44180500D01*
X75466461Y-44180500D01*
X75663539Y-44180500D01*
X75663541Y-44180500D01*
X75856835Y-44142051D01*
X75966082Y-44096799D01*
X75966084Y-44096799D01*
X76004766Y-44080776D01*
X76038910Y-44066634D01*
X76038911Y-44066633D01*
X76038914Y-44066632D01*
X76202782Y-43957139D01*
X76342139Y-43817782D01*
X76451632Y-43653914D01*
X76468736Y-43612623D01*
X76468740Y-43612614D01*
X76473092Y-43602104D01*
X76481799Y-43581082D01*
X76527051Y-43471835D01*
X76565500Y-43278541D01*
X76565500Y-43081459D01*
X76565499Y-43081455D01*
X77104500Y-43081455D01*
X77104500Y-43278543D01*
X77142947Y-43471830D01*
X77142954Y-43471850D01*
X77218362Y-43653905D01*
X77218364Y-43653910D01*
X77303996Y-43782066D01*
X77327861Y-43817782D01*
X77467217Y-43957138D01*
X77544888Y-44009036D01*
X77631063Y-44066617D01*
X77631088Y-44066634D01*
X77631093Y-44066636D01*
X77703915Y-44096799D01*
X77791823Y-44133211D01*
X77813165Y-44142051D01*
X78006459Y-44180500D01*
X78006461Y-44180500D01*
X78203539Y-44180500D01*
X78203541Y-44180500D01*
X78396835Y-44142051D01*
X78506082Y-44096799D01*
X78506084Y-44096799D01*
X78544766Y-44080776D01*
X78578910Y-44066634D01*
X78578911Y-44066633D01*
X78578914Y-44066632D01*
X78742782Y-43957139D01*
X78882139Y-43817782D01*
X78991632Y-43653914D01*
X79008736Y-43612623D01*
X79008740Y-43612614D01*
X79013092Y-43602104D01*
X79021799Y-43581082D01*
X79067051Y-43471835D01*
X79105500Y-43278541D01*
X79105500Y-43081459D01*
X79105499Y-43081455D01*
X79644500Y-43081455D01*
X79644500Y-43278543D01*
X79682947Y-43471830D01*
X79682954Y-43471850D01*
X79758362Y-43653905D01*
X79758364Y-43653910D01*
X79843996Y-43782066D01*
X79867861Y-43817782D01*
X80007217Y-43957138D01*
X80084888Y-44009036D01*
X80171063Y-44066617D01*
X80171088Y-44066634D01*
X80171093Y-44066636D01*
X80243915Y-44096799D01*
X80331823Y-44133211D01*
X80353165Y-44142051D01*
X80546459Y-44180500D01*
X80546461Y-44180500D01*
X80743539Y-44180500D01*
X80743541Y-44180500D01*
X80936835Y-44142051D01*
X81046082Y-44096799D01*
X81046084Y-44096799D01*
X81084766Y-44080776D01*
X81118910Y-44066634D01*
X81118911Y-44066633D01*
X81118914Y-44066632D01*
X81282782Y-43957139D01*
X81422139Y-43817782D01*
X81531632Y-43653914D01*
X81548736Y-43612623D01*
X81548740Y-43612614D01*
X81553092Y-43602104D01*
X81561799Y-43581082D01*
X81607051Y-43471835D01*
X81645500Y-43278541D01*
X81645500Y-43081459D01*
X81645499Y-43081455D01*
X82184500Y-43081455D01*
X82184500Y-43278543D01*
X82222947Y-43471830D01*
X82222954Y-43471850D01*
X82298362Y-43653905D01*
X82298364Y-43653910D01*
X82383996Y-43782066D01*
X82407861Y-43817782D01*
X82547217Y-43957138D01*
X82624888Y-44009036D01*
X82711063Y-44066617D01*
X82711088Y-44066634D01*
X82711093Y-44066636D01*
X82783915Y-44096799D01*
X82871823Y-44133211D01*
X82893165Y-44142051D01*
X83086459Y-44180500D01*
X83086461Y-44180500D01*
X83283539Y-44180500D01*
X83283541Y-44180500D01*
X83476835Y-44142051D01*
X83586082Y-44096799D01*
X83586084Y-44096799D01*
X83624766Y-44080776D01*
X83658910Y-44066634D01*
X83658911Y-44066633D01*
X83658914Y-44066632D01*
X83822782Y-43957139D01*
X83962139Y-43817782D01*
X84071632Y-43653914D01*
X84088736Y-43612623D01*
X84088740Y-43612614D01*
X84093092Y-43602104D01*
X84101799Y-43581082D01*
X84147051Y-43471835D01*
X84185500Y-43278541D01*
X84185500Y-43081459D01*
X84185499Y-43081455D01*
X84724500Y-43081455D01*
X84724500Y-43278543D01*
X84762947Y-43471830D01*
X84762954Y-43471850D01*
X84838362Y-43653905D01*
X84838364Y-43653910D01*
X84923996Y-43782066D01*
X84947861Y-43817782D01*
X85087217Y-43957138D01*
X85164888Y-44009036D01*
X85251063Y-44066617D01*
X85251088Y-44066634D01*
X85251093Y-44066636D01*
X85323915Y-44096799D01*
X85411823Y-44133211D01*
X85433165Y-44142051D01*
X85626459Y-44180500D01*
X85626461Y-44180500D01*
X85823539Y-44180500D01*
X85823541Y-44180500D01*
X86016835Y-44142051D01*
X86126082Y-44096799D01*
X86126084Y-44096799D01*
X86164766Y-44080776D01*
X86198910Y-44066634D01*
X86198911Y-44066633D01*
X86198914Y-44066632D01*
X86362782Y-43957139D01*
X86502139Y-43817782D01*
X86611632Y-43653914D01*
X86628736Y-43612623D01*
X86628740Y-43612614D01*
X86633092Y-43602104D01*
X86641799Y-43581082D01*
X86687051Y-43471835D01*
X86725500Y-43278541D01*
X86725500Y-43081459D01*
X86725499Y-43081455D01*
X87264500Y-43081455D01*
X87264500Y-43278543D01*
X87302947Y-43471830D01*
X87302954Y-43471850D01*
X87378362Y-43653905D01*
X87378364Y-43653910D01*
X87463996Y-43782066D01*
X87487861Y-43817782D01*
X87627217Y-43957138D01*
X87704888Y-44009036D01*
X87791063Y-44066617D01*
X87791088Y-44066634D01*
X87791093Y-44066636D01*
X87863915Y-44096799D01*
X87951823Y-44133211D01*
X87973165Y-44142051D01*
X88166459Y-44180500D01*
X88166461Y-44180500D01*
X88363539Y-44180500D01*
X88363541Y-44180500D01*
X88556835Y-44142051D01*
X88666082Y-44096799D01*
X88666084Y-44096799D01*
X88704766Y-44080776D01*
X88738910Y-44066634D01*
X88738911Y-44066633D01*
X88738914Y-44066632D01*
X88902782Y-43957139D01*
X89042139Y-43817782D01*
X89151632Y-43653914D01*
X89168736Y-43612623D01*
X89168740Y-43612614D01*
X89173092Y-43602104D01*
X89181799Y-43581082D01*
X89227051Y-43471835D01*
X89265500Y-43278541D01*
X89265500Y-43081459D01*
X89227051Y-42888165D01*
X89200781Y-42824742D01*
X89168955Y-42747906D01*
X89151636Y-42706093D01*
X89151634Y-42706088D01*
X89079035Y-42597437D01*
X89066002Y-42577932D01*
X89042139Y-42542218D01*
X88902782Y-42402861D01*
X88738914Y-42293368D01*
X88738915Y-42293368D01*
X88738913Y-42293367D01*
X88738910Y-42293365D01*
X88738128Y-42293041D01*
X88738125Y-42293039D01*
X88556850Y-42217954D01*
X88556830Y-42217947D01*
X88363543Y-42179500D01*
X88363542Y-42179500D01*
X88363541Y-42179500D01*
X88166459Y-42179500D01*
X88166457Y-42179500D01*
X88166455Y-42179500D01*
X87973168Y-42217947D01*
X87973148Y-42217954D01*
X87791093Y-42293362D01*
X87791088Y-42293364D01*
X87791063Y-42293382D01*
X87627216Y-42402861D01*
X87487861Y-42542216D01*
X87378364Y-42706088D01*
X87378362Y-42706093D01*
X87302954Y-42888148D01*
X87302947Y-42888168D01*
X87264500Y-43081455D01*
X86725499Y-43081455D01*
X86687051Y-42888165D01*
X86660781Y-42824742D01*
X86628955Y-42747906D01*
X86611636Y-42706093D01*
X86611634Y-42706088D01*
X86539035Y-42597437D01*
X86526002Y-42577932D01*
X86502139Y-42542218D01*
X86362782Y-42402861D01*
X86198914Y-42293368D01*
X86198915Y-42293368D01*
X86198913Y-42293367D01*
X86198910Y-42293365D01*
X86198128Y-42293041D01*
X86198125Y-42293039D01*
X86016850Y-42217954D01*
X86016830Y-42217947D01*
X85823543Y-42179500D01*
X85823542Y-42179500D01*
X85823541Y-42179500D01*
X85626459Y-42179500D01*
X85626457Y-42179500D01*
X85626455Y-42179500D01*
X85433168Y-42217947D01*
X85433148Y-42217954D01*
X85251093Y-42293362D01*
X85251088Y-42293364D01*
X85251063Y-42293382D01*
X85087216Y-42402861D01*
X84947861Y-42542216D01*
X84838364Y-42706088D01*
X84838362Y-42706093D01*
X84762954Y-42888148D01*
X84762947Y-42888168D01*
X84724500Y-43081455D01*
X84185499Y-43081455D01*
X84147051Y-42888165D01*
X84120781Y-42824742D01*
X84088955Y-42747906D01*
X84071636Y-42706093D01*
X84071634Y-42706088D01*
X83999035Y-42597437D01*
X83986002Y-42577932D01*
X83962139Y-42542218D01*
X83822782Y-42402861D01*
X83658914Y-42293368D01*
X83658915Y-42293368D01*
X83658913Y-42293367D01*
X83658910Y-42293365D01*
X83658128Y-42293041D01*
X83658125Y-42293039D01*
X83476850Y-42217954D01*
X83476830Y-42217947D01*
X83283543Y-42179500D01*
X83283542Y-42179500D01*
X83283541Y-42179500D01*
X83086459Y-42179500D01*
X83086457Y-42179500D01*
X83086455Y-42179500D01*
X82893168Y-42217947D01*
X82893148Y-42217954D01*
X82711093Y-42293362D01*
X82711088Y-42293364D01*
X82711063Y-42293382D01*
X82547216Y-42402861D01*
X82407861Y-42542216D01*
X82298364Y-42706088D01*
X82298362Y-42706093D01*
X82222954Y-42888148D01*
X82222947Y-42888168D01*
X82184500Y-43081455D01*
X81645499Y-43081455D01*
X81607051Y-42888165D01*
X81580781Y-42824742D01*
X81548955Y-42747906D01*
X81531636Y-42706093D01*
X81531634Y-42706088D01*
X81459035Y-42597437D01*
X81446002Y-42577932D01*
X81422139Y-42542218D01*
X81282782Y-42402861D01*
X81118914Y-42293368D01*
X81118915Y-42293368D01*
X81118913Y-42293367D01*
X81118910Y-42293365D01*
X81118128Y-42293041D01*
X81118125Y-42293039D01*
X80936850Y-42217954D01*
X80936830Y-42217947D01*
X80743543Y-42179500D01*
X80743542Y-42179500D01*
X80743541Y-42179500D01*
X80546459Y-42179500D01*
X80546457Y-42179500D01*
X80546455Y-42179500D01*
X80353168Y-42217947D01*
X80353148Y-42217954D01*
X80171093Y-42293362D01*
X80171088Y-42293364D01*
X80171063Y-42293382D01*
X80007216Y-42402861D01*
X79867861Y-42542216D01*
X79758364Y-42706088D01*
X79758362Y-42706093D01*
X79682954Y-42888148D01*
X79682947Y-42888168D01*
X79644500Y-43081455D01*
X79105499Y-43081455D01*
X79067051Y-42888165D01*
X79040781Y-42824742D01*
X79008955Y-42747906D01*
X78991636Y-42706093D01*
X78991634Y-42706088D01*
X78919035Y-42597437D01*
X78906002Y-42577932D01*
X78882139Y-42542218D01*
X78742782Y-42402861D01*
X78578914Y-42293368D01*
X78578915Y-42293368D01*
X78578913Y-42293367D01*
X78578910Y-42293365D01*
X78578128Y-42293041D01*
X78578125Y-42293039D01*
X78396850Y-42217954D01*
X78396830Y-42217947D01*
X78203543Y-42179500D01*
X78203542Y-42179500D01*
X78203541Y-42179500D01*
X78006459Y-42179500D01*
X78006457Y-42179500D01*
X78006455Y-42179500D01*
X77813168Y-42217947D01*
X77813148Y-42217954D01*
X77631093Y-42293362D01*
X77631088Y-42293364D01*
X77631063Y-42293382D01*
X77467216Y-42402861D01*
X77327861Y-42542216D01*
X77218364Y-42706088D01*
X77218362Y-42706093D01*
X77142954Y-42888148D01*
X77142947Y-42888168D01*
X77104500Y-43081455D01*
X76565499Y-43081455D01*
X76527051Y-42888165D01*
X76500781Y-42824742D01*
X76468955Y-42747906D01*
X76451636Y-42706093D01*
X76451634Y-42706088D01*
X76379035Y-42597437D01*
X76366002Y-42577932D01*
X76342139Y-42542218D01*
X76202782Y-42402861D01*
X76038914Y-42293368D01*
X76038915Y-42293368D01*
X76038913Y-42293367D01*
X76038910Y-42293365D01*
X76038128Y-42293041D01*
X76038125Y-42293039D01*
X75856850Y-42217954D01*
X75856830Y-42217947D01*
X75663543Y-42179500D01*
X75663542Y-42179500D01*
X75663541Y-42179500D01*
X75466459Y-42179500D01*
X75466457Y-42179500D01*
X75466455Y-42179500D01*
X75273168Y-42217947D01*
X75273148Y-42217954D01*
X75091093Y-42293362D01*
X75091088Y-42293364D01*
X75091063Y-42293382D01*
X74927216Y-42402861D01*
X74787861Y-42542216D01*
X74678364Y-42706088D01*
X74678362Y-42706093D01*
X74602954Y-42888148D01*
X74602947Y-42888168D01*
X74564500Y-43081455D01*
X74025499Y-43081455D01*
X73987051Y-42888165D01*
X73960781Y-42824742D01*
X73928955Y-42747906D01*
X73911636Y-42706093D01*
X73911634Y-42706088D01*
X73839035Y-42597437D01*
X73826002Y-42577932D01*
X73802139Y-42542218D01*
X73662782Y-42402861D01*
X73498914Y-42293368D01*
X73498915Y-42293368D01*
X73498913Y-42293367D01*
X73498910Y-42293365D01*
X73498128Y-42293041D01*
X73498125Y-42293039D01*
X73316850Y-42217954D01*
X73316830Y-42217947D01*
X73123543Y-42179500D01*
X73123542Y-42179500D01*
X73123541Y-42179500D01*
X72926459Y-42179500D01*
X72926457Y-42179500D01*
X72926455Y-42179500D01*
X72733168Y-42217947D01*
X72733148Y-42217954D01*
X72551093Y-42293362D01*
X72551088Y-42293364D01*
X72551063Y-42293382D01*
X72387216Y-42402861D01*
X72247861Y-42542216D01*
X72138364Y-42706088D01*
X72138362Y-42706093D01*
X72062954Y-42888148D01*
X72062947Y-42888168D01*
X72024500Y-43081455D01*
X71485499Y-43081455D01*
X71447051Y-42888165D01*
X71420781Y-42824742D01*
X71388955Y-42747906D01*
X71371636Y-42706093D01*
X71371634Y-42706088D01*
X71299035Y-42597437D01*
X71286002Y-42577932D01*
X71262139Y-42542218D01*
X71122782Y-42402861D01*
X70958914Y-42293368D01*
X70958915Y-42293368D01*
X70958913Y-42293367D01*
X70958910Y-42293365D01*
X70958128Y-42293041D01*
X70958125Y-42293039D01*
X70776850Y-42217954D01*
X70776830Y-42217947D01*
X70583543Y-42179500D01*
X70583542Y-42179500D01*
X70583541Y-42179500D01*
X70386459Y-42179500D01*
X70386457Y-42179500D01*
X70386455Y-42179500D01*
X70193168Y-42217947D01*
X70193148Y-42217954D01*
X70011093Y-42293362D01*
X70011088Y-42293364D01*
X70011063Y-42293382D01*
X69847216Y-42402861D01*
X69707861Y-42542216D01*
X69598364Y-42706088D01*
X69598362Y-42706093D01*
X69522954Y-42888148D01*
X69522947Y-42888168D01*
X69484500Y-43081455D01*
X68945499Y-43081455D01*
X68907051Y-42888165D01*
X68880781Y-42824742D01*
X68848955Y-42747906D01*
X68831636Y-42706093D01*
X68831634Y-42706088D01*
X68759035Y-42597437D01*
X68746002Y-42577932D01*
X68722139Y-42542218D01*
X68582782Y-42402861D01*
X68418914Y-42293368D01*
X68418915Y-42293368D01*
X68418913Y-42293367D01*
X68418910Y-42293365D01*
X68418128Y-42293041D01*
X68418125Y-42293039D01*
X68236850Y-42217954D01*
X68236830Y-42217947D01*
X68043543Y-42179500D01*
X68043542Y-42179500D01*
X68043541Y-42179500D01*
X67846459Y-42179500D01*
X67846457Y-42179500D01*
X67846455Y-42179500D01*
X67653168Y-42217947D01*
X67653148Y-42217954D01*
X67471093Y-42293362D01*
X67471088Y-42293364D01*
X67471063Y-42293382D01*
X67307216Y-42402861D01*
X67167861Y-42542216D01*
X67058364Y-42706088D01*
X67058362Y-42706093D01*
X66982954Y-42888148D01*
X66982947Y-42888168D01*
X66944500Y-43081455D01*
X66405499Y-43081455D01*
X66367051Y-42888165D01*
X66340781Y-42824742D01*
X66308955Y-42747906D01*
X66291636Y-42706093D01*
X66291634Y-42706088D01*
X66219035Y-42597437D01*
X66206002Y-42577932D01*
X66182139Y-42542218D01*
X66042782Y-42402861D01*
X65878914Y-42293368D01*
X65878915Y-42293368D01*
X65878913Y-42293367D01*
X65878910Y-42293365D01*
X65878128Y-42293041D01*
X65878125Y-42293039D01*
X65696850Y-42217954D01*
X65696830Y-42217947D01*
X65503543Y-42179500D01*
X65503542Y-42179500D01*
X65503541Y-42179500D01*
X65306459Y-42179500D01*
X65306457Y-42179500D01*
X65306455Y-42179500D01*
X65113168Y-42217947D01*
X65113148Y-42217954D01*
X64931093Y-42293362D01*
X64931088Y-42293364D01*
X64931063Y-42293382D01*
X64767216Y-42402861D01*
X64627861Y-42542216D01*
X64518364Y-42706088D01*
X64518362Y-42706093D01*
X64442954Y-42888148D01*
X64442947Y-42888168D01*
X64404500Y-43081455D01*
X63865499Y-43081455D01*
X63827051Y-42888165D01*
X63800781Y-42824742D01*
X63768955Y-42747906D01*
X63751636Y-42706093D01*
X63751634Y-42706088D01*
X63679035Y-42597437D01*
X63666002Y-42577932D01*
X63642139Y-42542218D01*
X63502782Y-42402861D01*
X63338914Y-42293368D01*
X63338915Y-42293368D01*
X63338913Y-42293367D01*
X63338910Y-42293365D01*
X63338128Y-42293041D01*
X63338125Y-42293039D01*
X63156850Y-42217954D01*
X63156830Y-42217947D01*
X62963543Y-42179500D01*
X62963542Y-42179500D01*
X62963541Y-42179500D01*
X62766459Y-42179500D01*
X62766457Y-42179500D01*
X62766455Y-42179500D01*
X62573168Y-42217947D01*
X62573148Y-42217954D01*
X62391093Y-42293362D01*
X62391088Y-42293364D01*
X62391063Y-42293382D01*
X62227216Y-42402861D01*
X62087861Y-42542216D01*
X61978364Y-42706088D01*
X61978362Y-42706093D01*
X61902954Y-42888148D01*
X61902947Y-42888168D01*
X61864500Y-43081455D01*
X61325499Y-43081455D01*
X61287051Y-42888165D01*
X61260781Y-42824742D01*
X61228955Y-42747906D01*
X61211636Y-42706093D01*
X61211634Y-42706088D01*
X61139035Y-42597437D01*
X61126002Y-42577932D01*
X61102139Y-42542218D01*
X60962782Y-42402861D01*
X60798914Y-42293368D01*
X60798915Y-42293368D01*
X60798913Y-42293367D01*
X60798910Y-42293365D01*
X60798128Y-42293041D01*
X60798125Y-42293039D01*
X60616850Y-42217954D01*
X60616830Y-42217947D01*
X60423543Y-42179500D01*
X60423542Y-42179500D01*
X60423541Y-42179500D01*
X60226459Y-42179500D01*
X60226457Y-42179500D01*
X60226455Y-42179500D01*
X60033168Y-42217947D01*
X60033148Y-42217954D01*
X59851093Y-42293362D01*
X59851088Y-42293364D01*
X59851063Y-42293382D01*
X59687216Y-42402861D01*
X59547861Y-42542216D01*
X59438364Y-42706088D01*
X59438362Y-42706093D01*
X59362954Y-42888148D01*
X59362947Y-42888168D01*
X59324500Y-43081455D01*
X58785499Y-43081455D01*
X58747051Y-42888165D01*
X58720781Y-42824742D01*
X58688955Y-42747906D01*
X58671636Y-42706093D01*
X58671634Y-42706088D01*
X58599035Y-42597437D01*
X58586002Y-42577932D01*
X58562139Y-42542218D01*
X58422782Y-42402861D01*
X58258914Y-42293368D01*
X58258915Y-42293368D01*
X58258913Y-42293367D01*
X58258910Y-42293365D01*
X58258128Y-42293041D01*
X58258125Y-42293039D01*
X58076850Y-42217954D01*
X58076830Y-42217947D01*
X57883543Y-42179500D01*
X57883542Y-42179500D01*
X57883541Y-42179500D01*
X57686459Y-42179500D01*
X57686457Y-42179500D01*
X57686455Y-42179500D01*
X57493168Y-42217947D01*
X57493148Y-42217954D01*
X57311093Y-42293362D01*
X57311088Y-42293364D01*
X57311063Y-42293382D01*
X57147216Y-42402861D01*
X57007861Y-42542216D01*
X56898364Y-42706088D01*
X56898362Y-42706093D01*
X56822954Y-42888148D01*
X56822947Y-42888168D01*
X56784500Y-43081455D01*
X56245499Y-43081455D01*
X56207051Y-42888165D01*
X56180781Y-42824742D01*
X56148955Y-42747906D01*
X56131636Y-42706093D01*
X56131634Y-42706088D01*
X56059035Y-42597437D01*
X56046002Y-42577932D01*
X56022139Y-42542218D01*
X55882782Y-42402861D01*
X55718914Y-42293368D01*
X55718915Y-42293368D01*
X55718913Y-42293367D01*
X55718910Y-42293365D01*
X55718128Y-42293041D01*
X55718125Y-42293039D01*
X55536850Y-42217954D01*
X55536830Y-42217947D01*
X55343543Y-42179500D01*
X55343542Y-42179500D01*
X55343541Y-42179500D01*
X55146459Y-42179500D01*
X55146457Y-42179500D01*
X55146455Y-42179500D01*
X54953168Y-42217947D01*
X54953148Y-42217954D01*
X54771093Y-42293362D01*
X54771088Y-42293364D01*
X54771063Y-42293382D01*
X54607216Y-42402861D01*
X54467861Y-42542216D01*
X54358364Y-42706088D01*
X54358362Y-42706093D01*
X54282954Y-42888148D01*
X54282947Y-42888168D01*
X54244500Y-43081455D01*
X53705499Y-43081455D01*
X53667051Y-42888165D01*
X53640781Y-42824742D01*
X53608955Y-42747906D01*
X53591636Y-42706093D01*
X53591634Y-42706088D01*
X53519035Y-42597437D01*
X53506002Y-42577932D01*
X53482139Y-42542218D01*
X53342782Y-42402861D01*
X53178914Y-42293368D01*
X53178915Y-42293368D01*
X53178913Y-42293367D01*
X53178910Y-42293365D01*
X53178128Y-42293041D01*
X53178125Y-42293039D01*
X52996850Y-42217954D01*
X52996830Y-42217947D01*
X52803543Y-42179500D01*
X52803542Y-42179500D01*
X52803541Y-42179500D01*
X52606459Y-42179500D01*
X52606457Y-42179500D01*
X52606455Y-42179500D01*
X52413168Y-42217947D01*
X52413148Y-42217954D01*
X52231093Y-42293362D01*
X52231088Y-42293364D01*
X52231063Y-42293382D01*
X52067216Y-42402861D01*
X51927861Y-42542216D01*
X51818364Y-42706088D01*
X51818362Y-42706093D01*
X51742954Y-42888148D01*
X51742947Y-42888168D01*
X51704500Y-43081455D01*
X51165499Y-43081455D01*
X51127051Y-42888165D01*
X51100781Y-42824742D01*
X51068955Y-42747906D01*
X51051636Y-42706093D01*
X51051634Y-42706088D01*
X50979035Y-42597437D01*
X50966002Y-42577932D01*
X50942139Y-42542218D01*
X50802782Y-42402861D01*
X50638914Y-42293368D01*
X50638915Y-42293368D01*
X50638913Y-42293367D01*
X50638910Y-42293365D01*
X50638128Y-42293041D01*
X50638125Y-42293039D01*
X50456850Y-42217954D01*
X50456830Y-42217947D01*
X50263543Y-42179500D01*
X50263542Y-42179500D01*
X50263541Y-42179500D01*
X50066459Y-42179500D01*
X50066457Y-42179500D01*
X50066455Y-42179500D01*
X49873168Y-42217947D01*
X49873148Y-42217954D01*
X49691093Y-42293362D01*
X49691088Y-42293364D01*
X49691063Y-42293382D01*
X49527216Y-42402861D01*
X49387861Y-42542216D01*
X49278364Y-42706088D01*
X49278362Y-42706093D01*
X49202954Y-42888148D01*
X49202947Y-42888168D01*
X49164500Y-43081455D01*
X48625499Y-43081455D01*
X48587051Y-42888165D01*
X48560781Y-42824742D01*
X48528955Y-42747906D01*
X48511636Y-42706093D01*
X48511634Y-42706088D01*
X48439035Y-42597437D01*
X48426002Y-42577932D01*
X48402139Y-42542218D01*
X48262782Y-42402861D01*
X48098914Y-42293368D01*
X48098915Y-42293368D01*
X48098913Y-42293367D01*
X48098910Y-42293365D01*
X48098128Y-42293041D01*
X48098125Y-42293039D01*
X47916850Y-42217954D01*
X47916830Y-42217947D01*
X47723543Y-42179500D01*
X47723542Y-42179500D01*
X47723541Y-42179500D01*
X47526459Y-42179500D01*
X47526457Y-42179500D01*
X47526455Y-42179500D01*
X47333168Y-42217947D01*
X47333148Y-42217954D01*
X47151093Y-42293362D01*
X47151088Y-42293364D01*
X47151063Y-42293382D01*
X46987216Y-42402861D01*
X46847861Y-42542216D01*
X46738364Y-42706088D01*
X46738362Y-42706093D01*
X46662954Y-42888148D01*
X46662947Y-42888168D01*
X46624500Y-43081455D01*
X46085499Y-43081455D01*
X46047051Y-42888165D01*
X46020781Y-42824742D01*
X45988955Y-42747906D01*
X45971636Y-42706093D01*
X45971634Y-42706088D01*
X45899035Y-42597437D01*
X45886002Y-42577932D01*
X45862139Y-42542218D01*
X45722782Y-42402861D01*
X45558914Y-42293368D01*
X45558915Y-42293368D01*
X45558913Y-42293367D01*
X45558910Y-42293365D01*
X45558128Y-42293041D01*
X45558125Y-42293039D01*
X45376850Y-42217954D01*
X45376830Y-42217947D01*
X45183543Y-42179500D01*
X45183542Y-42179500D01*
X45183541Y-42179500D01*
X44986459Y-42179500D01*
X44986457Y-42179500D01*
X44986455Y-42179500D01*
X44793168Y-42217947D01*
X44793148Y-42217954D01*
X44611093Y-42293362D01*
X44611088Y-42293364D01*
X44611063Y-42293382D01*
X44447216Y-42402861D01*
X44307861Y-42542216D01*
X44198364Y-42706088D01*
X44198362Y-42706093D01*
X44122954Y-42888148D01*
X44122947Y-42888168D01*
X44084500Y-43081455D01*
X43545499Y-43081455D01*
X43507051Y-42888165D01*
X43480781Y-42824742D01*
X43448955Y-42747906D01*
X43431636Y-42706093D01*
X43431634Y-42706088D01*
X43359035Y-42597437D01*
X43346002Y-42577932D01*
X43322139Y-42542218D01*
X43182782Y-42402861D01*
X43018914Y-42293368D01*
X43018915Y-42293368D01*
X43018913Y-42293367D01*
X43018910Y-42293365D01*
X43018128Y-42293041D01*
X43018125Y-42293039D01*
X42836850Y-42217954D01*
X42836830Y-42217947D01*
X42643543Y-42179500D01*
X42643542Y-42179500D01*
X42643541Y-42179500D01*
X42446459Y-42179500D01*
X42446457Y-42179500D01*
X42446455Y-42179500D01*
X42253168Y-42217947D01*
X42253148Y-42217954D01*
X42071093Y-42293362D01*
X42071088Y-42293364D01*
X42071063Y-42293382D01*
X41907216Y-42402861D01*
X41767861Y-42542216D01*
X41658364Y-42706088D01*
X41658362Y-42706093D01*
X41582954Y-42888148D01*
X41582947Y-42888168D01*
X41544500Y-43081455D01*
X41130440Y-43081455D01*
X41122053Y-43028501D01*
X41104250Y-42916094D01*
X41104248Y-42916086D01*
X41049591Y-42747874D01*
X41049473Y-42747487D01*
X41049429Y-42747375D01*
X41047864Y-42744304D01*
X40968896Y-42589321D01*
X40960621Y-42577931D01*
X40960620Y-42577931D01*
X40713396Y-42825155D01*
X40692006Y-42834015D01*
X40670616Y-42825155D01*
X40666854Y-42820571D01*
X40617952Y-42747384D01*
X40587563Y-42701903D01*
X40483097Y-42597437D01*
X40364422Y-42518141D01*
X40351561Y-42498894D01*
X40356078Y-42476186D01*
X40359834Y-42471608D01*
X40607066Y-42224378D01*
X40607066Y-42224377D01*
X40595686Y-42216109D01*
X40595680Y-42216105D01*
X40523840Y-42179500D01*
X40437623Y-42135569D01*
X40437505Y-42135523D01*
X40437092Y-42135397D01*
X40268918Y-42080752D01*
X40268901Y-42080748D01*
X40093697Y-42053000D01*
X39916303Y-42053000D01*
X39741098Y-42080748D01*
X39741096Y-42080748D01*
X39741080Y-42080752D01*
X39572906Y-42135397D01*
X39572493Y-42135523D01*
X39572375Y-42135569D01*
X39414381Y-42216072D01*
X39414333Y-42216095D01*
X39414322Y-42216102D01*
X39402932Y-42224377D01*
X39402932Y-42224378D01*
X39650156Y-42471602D01*
X39659016Y-42492992D01*
X39650156Y-42514382D01*
X39645572Y-42518144D01*
X39526902Y-42597437D01*
X39422437Y-42701902D01*
X39343144Y-42820572D01*
X39323893Y-42833435D01*
X39301186Y-42828918D01*
X39296602Y-42825156D01*
X39049378Y-42577932D01*
X39049377Y-42577932D01*
X39041102Y-42589322D01*
X39041095Y-42589333D01*
X39041072Y-42589381D01*
X38995434Y-42678950D01*
X38988128Y-42688218D01*
X38985652Y-42690333D01*
X38963634Y-42697489D01*
X38943004Y-42686979D01*
X38942989Y-42686961D01*
X38942734Y-42686662D01*
X38935500Y-42667033D01*
X38935500Y-39931078D01*
X39254500Y-39931078D01*
X39254500Y-40078920D01*
X39283340Y-40223908D01*
X39283347Y-40223928D01*
X39339910Y-40360486D01*
X39340718Y-40361699D01*
X39340739Y-40361727D01*
X39422049Y-40483416D01*
X39526583Y-40587950D01*
X39649482Y-40670069D01*
X39649507Y-40670086D01*
X39649512Y-40670088D01*
X39770078Y-40720027D01*
X39786087Y-40726658D01*
X39931082Y-40755500D01*
X39931084Y-40755500D01*
X40078916Y-40755500D01*
X40078918Y-40755500D01*
X40223913Y-40726658D01*
X40305862Y-40692713D01*
X40359514Y-40670490D01*
X40360358Y-40670175D01*
X40360493Y-40670084D01*
X40360495Y-40670084D01*
X40483416Y-40587951D01*
X40587951Y-40483416D01*
X40623122Y-40430779D01*
X84798001Y-40430779D01*
X84808677Y-40504058D01*
X84808678Y-40504062D01*
X84808680Y-40504068D01*
X84863932Y-40617091D01*
X84952907Y-40706066D01*
X85065928Y-40761318D01*
X85065936Y-40761321D01*
X85065944Y-40761323D01*
X85139219Y-40771999D01*
X85139220Y-40771999D01*
X85475000Y-40771999D01*
X85975000Y-40771999D01*
X86310779Y-40771999D01*
X86384058Y-40761322D01*
X86384063Y-40761321D01*
X86497093Y-40706065D01*
X86586065Y-40617093D01*
X86586066Y-40617091D01*
X86641318Y-40504070D01*
X86641321Y-40504063D01*
X86641322Y-40504056D01*
X86652000Y-40430780D01*
X86652000Y-39145000D01*
X85975000Y-39145000D01*
X85975000Y-40771999D01*
X85475000Y-40771999D01*
X85475000Y-39145000D01*
X84798001Y-39145000D01*
X84798001Y-40430779D01*
X40623122Y-40430779D01*
X40670084Y-40360495D01*
X40726658Y-40223913D01*
X40755500Y-40078918D01*
X40755500Y-39931082D01*
X40726658Y-39786087D01*
X40720027Y-39770078D01*
X40670086Y-39649508D01*
X40670086Y-39649507D01*
X40587949Y-39526582D01*
X40483416Y-39422049D01*
X40360517Y-39339930D01*
X40360491Y-39339912D01*
X40360486Y-39339910D01*
X40223928Y-39283347D01*
X40223908Y-39283340D01*
X40078920Y-39254500D01*
X40078919Y-39254500D01*
X40078918Y-39254500D01*
X39931082Y-39254500D01*
X39931080Y-39254500D01*
X39931078Y-39254500D01*
X39786090Y-39283340D01*
X39786070Y-39283347D01*
X39649512Y-39339910D01*
X39649507Y-39339912D01*
X39649482Y-39339930D01*
X39526582Y-39422049D01*
X39422049Y-39526582D01*
X39339912Y-39649507D01*
X39339910Y-39649512D01*
X39283347Y-39786070D01*
X39283340Y-39786090D01*
X39254500Y-39931078D01*
X38935500Y-39931078D01*
X38935500Y-37571381D01*
X41153000Y-37571381D01*
X41153000Y-37778617D01*
X41193426Y-37981851D01*
X41193433Y-37981872D01*
X41272724Y-38173300D01*
X41272726Y-38173305D01*
X41291998Y-38202146D01*
X41304936Y-38221508D01*
X41746225Y-37780217D01*
X41767614Y-37771358D01*
X41789004Y-37780218D01*
X41796833Y-37793778D01*
X41808963Y-37839045D01*
X41864914Y-37935954D01*
X41944045Y-38015085D01*
X42040952Y-38071035D01*
X42040953Y-38071035D01*
X42040956Y-38071037D01*
X42086219Y-38083164D01*
X42104586Y-38097257D01*
X42107608Y-38120212D01*
X42099779Y-38133773D01*
X41658490Y-38575061D01*
X41658490Y-38575062D01*
X41706691Y-38607270D01*
X41706694Y-38607272D01*
X41706696Y-38607273D01*
X41706698Y-38607274D01*
X41797778Y-38645000D01*
X41898136Y-38686569D01*
X41898145Y-38686572D01*
X42100692Y-38726861D01*
X42101211Y-38726977D01*
X42101386Y-38726999D01*
X42101389Y-38727000D01*
X42308610Y-38727000D01*
X42308611Y-38727000D01*
X42308611Y-38726999D01*
X42309809Y-38726805D01*
X42310474Y-38726628D01*
X42511854Y-38686572D01*
X42511863Y-38686569D01*
X42612220Y-38645000D01*
X42703288Y-38607279D01*
X42703303Y-38607272D01*
X42703302Y-38607272D01*
X42703308Y-38607270D01*
X42751508Y-38575062D01*
X42310219Y-38133773D01*
X42301359Y-38112383D01*
X42310219Y-38090993D01*
X42323775Y-38083166D01*
X42369044Y-38071037D01*
X42369047Y-38071035D01*
X42369048Y-38071035D01*
X42465954Y-38015085D01*
X42465956Y-38015084D01*
X42545084Y-37935956D01*
X42545085Y-37935954D01*
X42601035Y-37839048D01*
X42601036Y-37839045D01*
X42601037Y-37839044D01*
X42613165Y-37793777D01*
X42627257Y-37775412D01*
X42650211Y-37772389D01*
X42663773Y-37780219D01*
X43105061Y-38221507D01*
X43105062Y-38221508D01*
X43137270Y-38173308D01*
X43137273Y-38173301D01*
X43137273Y-38173299D01*
X43137279Y-38173288D01*
X43216565Y-37981872D01*
X43216569Y-37981863D01*
X43216572Y-37981854D01*
X43256862Y-37779298D01*
X43256977Y-37778788D01*
X43257000Y-37778607D01*
X43257000Y-37745779D01*
X46900001Y-37745779D01*
X46910677Y-37819058D01*
X46910678Y-37819062D01*
X46910680Y-37819068D01*
X46965932Y-37932091D01*
X47054907Y-38021066D01*
X47167928Y-38076318D01*
X47167936Y-38076321D01*
X47167944Y-38076323D01*
X47241219Y-38086999D01*
X47241220Y-38086999D01*
X47502000Y-38086999D01*
X48002000Y-38086999D01*
X48262779Y-38086999D01*
X48336058Y-38076322D01*
X48336063Y-38076321D01*
X48449093Y-38021065D01*
X48538065Y-37932093D01*
X48593321Y-37819063D01*
X48593322Y-37819059D01*
X48604000Y-37745779D01*
X48604000Y-37710000D01*
X48002000Y-37710000D01*
X48002000Y-38086999D01*
X47502000Y-38086999D01*
X47502000Y-37710000D01*
X46900001Y-37710000D01*
X46900001Y-37745779D01*
X43257000Y-37745779D01*
X43257000Y-37571391D01*
X43256977Y-37571211D01*
X43256861Y-37570692D01*
X43216572Y-37368145D01*
X43216569Y-37368136D01*
X43212876Y-37359220D01*
X43140589Y-37184701D01*
X43137274Y-37176699D01*
X43137269Y-37176689D01*
X43135619Y-37174220D01*
X46900000Y-37174220D01*
X46900000Y-37210000D01*
X47502000Y-37210000D01*
X48002000Y-37210000D01*
X48603999Y-37210000D01*
X48603999Y-37174220D01*
X48600745Y-37151890D01*
X48600745Y-37151889D01*
X48600213Y-37148235D01*
X49264500Y-37148235D01*
X49264500Y-37149385D01*
X49264500Y-37781765D01*
X49267352Y-37812194D01*
X49267371Y-37812251D01*
X49309306Y-37932091D01*
X49312205Y-37940377D01*
X49312208Y-37940383D01*
X49312210Y-37940388D01*
X49392845Y-38049644D01*
X49392849Y-38049649D01*
X49392854Y-38049653D01*
X49421827Y-38071036D01*
X49460661Y-38099697D01*
X49502118Y-38130293D01*
X49630301Y-38175146D01*
X49660734Y-38178000D01*
X49660735Y-38178000D01*
X50669265Y-38178000D01*
X50669266Y-38178000D01*
X50699699Y-38175146D01*
X50784908Y-38145329D01*
X50811016Y-38137985D01*
X50822292Y-38132248D01*
X50827882Y-38130293D01*
X50829738Y-38128922D01*
X50833986Y-38126299D01*
X50932243Y-38076318D01*
X50993686Y-38045063D01*
X51005938Y-38038296D01*
X51007305Y-38037479D01*
X51019059Y-38029899D01*
X51095543Y-37976808D01*
X51118165Y-37971890D01*
X51133019Y-37979167D01*
X51241037Y-38076321D01*
X51318157Y-38145685D01*
X51319190Y-38146659D01*
X51506359Y-38331605D01*
X51506777Y-38331942D01*
X51510239Y-38335554D01*
X51510247Y-38335547D01*
X51511849Y-38337149D01*
X51511850Y-38337150D01*
X51621118Y-38417793D01*
X51749301Y-38462646D01*
X51779734Y-38465500D01*
X51779735Y-38465500D01*
X54888265Y-38465500D01*
X54888266Y-38465500D01*
X54918699Y-38462646D01*
X55046882Y-38417793D01*
X55156150Y-38337150D01*
X55236793Y-38227882D01*
X55281646Y-38099699D01*
X55284500Y-38069266D01*
X55284500Y-36860734D01*
X55281646Y-36830301D01*
X55236793Y-36702118D01*
X55192313Y-36641850D01*
X55156153Y-36592854D01*
X55156149Y-36592849D01*
X55156144Y-36592845D01*
X55046888Y-36512210D01*
X55046885Y-36512209D01*
X55046884Y-36512208D01*
X55046879Y-36512206D01*
X55046869Y-36512202D01*
X55046858Y-36512198D01*
X54918751Y-36467371D01*
X54918694Y-36467352D01*
X54894561Y-36465090D01*
X54891777Y-36464829D01*
X54891776Y-36464828D01*
X54888267Y-36464500D01*
X54888266Y-36464500D01*
X51779734Y-36464500D01*
X51779730Y-36464500D01*
X51776585Y-36464794D01*
X51776585Y-36464795D01*
X51772935Y-36465137D01*
X51752433Y-36467059D01*
X51752428Y-36467059D01*
X51749303Y-36467353D01*
X51749302Y-36467353D01*
X51749301Y-36467354D01*
X51746671Y-36468274D01*
X51746653Y-36468278D01*
X51680307Y-36491495D01*
X51621140Y-36512198D01*
X51621126Y-36512203D01*
X51621120Y-36512206D01*
X51621115Y-36512208D01*
X51603932Y-36524889D01*
X51544260Y-36568928D01*
X51544259Y-36568929D01*
X51542488Y-36570235D01*
X51541356Y-36570826D01*
X51537545Y-36573316D01*
X51528930Y-36580239D01*
X51528415Y-36580620D01*
X51528409Y-36580626D01*
X51511851Y-36592847D01*
X51511848Y-36592850D01*
X51511112Y-36593706D01*
X51511019Y-36593626D01*
X51506770Y-36598052D01*
X51506114Y-36598579D01*
X51506109Y-36598583D01*
X51261597Y-36838221D01*
X51260129Y-36839568D01*
X51131963Y-36949612D01*
X51109962Y-36956824D01*
X51094817Y-36951377D01*
X51046157Y-36917040D01*
X51046133Y-36917023D01*
X51038690Y-36912012D01*
X51037804Y-36911444D01*
X51030243Y-36906817D01*
X50931037Y-36849032D01*
X50923232Y-36844709D01*
X50922389Y-36844266D01*
X50922363Y-36844253D01*
X50922342Y-36844242D01*
X50914186Y-36840181D01*
X50879625Y-36823918D01*
X50805209Y-36788901D01*
X50767636Y-36775499D01*
X50763250Y-36774401D01*
X50749977Y-36772035D01*
X50745297Y-36770808D01*
X50699713Y-36754859D01*
X50699694Y-36754852D01*
X50675561Y-36752590D01*
X50672777Y-36752329D01*
X50672776Y-36752328D01*
X50669267Y-36752000D01*
X50669266Y-36752000D01*
X49660734Y-36752000D01*
X49660730Y-36752000D01*
X49657585Y-36752294D01*
X49657585Y-36752295D01*
X49654670Y-36752568D01*
X49633442Y-36754558D01*
X49633436Y-36754559D01*
X49630303Y-36754853D01*
X49630302Y-36754853D01*
X49630301Y-36754854D01*
X49627651Y-36755780D01*
X49627647Y-36755782D01*
X49572913Y-36774935D01*
X49572913Y-36774934D01*
X49502140Y-36799698D01*
X49502113Y-36799709D01*
X49502110Y-36799710D01*
X49392854Y-36880345D01*
X49392849Y-36880349D01*
X49392845Y-36880354D01*
X49312207Y-36989616D01*
X49312201Y-36989627D01*
X49312137Y-36989817D01*
X49271661Y-37105494D01*
X49271660Y-37105494D01*
X49268946Y-37113249D01*
X49268945Y-37113254D01*
X49267354Y-37117802D01*
X49267353Y-37117803D01*
X49264500Y-37148235D01*
X48600213Y-37148235D01*
X48593322Y-37100941D01*
X48593321Y-37100936D01*
X48557997Y-37028678D01*
X48538066Y-36987907D01*
X48449091Y-36898932D01*
X48336070Y-36843680D01*
X48336063Y-36843678D01*
X48336054Y-36843675D01*
X48262780Y-36833000D01*
X48262779Y-36833000D01*
X48002000Y-36833000D01*
X48002000Y-37210000D01*
X47502000Y-37210000D01*
X47502000Y-36833000D01*
X47241220Y-36833000D01*
X47167941Y-36843677D01*
X47167936Y-36843678D01*
X47167930Y-36843680D01*
X47054907Y-36898932D01*
X46965932Y-36987907D01*
X46910680Y-37100928D01*
X46910678Y-37100936D01*
X46910676Y-37100943D01*
X46900191Y-37172906D01*
X46900000Y-37174220D01*
X43135619Y-37174220D01*
X43120697Y-37151889D01*
X43105062Y-37128490D01*
X43105061Y-37128490D01*
X42663773Y-37569778D01*
X42642383Y-37578638D01*
X42620993Y-37569778D01*
X42613164Y-37556217D01*
X42601037Y-37510956D01*
X42578348Y-37471658D01*
X42545085Y-37414045D01*
X42465954Y-37334914D01*
X42369045Y-37278963D01*
X42323778Y-37266833D01*
X42305410Y-37252739D01*
X42302389Y-37229784D01*
X42310216Y-37216226D01*
X42751508Y-36774936D01*
X42717183Y-36752000D01*
X42703331Y-36742744D01*
X42703305Y-36742726D01*
X42703300Y-36742724D01*
X42511872Y-36663433D01*
X42511863Y-36663430D01*
X42511854Y-36663427D01*
X42511851Y-36663426D01*
X42308617Y-36623000D01*
X42308614Y-36623000D01*
X42101385Y-36623000D01*
X42101381Y-36623000D01*
X41898147Y-36663426D01*
X41898126Y-36663433D01*
X41706698Y-36742724D01*
X41706693Y-36742726D01*
X41706668Y-36742744D01*
X41706667Y-36742743D01*
X41658488Y-36774934D01*
X42099779Y-37216225D01*
X42108639Y-37237615D01*
X42099779Y-37259005D01*
X42086219Y-37266834D01*
X42040954Y-37278963D01*
X42040952Y-37278964D01*
X41944045Y-37334914D01*
X41944044Y-37334916D01*
X41864916Y-37414044D01*
X41864914Y-37414045D01*
X41808964Y-37510952D01*
X41808963Y-37510954D01*
X41796834Y-37556219D01*
X41782740Y-37574587D01*
X41759785Y-37577608D01*
X41746225Y-37569779D01*
X41304934Y-37128488D01*
X41272743Y-37176667D01*
X41272744Y-37176668D01*
X41272726Y-37176693D01*
X41272726Y-37176695D01*
X41193433Y-37368126D01*
X41193426Y-37368147D01*
X41153000Y-37571381D01*
X38935500Y-37571381D01*
X38935500Y-32745735D01*
X41079500Y-32745735D01*
X41079500Y-32746882D01*
X41079500Y-34204265D01*
X41082352Y-34234694D01*
X41082371Y-34234751D01*
X41116715Y-34332898D01*
X41116715Y-34332899D01*
X41127198Y-34362858D01*
X41127202Y-34362869D01*
X41127206Y-34362879D01*
X41127208Y-34362884D01*
X41127209Y-34362885D01*
X41127210Y-34362888D01*
X41207845Y-34472144D01*
X41207849Y-34472149D01*
X41207854Y-34472153D01*
X41266087Y-34515131D01*
X41317118Y-34552793D01*
X41445301Y-34597646D01*
X41475734Y-34600500D01*
X41475735Y-34600500D01*
X42934265Y-34600500D01*
X42934266Y-34600500D01*
X42964699Y-34597646D01*
X43092882Y-34552793D01*
X43202150Y-34472150D01*
X43282793Y-34362882D01*
X43327646Y-34234699D01*
X43330500Y-34204266D01*
X43330500Y-34194873D01*
X43332800Y-34183304D01*
X43334046Y-34180294D01*
X43350411Y-34163921D01*
X43373564Y-34163915D01*
X43374463Y-34164287D01*
X43376574Y-34165161D01*
X43386393Y-34171720D01*
X45035140Y-35820467D01*
X45071608Y-35841522D01*
X45109357Y-35863316D01*
X45109360Y-35863318D01*
X45157153Y-35876123D01*
X45192147Y-35885500D01*
X46483729Y-35885500D01*
X46490027Y-35886163D01*
X46492687Y-35886729D01*
X46497110Y-35888542D01*
X46546131Y-35898105D01*
X46546333Y-35898148D01*
X46546582Y-35898319D01*
X46554633Y-35901241D01*
X46616117Y-35935130D01*
X46618120Y-35936234D01*
X46621116Y-35938122D01*
X46691393Y-35988395D01*
X46691447Y-35988433D01*
X46692676Y-35989305D01*
X46692827Y-35989411D01*
X46694111Y-35990308D01*
X46732402Y-36016833D01*
X46853041Y-36100403D01*
X46860129Y-36105099D01*
X46860955Y-36105622D01*
X46860985Y-36105640D01*
X46860988Y-36105642D01*
X46868390Y-36110114D01*
X46965118Y-36165779D01*
X46965137Y-36165789D01*
X46965145Y-36165794D01*
X46972753Y-36169961D01*
X46973333Y-36170263D01*
X46973638Y-36170422D01*
X46976960Y-36172063D01*
X46981362Y-36174238D01*
X46985259Y-36176063D01*
X47087387Y-36223894D01*
X47087401Y-36223900D01*
X47121346Y-36236290D01*
X47121351Y-36236291D01*
X47125282Y-36237345D01*
X47125288Y-36237346D01*
X47125306Y-36237351D01*
X47145010Y-36241385D01*
X47148901Y-36242459D01*
X47192301Y-36257646D01*
X47222734Y-36260500D01*
X47222735Y-36260500D01*
X48281265Y-36260500D01*
X48281266Y-36260500D01*
X48311699Y-36257646D01*
X48393152Y-36229144D01*
X48420913Y-36221628D01*
X48435912Y-36214181D01*
X48439882Y-36212793D01*
X48440155Y-36212590D01*
X48444661Y-36209837D01*
X48621742Y-36121933D01*
X48630200Y-36117486D01*
X48631150Y-36116958D01*
X48639372Y-36112136D01*
X48775351Y-36028077D01*
X48775834Y-36027786D01*
X48911878Y-35947881D01*
X48916875Y-35945532D01*
X48937094Y-35938200D01*
X48954332Y-35937194D01*
X48955137Y-35937383D01*
X48959530Y-35939207D01*
X48960220Y-35939238D01*
X48960596Y-35939649D01*
X48964166Y-35941131D01*
X49018584Y-35974934D01*
X49021789Y-35977228D01*
X49092598Y-36035261D01*
X49093737Y-36036188D01*
X49093777Y-36036220D01*
X49093951Y-36036361D01*
X49096000Y-36037994D01*
X49262229Y-36168718D01*
X49266575Y-36172042D01*
X49267157Y-36172475D01*
X49271564Y-36175662D01*
X49271603Y-36175690D01*
X49272118Y-36176052D01*
X49276676Y-36179165D01*
X49277205Y-36179516D01*
X49279334Y-36180887D01*
X49281919Y-36182552D01*
X49344464Y-36221628D01*
X49377812Y-36242463D01*
X49385310Y-36247147D01*
X49390145Y-36250075D01*
X49390167Y-36250088D01*
X49390187Y-36250100D01*
X49390736Y-36250422D01*
X49395466Y-36253113D01*
X49396010Y-36253413D01*
X49400738Y-36255940D01*
X49400782Y-36255963D01*
X49400803Y-36255974D01*
X49401292Y-36256227D01*
X49401296Y-36256229D01*
X49406360Y-36258764D01*
X49500069Y-36304067D01*
X49501196Y-36304612D01*
X49502118Y-36305293D01*
X49503871Y-36305906D01*
X49505408Y-36306650D01*
X49505417Y-36306654D01*
X49513561Y-36310590D01*
X49521741Y-36314545D01*
X49545877Y-36320722D01*
X49548354Y-36321471D01*
X49630301Y-36350146D01*
X49660734Y-36353000D01*
X49660735Y-36353000D01*
X50669265Y-36353000D01*
X50669266Y-36353000D01*
X50699699Y-36350146D01*
X50827882Y-36305293D01*
X50937150Y-36224650D01*
X51017793Y-36115382D01*
X51062646Y-35987199D01*
X51065500Y-35956766D01*
X51065500Y-35323234D01*
X51062646Y-35292801D01*
X51017793Y-35164618D01*
X51016636Y-35163051D01*
X50967977Y-35097120D01*
X50937153Y-35055354D01*
X50937149Y-35055349D01*
X50937144Y-35055345D01*
X50827888Y-34974710D01*
X50827885Y-34974709D01*
X50827884Y-34974708D01*
X50827879Y-34974706D01*
X50827869Y-34974702D01*
X50827858Y-34974698D01*
X50699751Y-34929871D01*
X50699694Y-34929852D01*
X50675561Y-34927590D01*
X50672777Y-34927329D01*
X50672776Y-34927328D01*
X50669267Y-34927000D01*
X50669266Y-34927000D01*
X49660734Y-34927000D01*
X49660730Y-34927000D01*
X49657585Y-34927294D01*
X49657585Y-34927295D01*
X49654414Y-34927592D01*
X49633432Y-34929559D01*
X49633426Y-34929560D01*
X49630303Y-34929853D01*
X49630302Y-34929853D01*
X49630301Y-34929854D01*
X49627664Y-34930776D01*
X49627657Y-34930778D01*
X49577467Y-34948339D01*
X49572530Y-34949611D01*
X49560479Y-34951652D01*
X49556097Y-34952846D01*
X49556088Y-34952849D01*
X49518458Y-34967193D01*
X49518456Y-34967193D01*
X49508049Y-34972378D01*
X49508048Y-34972377D01*
X49506338Y-34973228D01*
X49502120Y-34974706D01*
X49502115Y-34974708D01*
X49499500Y-34976636D01*
X49497141Y-34977812D01*
X49497142Y-34977812D01*
X49322442Y-35064871D01*
X49319766Y-35066246D01*
X49317851Y-35067231D01*
X49317838Y-35067238D01*
X49317422Y-35067458D01*
X49312784Y-35069990D01*
X49312337Y-35070242D01*
X49307812Y-35072863D01*
X49307377Y-35073122D01*
X49302986Y-35075814D01*
X49284524Y-35087455D01*
X49274959Y-35093868D01*
X49273901Y-35094621D01*
X49264843Y-35101455D01*
X49263796Y-35102291D01*
X49255004Y-35109728D01*
X49254069Y-35110566D01*
X49245803Y-35118387D01*
X49205946Y-35158244D01*
X49199681Y-35163051D01*
X49139318Y-35197903D01*
X49132026Y-35200923D01*
X49108884Y-35207124D01*
X49108858Y-35207131D01*
X49095031Y-35211363D01*
X49093449Y-35211910D01*
X49080126Y-35217034D01*
X49078940Y-35217538D01*
X49078601Y-35217683D01*
X49065610Y-35223751D01*
X49064976Y-35224074D01*
X49064137Y-35224502D01*
X49051484Y-35231532D01*
X49017248Y-35252164D01*
X49012159Y-35254615D01*
X48992221Y-35262014D01*
X48974776Y-35263102D01*
X48974559Y-35263051D01*
X48970059Y-35261186D01*
X48969085Y-35261150D01*
X48968531Y-35260553D01*
X48965550Y-35259318D01*
X48910046Y-35224934D01*
X48906947Y-35222734D01*
X48839732Y-35168340D01*
X48839732Y-35168339D01*
X48838821Y-35167606D01*
X48838821Y-35167605D01*
X48838763Y-35167559D01*
X48836418Y-35165713D01*
X48836375Y-35165679D01*
X48836331Y-35165645D01*
X48673086Y-35039026D01*
X48673067Y-35039012D01*
X48664353Y-35032613D01*
X48663343Y-35031911D01*
X48654315Y-35025989D01*
X48611855Y-34999700D01*
X48552746Y-34963103D01*
X48543346Y-34957622D01*
X48543343Y-34957620D01*
X48542246Y-34957019D01*
X48532674Y-34952094D01*
X48443152Y-34908967D01*
X48440607Y-34907741D01*
X48439884Y-34907208D01*
X48439879Y-34907206D01*
X48438476Y-34906715D01*
X48436955Y-34905982D01*
X48436948Y-34905979D01*
X48418676Y-34897176D01*
X48383775Y-34884113D01*
X48379710Y-34883000D01*
X48379700Y-34882998D01*
X48359508Y-34878804D01*
X48355670Y-34877739D01*
X48311713Y-34862359D01*
X48311694Y-34862352D01*
X48287561Y-34860090D01*
X48284777Y-34859829D01*
X48284776Y-34859828D01*
X48281267Y-34859500D01*
X48281266Y-34859500D01*
X47222734Y-34859500D01*
X47222730Y-34859500D01*
X47219585Y-34859794D01*
X47219585Y-34859795D01*
X47215935Y-34860137D01*
X47195433Y-34862059D01*
X47195428Y-34862059D01*
X47192303Y-34862353D01*
X47192302Y-34862353D01*
X47192301Y-34862354D01*
X47189671Y-34863274D01*
X47189653Y-34863278D01*
X47123307Y-34886494D01*
X47123304Y-34886495D01*
X47109088Y-34891468D01*
X47107272Y-34892040D01*
X47081389Y-34899301D01*
X47081382Y-34899304D01*
X47071391Y-34904377D01*
X47069586Y-34905292D01*
X47064120Y-34907206D01*
X47064115Y-34907208D01*
X47060366Y-34909973D01*
X47058119Y-34911114D01*
X47058119Y-34911115D01*
X46897895Y-34992475D01*
X46886141Y-34998934D01*
X46884849Y-34999700D01*
X46873586Y-35006880D01*
X46695852Y-35128495D01*
X46695628Y-35128647D01*
X46570852Y-35212393D01*
X46565733Y-35215155D01*
X46545831Y-35223535D01*
X46538504Y-35225582D01*
X46507027Y-35230222D01*
X46507018Y-35230224D01*
X46499244Y-35232682D01*
X46497944Y-35233093D01*
X46488828Y-35234500D01*
X45388373Y-35234500D01*
X45376797Y-35232197D01*
X45366527Y-35227943D01*
X45356713Y-35221386D01*
X43349860Y-33214533D01*
X43348290Y-33213329D01*
X43348502Y-33213051D01*
X43341959Y-33207312D01*
X43336749Y-33200521D01*
X43330500Y-33182108D01*
X43330500Y-32745735D01*
X43327778Y-32716709D01*
X43327737Y-32715834D01*
X43327647Y-32715306D01*
X43327646Y-32715302D01*
X43327646Y-32715301D01*
X43282793Y-32587118D01*
X43282791Y-32587115D01*
X43274044Y-32575263D01*
X43274037Y-32575255D01*
X43274036Y-32575254D01*
X43202150Y-32477850D01*
X43202149Y-32477849D01*
X43202144Y-32477845D01*
X43092888Y-32397210D01*
X43092885Y-32397209D01*
X43092884Y-32397208D01*
X43092879Y-32397206D01*
X43092869Y-32397202D01*
X43092858Y-32397198D01*
X42964751Y-32352371D01*
X42964694Y-32352352D01*
X42940561Y-32350090D01*
X42937777Y-32349829D01*
X42937776Y-32349828D01*
X42934267Y-32349500D01*
X42934266Y-32349500D01*
X41475734Y-32349500D01*
X41475730Y-32349500D01*
X41472585Y-32349794D01*
X41472585Y-32349795D01*
X41468935Y-32350137D01*
X41448433Y-32352059D01*
X41448428Y-32352059D01*
X41445303Y-32352353D01*
X41445302Y-32352353D01*
X41445301Y-32352354D01*
X41442671Y-32353274D01*
X41442653Y-32353278D01*
X41376307Y-32376495D01*
X41317140Y-32397198D01*
X41317113Y-32397209D01*
X41317110Y-32397210D01*
X41207854Y-32477845D01*
X41207849Y-32477849D01*
X41207845Y-32477854D01*
X41127210Y-32587110D01*
X41127209Y-32587113D01*
X41127198Y-32587140D01*
X41083942Y-32710758D01*
X41083940Y-32710766D01*
X41082354Y-32715302D01*
X41082353Y-32715303D01*
X41079500Y-32745735D01*
X38935500Y-32745735D01*
X38935500Y-31041078D01*
X39254500Y-31041078D01*
X39254500Y-31188920D01*
X39283340Y-31333908D01*
X39283347Y-31333928D01*
X39339910Y-31470486D01*
X39339912Y-31470491D01*
X39399666Y-31559917D01*
X39422049Y-31593416D01*
X39526583Y-31697950D01*
X39583418Y-31735926D01*
X39649482Y-31780069D01*
X39649507Y-31780086D01*
X39649512Y-31780088D01*
X39770078Y-31830027D01*
X39786087Y-31836658D01*
X39931082Y-31865500D01*
X39931084Y-31865500D01*
X40078916Y-31865500D01*
X40078918Y-31865500D01*
X40223913Y-31836658D01*
X40355580Y-31782120D01*
X40359535Y-31780481D01*
X40360360Y-31780174D01*
X40382218Y-31765569D01*
X40483416Y-31697951D01*
X40587951Y-31593416D01*
X40670084Y-31470495D01*
X40674947Y-31458757D01*
X40676683Y-31454565D01*
X40718081Y-31354620D01*
X40718083Y-31354615D01*
X40726658Y-31333913D01*
X40755500Y-31188918D01*
X40755500Y-31041082D01*
X40726658Y-30896087D01*
X40720027Y-30880078D01*
X40670086Y-30759508D01*
X40670086Y-30759507D01*
X40587949Y-30636582D01*
X40483416Y-30532049D01*
X40360517Y-30449930D01*
X40360491Y-30449912D01*
X40360486Y-30449910D01*
X40223928Y-30393347D01*
X40223908Y-30393340D01*
X40078920Y-30364500D01*
X40078919Y-30364500D01*
X40078918Y-30364500D01*
X39931082Y-30364500D01*
X39931080Y-30364500D01*
X39931078Y-30364500D01*
X39786090Y-30393340D01*
X39786070Y-30393347D01*
X39649512Y-30449910D01*
X39649507Y-30449912D01*
X39649482Y-30449930D01*
X39526582Y-30532049D01*
X39422049Y-30636582D01*
X39339912Y-30759507D01*
X39339910Y-30759512D01*
X39283347Y-30896070D01*
X39283340Y-30896090D01*
X39254500Y-31041078D01*
X38935500Y-31041078D01*
X38935500Y-28609487D01*
X38937800Y-28597918D01*
X38939046Y-28594908D01*
X38955411Y-28578535D01*
X38978555Y-28578525D01*
X38979901Y-28579082D01*
X38992810Y-28589253D01*
X39089310Y-28722073D01*
X39222927Y-28855690D01*
X39375801Y-28966760D01*
X39466368Y-29012906D01*
X39544163Y-29052545D01*
X39544165Y-29052545D01*
X39544168Y-29052547D01*
X39544173Y-29052548D01*
X39544378Y-29052653D01*
X39545280Y-29052908D01*
X39637652Y-29082922D01*
X39723874Y-29110938D01*
X39723882Y-29110940D01*
X39905698Y-29139735D01*
X39908007Y-29140194D01*
X39911405Y-29141009D01*
X40042183Y-29146070D01*
X40194751Y-29151975D01*
X40203742Y-29152042D01*
X40207593Y-29152071D01*
X40207593Y-29152070D01*
X40207596Y-29152071D01*
X40209067Y-29152036D01*
X40222056Y-29151315D01*
X40222066Y-29151314D01*
X40222068Y-29151314D01*
X40485652Y-29128277D01*
X40495205Y-29127216D01*
X40496281Y-29127071D01*
X40505625Y-29125592D01*
X40725441Y-29085593D01*
X40928655Y-29049889D01*
X40931537Y-29049526D01*
X41013850Y-29043176D01*
X41017127Y-29043102D01*
X41100099Y-29045749D01*
X41103857Y-29046106D01*
X41192999Y-29060238D01*
X41196657Y-29061054D01*
X41283436Y-29086144D01*
X41299509Y-29090791D01*
X41302655Y-29091892D01*
X41424969Y-29142410D01*
X41427458Y-29143573D01*
X41547839Y-29206636D01*
X41570568Y-29218543D01*
X41589964Y-29224451D01*
X41596180Y-29227138D01*
X46388870Y-31974015D01*
X46396093Y-31979783D01*
X46399373Y-31983351D01*
X46402130Y-31986350D01*
X46407273Y-31994032D01*
X46840877Y-32923425D01*
X46843063Y-32929975D01*
X46847127Y-32949255D01*
X46847131Y-32949268D01*
X46875070Y-33014606D01*
X46903376Y-33080804D01*
X46920482Y-33120807D01*
X46921330Y-33123029D01*
X46993205Y-33336050D01*
X46993912Y-33338472D01*
X47026625Y-33471001D01*
X47027112Y-33473383D01*
X47049189Y-33608797D01*
X47049538Y-33612010D01*
X47058055Y-33767555D01*
X47059643Y-33784173D01*
X47059887Y-33785959D01*
X47060590Y-33790697D01*
X47061302Y-33792460D01*
X47063500Y-33803779D01*
X47063500Y-34324261D01*
X47073111Y-34390224D01*
X47073196Y-34391397D01*
X47073426Y-34392392D01*
X47073427Y-34392394D01*
X47124802Y-34497483D01*
X47207517Y-34580198D01*
X47312607Y-34631573D01*
X47380740Y-34641500D01*
X47747260Y-34641500D01*
X47815393Y-34631573D01*
X47920483Y-34580198D01*
X48003198Y-34497483D01*
X48054573Y-34392393D01*
X48064500Y-34324260D01*
X48064500Y-33082740D01*
X48064500Y-33082737D01*
X48963500Y-33082737D01*
X48963500Y-34324261D01*
X48973111Y-34390224D01*
X48973196Y-34391397D01*
X48973426Y-34392392D01*
X48973427Y-34392394D01*
X49024802Y-34497483D01*
X49107517Y-34580198D01*
X49212607Y-34631573D01*
X49280740Y-34641500D01*
X49647260Y-34641500D01*
X49715393Y-34631573D01*
X49820483Y-34580198D01*
X49903198Y-34497483D01*
X49954573Y-34392393D01*
X49964500Y-34324260D01*
X49964500Y-34062404D01*
X49973360Y-34041014D01*
X49989620Y-34032592D01*
X50078313Y-34017337D01*
X50078312Y-34017336D01*
X50089155Y-34015472D01*
X50091520Y-34013978D01*
X50095911Y-34013547D01*
X50187968Y-34011282D01*
X50194163Y-34011770D01*
X50196826Y-34012258D01*
X50201775Y-34014122D01*
X50254156Y-34022777D01*
X50254395Y-34022821D01*
X50254647Y-34022984D01*
X50262594Y-34025583D01*
X50330592Y-34059997D01*
X50333648Y-34061775D01*
X50411886Y-34113685D01*
X50411945Y-34113724D01*
X50411953Y-34113729D01*
X50413640Y-34114836D01*
X50413641Y-34114836D01*
X50413708Y-34114880D01*
X50571593Y-34217238D01*
X50581201Y-34223100D01*
X50582309Y-34223735D01*
X50587196Y-34226361D01*
X50592157Y-34229029D01*
X50766633Y-34316786D01*
X50768935Y-34317944D01*
X50772118Y-34320293D01*
X50777004Y-34322002D01*
X50778755Y-34322883D01*
X50789835Y-34328456D01*
X50829610Y-34343535D01*
X50834270Y-34344768D01*
X50848522Y-34347403D01*
X50852994Y-34348592D01*
X50900301Y-34365146D01*
X50930734Y-34368000D01*
X50930735Y-34368000D01*
X51348164Y-34368000D01*
X51361967Y-34368844D01*
X51368168Y-34368000D01*
X51930826Y-34368000D01*
X51935005Y-34368289D01*
X52040546Y-34383015D01*
X52044192Y-34383755D01*
X52076406Y-34392394D01*
X52300612Y-34452522D01*
X52304145Y-34453708D01*
X52349617Y-34472150D01*
X52440668Y-34509078D01*
X52458286Y-34512747D01*
X52465289Y-34515130D01*
X53632066Y-35079699D01*
X55223502Y-35849749D01*
X55224032Y-35850012D01*
X55224538Y-35850269D01*
X55225076Y-35850550D01*
X55977830Y-36253132D01*
X56242177Y-36394508D01*
X56548769Y-36558477D01*
X56556487Y-36564373D01*
X56563215Y-36571492D01*
X56662347Y-36641850D01*
X56666717Y-36645628D01*
X56711524Y-36692555D01*
X56787414Y-36772035D01*
X56789670Y-36774397D01*
X56792128Y-36777320D01*
X56848516Y-36853700D01*
X56849991Y-36855892D01*
X56903056Y-36942718D01*
X56904392Y-36945147D01*
X56944468Y-37026667D01*
X56945670Y-37029459D01*
X56973976Y-37105491D01*
X56976076Y-37111130D01*
X56977064Y-37114310D01*
X56982587Y-37136282D01*
X56983500Y-37143656D01*
X56983500Y-37400652D01*
X56983322Y-37403926D01*
X56982692Y-37409709D01*
X56982692Y-37409714D01*
X56983153Y-37412729D01*
X56983500Y-37417296D01*
X56983500Y-38069265D01*
X56986352Y-38099694D01*
X56986369Y-38099743D01*
X57031203Y-38227873D01*
X57031208Y-38227884D01*
X57108006Y-38331942D01*
X57111850Y-38337150D01*
X57221118Y-38417793D01*
X57349301Y-38462646D01*
X57379734Y-38465500D01*
X57379735Y-38465500D01*
X60488265Y-38465500D01*
X60488266Y-38465500D01*
X60518699Y-38462646D01*
X60646882Y-38417793D01*
X60756150Y-38337150D01*
X60836793Y-38227882D01*
X60881646Y-38099699D01*
X60884500Y-38069266D01*
X60884500Y-36860734D01*
X60881646Y-36830301D01*
X60836793Y-36702118D01*
X60817575Y-36676078D01*
X78619500Y-36676078D01*
X78619500Y-36823920D01*
X78648340Y-36968908D01*
X78648347Y-36968928D01*
X78704910Y-37105486D01*
X78704912Y-37105491D01*
X78749958Y-37172906D01*
X78752490Y-37176695D01*
X78787049Y-37228416D01*
X78891584Y-37332951D01*
X78891617Y-37332973D01*
X78944242Y-37368136D01*
X79014482Y-37415069D01*
X79014507Y-37415086D01*
X79014512Y-37415088D01*
X79069135Y-37437713D01*
X79135078Y-37465027D01*
X79151087Y-37471658D01*
X79296082Y-37500500D01*
X79296084Y-37500500D01*
X79443916Y-37500500D01*
X79443918Y-37500500D01*
X79588913Y-37471658D01*
X79670862Y-37437713D01*
X79724514Y-37415490D01*
X79725358Y-37415175D01*
X79725493Y-37415084D01*
X79725495Y-37415084D01*
X79809105Y-37359218D01*
X84798000Y-37359218D01*
X84798000Y-37359220D01*
X84798000Y-38645000D01*
X85475000Y-38645000D01*
X85975000Y-38645000D01*
X86651999Y-38645000D01*
X86651999Y-37359219D01*
X86648458Y-37334916D01*
X86641322Y-37285941D01*
X86641321Y-37285936D01*
X86631982Y-37266833D01*
X86586066Y-37172907D01*
X86497091Y-37083932D01*
X86384070Y-37028680D01*
X86384063Y-37028678D01*
X86384054Y-37028675D01*
X86310780Y-37018000D01*
X86310779Y-37018000D01*
X85975000Y-37018000D01*
X85975000Y-38645000D01*
X85475000Y-38645000D01*
X85475000Y-37018000D01*
X85139220Y-37018000D01*
X85065941Y-37028677D01*
X85065936Y-37028678D01*
X85065930Y-37028680D01*
X84952907Y-37083932D01*
X84863932Y-37172907D01*
X84808680Y-37285928D01*
X84808678Y-37285936D01*
X84808675Y-37285944D01*
X84798000Y-37359218D01*
X79809105Y-37359218D01*
X79848416Y-37332951D01*
X79952951Y-37228416D01*
X80035084Y-37105495D01*
X80036971Y-37100941D01*
X80057713Y-37050862D01*
X80091658Y-36968913D01*
X80120500Y-36823918D01*
X80120500Y-36676082D01*
X80091658Y-36531087D01*
X80062596Y-36460925D01*
X80035086Y-36394508D01*
X80035084Y-36394505D01*
X80005444Y-36350145D01*
X79952951Y-36271584D01*
X79848416Y-36167049D01*
X79796186Y-36132150D01*
X79774240Y-36117486D01*
X79725517Y-36084930D01*
X79725491Y-36084912D01*
X79725486Y-36084910D01*
X79588928Y-36028347D01*
X79588908Y-36028340D01*
X79443920Y-35999500D01*
X79443919Y-35999500D01*
X79443918Y-35999500D01*
X79296082Y-35999500D01*
X79296080Y-35999500D01*
X79296078Y-35999500D01*
X79151090Y-36028340D01*
X79151070Y-36028347D01*
X79014512Y-36084910D01*
X79014507Y-36084912D01*
X79014482Y-36084930D01*
X78891582Y-36167049D01*
X78787049Y-36271582D01*
X78704912Y-36394507D01*
X78704910Y-36394512D01*
X78648347Y-36531070D01*
X78648340Y-36531090D01*
X78619500Y-36676078D01*
X60817575Y-36676078D01*
X60756150Y-36592850D01*
X60756149Y-36592849D01*
X60756144Y-36592845D01*
X60646888Y-36512210D01*
X60646885Y-36512209D01*
X60646884Y-36512208D01*
X60646879Y-36512206D01*
X60646869Y-36512202D01*
X60646858Y-36512198D01*
X60518751Y-36467371D01*
X60518694Y-36467352D01*
X60494561Y-36465090D01*
X60491777Y-36464829D01*
X60491776Y-36464828D01*
X60488267Y-36464500D01*
X60488266Y-36464500D01*
X60488265Y-36464500D01*
X59154594Y-36464500D01*
X59147474Y-36463650D01*
X59128615Y-36459082D01*
X59128605Y-36459081D01*
X58685260Y-36440799D01*
X58682938Y-36440614D01*
X58196844Y-36382872D01*
X58195134Y-36382619D01*
X57953845Y-36339866D01*
X57952669Y-36339633D01*
X57718084Y-36288400D01*
X57716853Y-36288105D01*
X57498272Y-36230691D01*
X57496937Y-36230307D01*
X57293824Y-36166857D01*
X57292362Y-36166359D01*
X57120576Y-36102903D01*
X57118926Y-36102237D01*
X56965257Y-36034956D01*
X56963736Y-36034240D01*
X56942581Y-36023540D01*
X56894604Y-35999274D01*
X56894601Y-35999273D01*
X56894599Y-35999272D01*
X56874091Y-35993429D01*
X56868114Y-35991012D01*
X55560368Y-35291614D01*
X55557403Y-35290028D01*
X55552350Y-35285663D01*
X55519695Y-35269862D01*
X55519153Y-35269572D01*
X55519152Y-35269571D01*
X55502537Y-35260685D01*
X55502535Y-35260683D01*
X55487719Y-35252761D01*
X55487716Y-35252759D01*
X55486102Y-35252382D01*
X55482907Y-35251446D01*
X55479772Y-35250337D01*
X55476685Y-35249049D01*
X55446615Y-35234500D01*
X55446614Y-35234500D01*
X54636222Y-34842374D01*
X52754360Y-33931794D01*
X52746586Y-33926385D01*
X52738875Y-33918982D01*
X52738872Y-33918979D01*
X52698761Y-33893339D01*
X52618784Y-33842213D01*
X52615450Y-33839744D01*
X52551856Y-33785520D01*
X52549812Y-33783605D01*
X52483959Y-33715898D01*
X52481999Y-33713674D01*
X52430273Y-33648849D01*
X52428328Y-33646113D01*
X52386576Y-33579880D01*
X52384769Y-33576572D01*
X52361849Y-33527514D01*
X52360319Y-33523519D01*
X52347883Y-33482607D01*
X52346724Y-33476807D01*
X52340934Y-33418548D01*
X52340933Y-33418539D01*
X52340932Y-33418531D01*
X52337504Y-33396403D01*
X52337502Y-33396389D01*
X52336975Y-33393895D01*
X52336328Y-33391192D01*
X52335500Y-33384159D01*
X52335500Y-33338235D01*
X52332778Y-33309209D01*
X52332737Y-33308334D01*
X52332647Y-33307806D01*
X52332646Y-33307803D01*
X52332646Y-33307801D01*
X52287793Y-33179618D01*
X52233354Y-33105856D01*
X52207153Y-33070354D01*
X52207149Y-33070349D01*
X52207144Y-33070345D01*
X52097888Y-32989710D01*
X52097885Y-32989709D01*
X52097884Y-32989708D01*
X52097879Y-32989706D01*
X52097869Y-32989702D01*
X52097858Y-32989698D01*
X51969751Y-32944871D01*
X51969694Y-32944852D01*
X51945561Y-32942590D01*
X51942777Y-32942329D01*
X51942776Y-32942328D01*
X51939267Y-32942000D01*
X51939266Y-32942000D01*
X50930734Y-32942000D01*
X50930730Y-32942000D01*
X50927585Y-32942294D01*
X50927585Y-32942295D01*
X50923935Y-32942637D01*
X50903433Y-32944559D01*
X50903428Y-32944559D01*
X50900303Y-32944853D01*
X50900302Y-32944853D01*
X50900301Y-32944854D01*
X50897671Y-32945774D01*
X50897653Y-32945778D01*
X50831307Y-32968994D01*
X50831306Y-32968995D01*
X50814078Y-32975023D01*
X50812423Y-32975549D01*
X50788051Y-32982534D01*
X50780249Y-32986551D01*
X50780250Y-32986552D01*
X50778382Y-32987514D01*
X50772120Y-32989706D01*
X50772115Y-32989708D01*
X50767478Y-32993128D01*
X50765315Y-32994243D01*
X50765313Y-32994243D01*
X50626452Y-33065756D01*
X50613891Y-33072225D01*
X50600308Y-33079886D01*
X50599493Y-33080387D01*
X50598815Y-33080804D01*
X50586079Y-33089308D01*
X50418614Y-33210394D01*
X50414088Y-33213761D01*
X50413616Y-33214123D01*
X50408672Y-33218026D01*
X50370839Y-33248845D01*
X50369864Y-33249607D01*
X50253631Y-33336631D01*
X50248421Y-33339768D01*
X50231043Y-33347977D01*
X50223459Y-33350401D01*
X50193207Y-33355822D01*
X50193206Y-33355822D01*
X50184927Y-33358709D01*
X50175714Y-33360386D01*
X50083911Y-33362646D01*
X50075675Y-33361712D01*
X50061133Y-33357994D01*
X50061120Y-33357992D01*
X50008224Y-33355133D01*
X50002714Y-33354322D01*
X49987607Y-33350651D01*
X49968914Y-33336990D01*
X49964500Y-33321256D01*
X49964500Y-33082738D01*
X49959421Y-33047882D01*
X49959418Y-33047864D01*
X49954573Y-33014607D01*
X49903198Y-32909517D01*
X49820483Y-32826802D01*
X49715395Y-32775427D01*
X49647260Y-32765500D01*
X49280740Y-32765500D01*
X49280739Y-32765500D01*
X49214775Y-32775111D01*
X49213601Y-32775196D01*
X49212606Y-32775426D01*
X49107515Y-32826802D01*
X49024802Y-32909515D01*
X48973426Y-33014606D01*
X48973195Y-33015601D01*
X48973111Y-33016774D01*
X48963500Y-33082737D01*
X48064500Y-33082737D01*
X48054573Y-33014607D01*
X48003198Y-32909517D01*
X47920483Y-32826802D01*
X47815395Y-32775427D01*
X47747260Y-32765500D01*
X47529215Y-32765500D01*
X47508609Y-32757396D01*
X47498417Y-32747913D01*
X47493694Y-32742304D01*
X47434662Y-32651888D01*
X47432055Y-32650103D01*
X47429982Y-32646371D01*
X47425896Y-32637614D01*
X47341795Y-32457350D01*
X48087001Y-32457350D01*
X48089688Y-32480516D01*
X48089689Y-32480526D01*
X48131514Y-32575249D01*
X48131515Y-32575251D01*
X48131517Y-32575254D01*
X48131518Y-32575255D01*
X48131519Y-32575256D01*
X48204743Y-32648480D01*
X48204746Y-32648482D01*
X48264000Y-32674645D01*
X48764000Y-32674645D01*
X48823249Y-32648484D01*
X48823249Y-32648483D01*
X48823253Y-32648482D01*
X48823256Y-32648480D01*
X48896480Y-32575256D01*
X48896484Y-32575250D01*
X48938046Y-32481121D01*
X48938281Y-32480621D01*
X48938312Y-32480519D01*
X48938313Y-32480518D01*
X48940669Y-32460215D01*
X48941000Y-32457361D01*
X48941000Y-32078500D01*
X48764000Y-32078500D01*
X48764000Y-32674645D01*
X48264000Y-32674645D01*
X48264000Y-32078500D01*
X48087001Y-32078500D01*
X48087001Y-32457350D01*
X47341795Y-32457350D01*
X47165167Y-32078760D01*
X47065671Y-31865499D01*
X46959416Y-31637750D01*
X46955523Y-31623402D01*
X46941363Y-31599054D01*
X46935425Y-31586329D01*
X46935163Y-31580336D01*
X46927184Y-31570832D01*
X46927182Y-31570830D01*
X46923632Y-31566601D01*
X46922405Y-31565139D01*
X46920825Y-31563082D01*
X46919349Y-31560981D01*
X46917951Y-31558799D01*
X46917259Y-31557609D01*
X46917259Y-31557608D01*
X46914847Y-31553462D01*
X46912435Y-31549315D01*
X46893427Y-31530427D01*
X46891583Y-31528420D01*
X46874364Y-31507906D01*
X46874361Y-31507904D01*
X46874360Y-31507903D01*
X46874359Y-31507902D01*
X46864306Y-31500865D01*
X46860338Y-31497547D01*
X46851640Y-31488904D01*
X46851637Y-31488902D01*
X46851636Y-31488901D01*
X46828990Y-31475922D01*
X46827825Y-31475219D01*
X46826684Y-31474495D01*
X46825547Y-31473737D01*
X46820913Y-31470494D01*
X46820912Y-31470493D01*
X46804143Y-31458757D01*
X46804141Y-31458756D01*
X46793831Y-31455004D01*
X46791435Y-31454014D01*
X46789090Y-31452925D01*
X46786789Y-31451734D01*
X46617345Y-31354620D01*
X46391208Y-31225012D01*
X46346939Y-31199640D01*
X48087000Y-31199640D01*
X48087000Y-31578500D01*
X48264000Y-31578500D01*
X48264000Y-30982353D01*
X48263999Y-30982352D01*
X48764000Y-30982352D01*
X48764000Y-31578500D01*
X48940999Y-31578500D01*
X48940999Y-31199646D01*
X48939754Y-31188915D01*
X48938311Y-31176480D01*
X48938310Y-31176474D01*
X48896484Y-31081749D01*
X48896480Y-31081743D01*
X48823256Y-31008519D01*
X48823255Y-31008518D01*
X48823252Y-31008516D01*
X48823250Y-31008515D01*
X48823247Y-31008513D01*
X48823244Y-31008512D01*
X48764000Y-30982351D01*
X48764000Y-30982352D01*
X48263999Y-30982352D01*
X48263998Y-30982351D01*
X48204754Y-31008512D01*
X48204743Y-31008518D01*
X48131517Y-31081744D01*
X48131515Y-31081747D01*
X48131514Y-31081749D01*
X48091569Y-31172212D01*
X48091567Y-31172219D01*
X48089687Y-31176479D01*
X48089686Y-31176481D01*
X48087000Y-31199640D01*
X46346939Y-31199640D01*
X45038837Y-30449916D01*
X44551805Y-30170779D01*
X53173001Y-30170779D01*
X53183677Y-30244058D01*
X53183678Y-30244062D01*
X53183680Y-30244068D01*
X53238932Y-30357091D01*
X53327907Y-30446066D01*
X53440928Y-30501318D01*
X53440936Y-30501321D01*
X53440944Y-30501323D01*
X53514219Y-30511999D01*
X53514220Y-30511999D01*
X53725000Y-30511999D01*
X54225000Y-30511999D01*
X54435779Y-30511999D01*
X54509058Y-30501322D01*
X54509063Y-30501321D01*
X54622093Y-30446065D01*
X54711065Y-30357093D01*
X54766321Y-30244063D01*
X54766322Y-30244059D01*
X54777000Y-30170779D01*
X58253001Y-30170779D01*
X58263677Y-30244058D01*
X58263678Y-30244062D01*
X58263680Y-30244068D01*
X58318932Y-30357091D01*
X58407907Y-30446066D01*
X58520928Y-30501318D01*
X58520936Y-30501321D01*
X58520944Y-30501323D01*
X58594219Y-30511999D01*
X58594220Y-30511999D01*
X58805000Y-30511999D01*
X59305000Y-30511999D01*
X59515779Y-30511999D01*
X59589058Y-30501322D01*
X59589063Y-30501321D01*
X59702093Y-30446065D01*
X59791065Y-30357093D01*
X59846321Y-30244063D01*
X59846322Y-30244059D01*
X59857000Y-30170779D01*
X63333001Y-30170779D01*
X63343677Y-30244058D01*
X63343678Y-30244062D01*
X63343680Y-30244068D01*
X63398932Y-30357091D01*
X63487907Y-30446066D01*
X63600928Y-30501318D01*
X63600936Y-30501321D01*
X63600944Y-30501323D01*
X63674219Y-30511999D01*
X63674220Y-30511999D01*
X63885000Y-30511999D01*
X64385000Y-30511999D01*
X64595779Y-30511999D01*
X64669058Y-30501322D01*
X64669063Y-30501321D01*
X64782093Y-30446065D01*
X64871065Y-30357093D01*
X64926321Y-30244063D01*
X64926322Y-30244059D01*
X64937000Y-30170779D01*
X64937000Y-29935000D01*
X64385000Y-29935000D01*
X64385000Y-30511999D01*
X63885000Y-30511999D01*
X63885000Y-29935000D01*
X63333001Y-29935000D01*
X63333001Y-30170779D01*
X59857000Y-30170779D01*
X59857000Y-29935000D01*
X59305000Y-29935000D01*
X59305000Y-30511999D01*
X58805000Y-30511999D01*
X58805000Y-29935000D01*
X58253001Y-29935000D01*
X58253001Y-30170779D01*
X54777000Y-30170779D01*
X54777000Y-29935000D01*
X54225000Y-29935000D01*
X54225000Y-30511999D01*
X53725000Y-30511999D01*
X53725000Y-29935000D01*
X53173001Y-29935000D01*
X53173001Y-30170779D01*
X44551805Y-30170779D01*
X44164353Y-29948715D01*
X42900533Y-29224371D01*
X42900533Y-29224370D01*
X42900531Y-29224370D01*
X42856647Y-29199218D01*
X53173000Y-29199218D01*
X53173000Y-29199220D01*
X53173000Y-29435000D01*
X53725000Y-29435000D01*
X54225000Y-29435000D01*
X54776999Y-29435000D01*
X54776999Y-29199219D01*
X54776999Y-29199218D01*
X58253000Y-29199218D01*
X58253000Y-29199220D01*
X58253000Y-29435000D01*
X58805000Y-29435000D01*
X59305000Y-29435000D01*
X59856999Y-29435000D01*
X59856999Y-29199219D01*
X59856999Y-29199218D01*
X63333000Y-29199218D01*
X63333000Y-29199220D01*
X63333000Y-29435000D01*
X63885000Y-29435000D01*
X64385000Y-29435000D01*
X64936999Y-29435000D01*
X64936999Y-29199219D01*
X64935901Y-29191684D01*
X64926322Y-29125941D01*
X64926321Y-29125936D01*
X64894204Y-29060238D01*
X64871066Y-29012907D01*
X64782091Y-28923932D01*
X64669070Y-28868680D01*
X64669063Y-28868678D01*
X64669054Y-28868675D01*
X64595780Y-28858000D01*
X64595779Y-28858000D01*
X64385000Y-28858000D01*
X64385000Y-29435000D01*
X63885000Y-29435000D01*
X63885000Y-28858000D01*
X63674220Y-28858000D01*
X63600941Y-28868677D01*
X63600936Y-28868678D01*
X63600930Y-28868680D01*
X63487907Y-28923932D01*
X63398932Y-29012907D01*
X63343680Y-29125928D01*
X63343678Y-29125936D01*
X63343675Y-29125944D01*
X63333000Y-29199218D01*
X59856999Y-29199218D01*
X59855901Y-29191684D01*
X59846322Y-29125941D01*
X59846321Y-29125936D01*
X59814204Y-29060238D01*
X59791066Y-29012907D01*
X59702091Y-28923932D01*
X59589070Y-28868680D01*
X59589063Y-28868678D01*
X59589054Y-28868675D01*
X59515780Y-28858000D01*
X59515779Y-28858000D01*
X59305000Y-28858000D01*
X59305000Y-29435000D01*
X58805000Y-29435000D01*
X58805000Y-28858000D01*
X58594220Y-28858000D01*
X58520941Y-28868677D01*
X58520936Y-28868678D01*
X58520930Y-28868680D01*
X58407907Y-28923932D01*
X58318932Y-29012907D01*
X58263680Y-29125928D01*
X58263678Y-29125936D01*
X58263675Y-29125944D01*
X58253000Y-29199218D01*
X54776999Y-29199218D01*
X54775901Y-29191684D01*
X54766322Y-29125941D01*
X54766321Y-29125936D01*
X54734204Y-29060238D01*
X54711066Y-29012907D01*
X54622091Y-28923932D01*
X54509070Y-28868680D01*
X54509063Y-28868678D01*
X54509054Y-28868675D01*
X54435780Y-28858000D01*
X54435779Y-28858000D01*
X54225000Y-28858000D01*
X54225000Y-29435000D01*
X53725000Y-29435000D01*
X53725000Y-28858000D01*
X53514220Y-28858000D01*
X53440941Y-28868677D01*
X53440936Y-28868678D01*
X53440930Y-28868680D01*
X53327907Y-28923932D01*
X53238932Y-29012907D01*
X53183680Y-29125928D01*
X53183678Y-29125936D01*
X53183675Y-29125944D01*
X53173000Y-29199218D01*
X42856647Y-29199218D01*
X42754197Y-29140500D01*
X42509032Y-28999986D01*
X42500132Y-28992230D01*
X42498142Y-28989653D01*
X42492081Y-28967308D01*
X42503594Y-28947223D01*
X42504174Y-28946776D01*
X42522622Y-28940500D01*
X42643539Y-28940500D01*
X42643541Y-28940500D01*
X42836835Y-28902051D01*
X42948761Y-28855690D01*
X43018910Y-28826634D01*
X43018911Y-28826633D01*
X43018914Y-28826632D01*
X43182782Y-28717139D01*
X43322139Y-28577782D01*
X43431632Y-28413914D01*
X43434772Y-28406335D01*
X43461799Y-28341082D01*
X43507051Y-28231835D01*
X43545500Y-28038541D01*
X43545500Y-27841459D01*
X43545499Y-27841455D01*
X44084500Y-27841455D01*
X44084500Y-28038543D01*
X44122947Y-28231830D01*
X44122954Y-28231850D01*
X44198362Y-28413905D01*
X44199170Y-28415118D01*
X44199191Y-28415146D01*
X44307861Y-28577782D01*
X44447218Y-28717139D01*
X44566782Y-28797029D01*
X44611063Y-28826617D01*
X44611088Y-28826634D01*
X44611093Y-28826636D01*
X44712594Y-28868678D01*
X44771823Y-28893211D01*
X44793165Y-28902051D01*
X44986459Y-28940500D01*
X44986461Y-28940500D01*
X45183539Y-28940500D01*
X45183541Y-28940500D01*
X45376835Y-28902051D01*
X45488761Y-28855690D01*
X45558910Y-28826634D01*
X45558911Y-28826633D01*
X45558914Y-28826632D01*
X45722782Y-28717139D01*
X45862139Y-28577782D01*
X45971632Y-28413914D01*
X45974772Y-28406335D01*
X46001799Y-28341082D01*
X46047051Y-28231835D01*
X46085500Y-28038541D01*
X46085500Y-27841459D01*
X46085499Y-27841455D01*
X46624500Y-27841455D01*
X46624500Y-28038543D01*
X46662947Y-28231830D01*
X46662954Y-28231850D01*
X46738362Y-28413905D01*
X46739170Y-28415118D01*
X46739191Y-28415146D01*
X46847861Y-28577782D01*
X46987218Y-28717139D01*
X47106782Y-28797029D01*
X47151063Y-28826617D01*
X47151088Y-28826634D01*
X47151093Y-28826636D01*
X47252594Y-28868678D01*
X47311823Y-28893211D01*
X47333165Y-28902051D01*
X47526459Y-28940500D01*
X47526461Y-28940500D01*
X47723539Y-28940500D01*
X47723541Y-28940500D01*
X47916835Y-28902051D01*
X48028761Y-28855690D01*
X48098910Y-28826634D01*
X48098911Y-28826633D01*
X48098914Y-28826632D01*
X48262782Y-28717139D01*
X48402139Y-28577782D01*
X48511632Y-28413914D01*
X48514772Y-28406335D01*
X48541799Y-28341082D01*
X48587051Y-28231835D01*
X48625500Y-28038541D01*
X48625500Y-27841459D01*
X48625499Y-27841455D01*
X49164500Y-27841455D01*
X49164500Y-28038543D01*
X49202947Y-28231830D01*
X49202954Y-28231850D01*
X49278362Y-28413905D01*
X49279170Y-28415118D01*
X49279191Y-28415146D01*
X49387861Y-28577782D01*
X49527218Y-28717139D01*
X49646782Y-28797029D01*
X49691063Y-28826617D01*
X49691088Y-28826634D01*
X49691093Y-28826636D01*
X49792594Y-28868678D01*
X49851823Y-28893211D01*
X49873165Y-28902051D01*
X50066459Y-28940500D01*
X50066461Y-28940500D01*
X50263539Y-28940500D01*
X50263541Y-28940500D01*
X50456835Y-28902051D01*
X50568761Y-28855690D01*
X50638910Y-28826634D01*
X50638911Y-28826633D01*
X50638914Y-28826632D01*
X50802782Y-28717139D01*
X50942139Y-28577782D01*
X51051632Y-28413914D01*
X51054772Y-28406335D01*
X51081799Y-28341082D01*
X51127051Y-28231835D01*
X51165500Y-28038541D01*
X51165500Y-27841459D01*
X51165499Y-27841455D01*
X51704500Y-27841455D01*
X51704500Y-28038543D01*
X51742947Y-28231830D01*
X51742954Y-28231850D01*
X51818362Y-28413905D01*
X51819170Y-28415118D01*
X51819191Y-28415146D01*
X51927861Y-28577782D01*
X52067218Y-28717139D01*
X52186782Y-28797029D01*
X52231063Y-28826617D01*
X52231088Y-28826634D01*
X52231093Y-28826636D01*
X52332594Y-28868678D01*
X52391823Y-28893211D01*
X52413165Y-28902051D01*
X52606459Y-28940500D01*
X52606461Y-28940500D01*
X52803539Y-28940500D01*
X52803541Y-28940500D01*
X52996835Y-28902051D01*
X53108761Y-28855690D01*
X53178910Y-28826634D01*
X53178911Y-28826633D01*
X53178914Y-28826632D01*
X53342782Y-28717139D01*
X53482139Y-28577782D01*
X53591632Y-28413914D01*
X53594772Y-28406335D01*
X53621799Y-28341082D01*
X53667051Y-28231835D01*
X53705500Y-28038541D01*
X53705500Y-27841459D01*
X53705499Y-27841455D01*
X54244500Y-27841455D01*
X54244500Y-28038543D01*
X54282947Y-28231830D01*
X54282954Y-28231850D01*
X54358362Y-28413905D01*
X54359170Y-28415118D01*
X54359191Y-28415146D01*
X54467861Y-28577782D01*
X54607218Y-28717139D01*
X54726782Y-28797029D01*
X54771063Y-28826617D01*
X54771088Y-28826634D01*
X54771093Y-28826636D01*
X54872594Y-28868678D01*
X54931823Y-28893211D01*
X54953165Y-28902051D01*
X55146459Y-28940500D01*
X55146461Y-28940500D01*
X55343539Y-28940500D01*
X55343541Y-28940500D01*
X55536835Y-28902051D01*
X55648761Y-28855690D01*
X55718910Y-28826634D01*
X55718911Y-28826633D01*
X55718914Y-28826632D01*
X55882782Y-28717139D01*
X56022139Y-28577782D01*
X56131632Y-28413914D01*
X56134772Y-28406335D01*
X56161799Y-28341082D01*
X56207051Y-28231835D01*
X56245500Y-28038541D01*
X56245500Y-27841459D01*
X56245499Y-27841455D01*
X56784500Y-27841455D01*
X56784500Y-28038543D01*
X56822947Y-28231830D01*
X56822954Y-28231850D01*
X56898362Y-28413905D01*
X56899170Y-28415118D01*
X56899191Y-28415146D01*
X57007861Y-28577782D01*
X57147218Y-28717139D01*
X57266782Y-28797029D01*
X57311063Y-28826617D01*
X57311088Y-28826634D01*
X57311093Y-28826636D01*
X57412594Y-28868678D01*
X57471823Y-28893211D01*
X57493165Y-28902051D01*
X57686459Y-28940500D01*
X57686461Y-28940500D01*
X57883539Y-28940500D01*
X57883541Y-28940500D01*
X58076835Y-28902051D01*
X58188761Y-28855690D01*
X58258910Y-28826634D01*
X58258911Y-28826633D01*
X58258914Y-28826632D01*
X58422782Y-28717139D01*
X58562139Y-28577782D01*
X58671632Y-28413914D01*
X58674772Y-28406335D01*
X58701799Y-28341082D01*
X58747051Y-28231835D01*
X58785500Y-28038541D01*
X58785500Y-27841459D01*
X58785499Y-27841455D01*
X59324500Y-27841455D01*
X59324500Y-28038543D01*
X59362947Y-28231830D01*
X59362954Y-28231850D01*
X59438362Y-28413905D01*
X59439170Y-28415118D01*
X59439191Y-28415146D01*
X59547861Y-28577782D01*
X59687218Y-28717139D01*
X59806782Y-28797029D01*
X59851063Y-28826617D01*
X59851088Y-28826634D01*
X59851093Y-28826636D01*
X59952594Y-28868678D01*
X60011823Y-28893211D01*
X60033165Y-28902051D01*
X60226459Y-28940500D01*
X60226461Y-28940500D01*
X60423539Y-28940500D01*
X60423541Y-28940500D01*
X60616835Y-28902051D01*
X60728761Y-28855690D01*
X60798910Y-28826634D01*
X60798911Y-28826633D01*
X60798914Y-28826632D01*
X60962782Y-28717139D01*
X61102139Y-28577782D01*
X61211632Y-28413914D01*
X61214772Y-28406335D01*
X61241799Y-28341082D01*
X61287051Y-28231835D01*
X61325500Y-28038541D01*
X61325500Y-27841459D01*
X61325499Y-27841455D01*
X61864500Y-27841455D01*
X61864500Y-28038543D01*
X61902947Y-28231830D01*
X61902954Y-28231850D01*
X61978362Y-28413905D01*
X61979170Y-28415118D01*
X61979191Y-28415146D01*
X62087861Y-28577782D01*
X62227218Y-28717139D01*
X62346782Y-28797029D01*
X62391063Y-28826617D01*
X62391088Y-28826634D01*
X62391093Y-28826636D01*
X62492594Y-28868678D01*
X62551823Y-28893211D01*
X62573165Y-28902051D01*
X62766459Y-28940500D01*
X62766461Y-28940500D01*
X62963539Y-28940500D01*
X62963541Y-28940500D01*
X63156835Y-28902051D01*
X63268761Y-28855690D01*
X63338910Y-28826634D01*
X63338911Y-28826633D01*
X63338914Y-28826632D01*
X63502782Y-28717139D01*
X63642139Y-28577782D01*
X63751632Y-28413914D01*
X63754772Y-28406335D01*
X63781799Y-28341082D01*
X63827051Y-28231835D01*
X63865500Y-28038541D01*
X63865500Y-27841459D01*
X63865499Y-27841455D01*
X64404500Y-27841455D01*
X64404500Y-28038543D01*
X64442947Y-28231830D01*
X64442954Y-28231850D01*
X64518362Y-28413905D01*
X64519170Y-28415118D01*
X64519191Y-28415146D01*
X64627861Y-28577782D01*
X64767218Y-28717139D01*
X64886782Y-28797029D01*
X64931063Y-28826617D01*
X64931088Y-28826634D01*
X64931093Y-28826636D01*
X65032594Y-28868678D01*
X65091823Y-28893211D01*
X65113165Y-28902051D01*
X65306459Y-28940500D01*
X65306461Y-28940500D01*
X65503539Y-28940500D01*
X65503541Y-28940500D01*
X65696835Y-28902051D01*
X65808761Y-28855690D01*
X65878910Y-28826634D01*
X65878911Y-28826633D01*
X65878914Y-28826632D01*
X66042782Y-28717139D01*
X66182139Y-28577782D01*
X66291632Y-28413914D01*
X66294772Y-28406335D01*
X66321799Y-28341082D01*
X66367051Y-28231835D01*
X66405500Y-28038541D01*
X66405500Y-27841459D01*
X66405499Y-27841455D01*
X66944500Y-27841455D01*
X66944500Y-28038543D01*
X66982947Y-28231830D01*
X66982954Y-28231850D01*
X67058362Y-28413905D01*
X67059170Y-28415118D01*
X67059191Y-28415146D01*
X67167861Y-28577782D01*
X67307218Y-28717139D01*
X67426782Y-28797029D01*
X67471063Y-28826617D01*
X67471088Y-28826634D01*
X67471093Y-28826636D01*
X67572594Y-28868678D01*
X67631823Y-28893211D01*
X67653165Y-28902051D01*
X67846459Y-28940500D01*
X67846461Y-28940500D01*
X68043539Y-28940500D01*
X68043541Y-28940500D01*
X68236835Y-28902051D01*
X68348761Y-28855690D01*
X68418910Y-28826634D01*
X68418911Y-28826633D01*
X68418914Y-28826632D01*
X68582782Y-28717139D01*
X68722139Y-28577782D01*
X68831632Y-28413914D01*
X68834772Y-28406335D01*
X68861799Y-28341082D01*
X68907051Y-28231835D01*
X68945500Y-28038541D01*
X68945500Y-27841459D01*
X68945499Y-27841455D01*
X69484500Y-27841455D01*
X69484500Y-28038543D01*
X69522947Y-28231830D01*
X69522954Y-28231850D01*
X69598362Y-28413905D01*
X69599170Y-28415118D01*
X69599191Y-28415146D01*
X69707861Y-28577782D01*
X69847218Y-28717139D01*
X69966782Y-28797029D01*
X70011063Y-28826617D01*
X70011088Y-28826634D01*
X70011093Y-28826636D01*
X70112594Y-28868678D01*
X70171823Y-28893211D01*
X70193165Y-28902051D01*
X70386459Y-28940500D01*
X70386461Y-28940500D01*
X70583539Y-28940500D01*
X70583541Y-28940500D01*
X70776835Y-28902051D01*
X70888761Y-28855690D01*
X70958910Y-28826634D01*
X70958911Y-28826633D01*
X70958914Y-28826632D01*
X71122782Y-28717139D01*
X71262139Y-28577782D01*
X71371632Y-28413914D01*
X71374772Y-28406335D01*
X71401799Y-28341082D01*
X71447051Y-28231835D01*
X71485500Y-28038541D01*
X71485500Y-27841459D01*
X71485499Y-27841455D01*
X72024500Y-27841455D01*
X72024500Y-28038543D01*
X72062947Y-28231830D01*
X72062954Y-28231850D01*
X72138362Y-28413905D01*
X72139170Y-28415118D01*
X72139191Y-28415146D01*
X72247861Y-28577782D01*
X72387218Y-28717139D01*
X72506782Y-28797029D01*
X72551063Y-28826617D01*
X72551088Y-28826634D01*
X72551093Y-28826636D01*
X72652594Y-28868678D01*
X72711823Y-28893211D01*
X72733165Y-28902051D01*
X72926459Y-28940500D01*
X72926461Y-28940500D01*
X73123539Y-28940500D01*
X73123541Y-28940500D01*
X73316835Y-28902051D01*
X73428761Y-28855690D01*
X73498910Y-28826634D01*
X73498911Y-28826633D01*
X73498914Y-28826632D01*
X73662782Y-28717139D01*
X73802139Y-28577782D01*
X73911632Y-28413914D01*
X73914772Y-28406335D01*
X73941799Y-28341082D01*
X73987051Y-28231835D01*
X74025500Y-28038541D01*
X74025500Y-27841459D01*
X74025499Y-27841455D01*
X74564500Y-27841455D01*
X74564500Y-28038543D01*
X74602947Y-28231830D01*
X74602954Y-28231850D01*
X74678362Y-28413905D01*
X74679170Y-28415118D01*
X74679191Y-28415146D01*
X74787861Y-28577782D01*
X74927218Y-28717139D01*
X75046782Y-28797029D01*
X75091063Y-28826617D01*
X75091088Y-28826634D01*
X75091093Y-28826636D01*
X75192594Y-28868678D01*
X75251823Y-28893211D01*
X75273165Y-28902051D01*
X75466459Y-28940500D01*
X75466461Y-28940500D01*
X75663539Y-28940500D01*
X75663541Y-28940500D01*
X75856835Y-28902051D01*
X75968761Y-28855690D01*
X76038910Y-28826634D01*
X76038911Y-28826633D01*
X76038914Y-28826632D01*
X76202782Y-28717139D01*
X76342139Y-28577782D01*
X76451632Y-28413914D01*
X76454772Y-28406335D01*
X76481799Y-28341082D01*
X76527051Y-28231835D01*
X76565500Y-28038541D01*
X76565500Y-27841459D01*
X76565499Y-27841455D01*
X77104500Y-27841455D01*
X77104500Y-28038543D01*
X77142947Y-28231830D01*
X77142954Y-28231850D01*
X77218362Y-28413905D01*
X77219170Y-28415118D01*
X77219191Y-28415146D01*
X77327861Y-28577782D01*
X77467218Y-28717139D01*
X77586782Y-28797029D01*
X77631063Y-28826617D01*
X77631088Y-28826634D01*
X77631093Y-28826636D01*
X77732594Y-28868678D01*
X77791823Y-28893211D01*
X77813165Y-28902051D01*
X78006459Y-28940500D01*
X78006461Y-28940500D01*
X78203539Y-28940500D01*
X78203541Y-28940500D01*
X78396835Y-28902051D01*
X78508761Y-28855690D01*
X78578910Y-28826634D01*
X78578911Y-28826633D01*
X78578914Y-28826632D01*
X78742782Y-28717139D01*
X78882139Y-28577782D01*
X78991632Y-28413914D01*
X78994772Y-28406335D01*
X79021799Y-28341082D01*
X79067051Y-28231835D01*
X79105500Y-28038541D01*
X79105500Y-27841459D01*
X79105499Y-27841455D01*
X79644500Y-27841455D01*
X79644500Y-28038543D01*
X79682947Y-28231830D01*
X79682954Y-28231850D01*
X79758362Y-28413905D01*
X79759170Y-28415118D01*
X79759191Y-28415146D01*
X79867861Y-28577782D01*
X80007218Y-28717139D01*
X80126782Y-28797029D01*
X80171063Y-28826617D01*
X80171088Y-28826634D01*
X80171093Y-28826636D01*
X80272594Y-28868678D01*
X80331823Y-28893211D01*
X80353165Y-28902051D01*
X80546459Y-28940500D01*
X80546461Y-28940500D01*
X80743539Y-28940500D01*
X80743541Y-28940500D01*
X80936835Y-28902051D01*
X81048761Y-28855690D01*
X81118910Y-28826634D01*
X81118911Y-28826633D01*
X81118914Y-28826632D01*
X81282782Y-28717139D01*
X81422139Y-28577782D01*
X81531632Y-28413914D01*
X81534772Y-28406335D01*
X81561799Y-28341082D01*
X81607051Y-28231835D01*
X81645500Y-28038541D01*
X81645500Y-27841459D01*
X81645499Y-27841455D01*
X82184500Y-27841455D01*
X82184500Y-28038543D01*
X82222947Y-28231830D01*
X82222954Y-28231850D01*
X82298362Y-28413905D01*
X82299170Y-28415118D01*
X82299191Y-28415146D01*
X82407861Y-28577782D01*
X82547218Y-28717139D01*
X82666782Y-28797029D01*
X82711063Y-28826617D01*
X82711088Y-28826634D01*
X82711093Y-28826636D01*
X82812594Y-28868678D01*
X82871823Y-28893211D01*
X82893165Y-28902051D01*
X83086459Y-28940500D01*
X83086461Y-28940500D01*
X83283539Y-28940500D01*
X83283541Y-28940500D01*
X83476835Y-28902051D01*
X83588761Y-28855690D01*
X83658910Y-28826634D01*
X83658911Y-28826633D01*
X83658914Y-28826632D01*
X83822782Y-28717139D01*
X83962139Y-28577782D01*
X84071632Y-28413914D01*
X84074772Y-28406335D01*
X84101799Y-28341082D01*
X84147051Y-28231835D01*
X84185500Y-28038541D01*
X84185500Y-27841459D01*
X84185499Y-27841455D01*
X84724500Y-27841455D01*
X84724500Y-28038543D01*
X84762947Y-28231830D01*
X84762954Y-28231850D01*
X84838362Y-28413905D01*
X84839170Y-28415118D01*
X84839191Y-28415146D01*
X84947861Y-28577782D01*
X85087218Y-28717139D01*
X85206782Y-28797029D01*
X85251063Y-28826617D01*
X85251088Y-28826634D01*
X85251093Y-28826636D01*
X85352594Y-28868678D01*
X85411823Y-28893211D01*
X85433165Y-28902051D01*
X85626459Y-28940500D01*
X85626461Y-28940500D01*
X85823539Y-28940500D01*
X85823541Y-28940500D01*
X86016835Y-28902051D01*
X86128761Y-28855690D01*
X86198910Y-28826634D01*
X86198911Y-28826633D01*
X86198914Y-28826632D01*
X86362782Y-28717139D01*
X86502139Y-28577782D01*
X86611632Y-28413914D01*
X86614772Y-28406335D01*
X86641799Y-28341082D01*
X86687051Y-28231835D01*
X86725500Y-28038541D01*
X86725500Y-27841459D01*
X86687051Y-27648165D01*
X86617049Y-27479163D01*
X86611634Y-27466089D01*
X86611632Y-27466086D01*
X86502138Y-27302217D01*
X86362782Y-27162861D01*
X86355393Y-27157924D01*
X86198936Y-27053382D01*
X86198910Y-27053364D01*
X86198905Y-27053362D01*
X86016850Y-26977954D01*
X86016830Y-26977947D01*
X85823543Y-26939500D01*
X85823542Y-26939500D01*
X85823541Y-26939500D01*
X85626459Y-26939500D01*
X85626457Y-26939500D01*
X85626455Y-26939500D01*
X85433168Y-26977947D01*
X85433148Y-26977954D01*
X85251093Y-27053362D01*
X85251088Y-27053364D01*
X85251063Y-27053382D01*
X85087216Y-27162861D01*
X84947861Y-27302216D01*
X84838364Y-27466088D01*
X84838362Y-27466093D01*
X84762954Y-27648148D01*
X84762947Y-27648168D01*
X84724500Y-27841455D01*
X84185499Y-27841455D01*
X84147051Y-27648165D01*
X84077049Y-27479163D01*
X84071634Y-27466089D01*
X84071632Y-27466086D01*
X83962138Y-27302217D01*
X83822782Y-27162861D01*
X83815393Y-27157924D01*
X83658936Y-27053382D01*
X83658910Y-27053364D01*
X83658905Y-27053362D01*
X83476850Y-26977954D01*
X83476830Y-26977947D01*
X83283543Y-26939500D01*
X83283542Y-26939500D01*
X83283541Y-26939500D01*
X83086459Y-26939500D01*
X83086457Y-26939500D01*
X83086455Y-26939500D01*
X82893168Y-26977947D01*
X82893148Y-26977954D01*
X82711093Y-27053362D01*
X82711088Y-27053364D01*
X82711063Y-27053382D01*
X82547216Y-27162861D01*
X82407861Y-27302216D01*
X82298364Y-27466088D01*
X82298362Y-27466093D01*
X82222954Y-27648148D01*
X82222947Y-27648168D01*
X82184500Y-27841455D01*
X81645499Y-27841455D01*
X81607051Y-27648165D01*
X81537049Y-27479163D01*
X81531634Y-27466089D01*
X81531632Y-27466086D01*
X81422138Y-27302217D01*
X81282782Y-27162861D01*
X81275393Y-27157924D01*
X81118936Y-27053382D01*
X81118910Y-27053364D01*
X81118905Y-27053362D01*
X80936850Y-26977954D01*
X80936830Y-26977947D01*
X80743543Y-26939500D01*
X80743542Y-26939500D01*
X80743541Y-26939500D01*
X80546459Y-26939500D01*
X80546457Y-26939500D01*
X80546455Y-26939500D01*
X80353168Y-26977947D01*
X80353148Y-26977954D01*
X80171093Y-27053362D01*
X80171088Y-27053364D01*
X80171063Y-27053382D01*
X80007216Y-27162861D01*
X79867861Y-27302216D01*
X79758364Y-27466088D01*
X79758362Y-27466093D01*
X79682954Y-27648148D01*
X79682947Y-27648168D01*
X79644500Y-27841455D01*
X79105499Y-27841455D01*
X79067051Y-27648165D01*
X78997049Y-27479163D01*
X78991634Y-27466089D01*
X78991632Y-27466086D01*
X78882138Y-27302217D01*
X78742782Y-27162861D01*
X78735393Y-27157924D01*
X78578936Y-27053382D01*
X78578910Y-27053364D01*
X78578905Y-27053362D01*
X78396850Y-26977954D01*
X78396830Y-26977947D01*
X78203543Y-26939500D01*
X78203542Y-26939500D01*
X78203541Y-26939500D01*
X78006459Y-26939500D01*
X78006457Y-26939500D01*
X78006455Y-26939500D01*
X77813168Y-26977947D01*
X77813148Y-26977954D01*
X77631093Y-27053362D01*
X77631088Y-27053364D01*
X77631063Y-27053382D01*
X77467216Y-27162861D01*
X77327861Y-27302216D01*
X77218364Y-27466088D01*
X77218362Y-27466093D01*
X77142954Y-27648148D01*
X77142947Y-27648168D01*
X77104500Y-27841455D01*
X76565499Y-27841455D01*
X76527051Y-27648165D01*
X76457049Y-27479163D01*
X76451634Y-27466089D01*
X76451632Y-27466086D01*
X76342138Y-27302217D01*
X76202782Y-27162861D01*
X76195393Y-27157924D01*
X76038936Y-27053382D01*
X76038910Y-27053364D01*
X76038905Y-27053362D01*
X75856850Y-26977954D01*
X75856830Y-26977947D01*
X75663543Y-26939500D01*
X75663542Y-26939500D01*
X75663541Y-26939500D01*
X75466459Y-26939500D01*
X75466457Y-26939500D01*
X75466455Y-26939500D01*
X75273168Y-26977947D01*
X75273148Y-26977954D01*
X75091093Y-27053362D01*
X75091088Y-27053364D01*
X75091063Y-27053382D01*
X74927216Y-27162861D01*
X74787861Y-27302216D01*
X74678364Y-27466088D01*
X74678362Y-27466093D01*
X74602954Y-27648148D01*
X74602947Y-27648168D01*
X74564500Y-27841455D01*
X74025499Y-27841455D01*
X73987051Y-27648165D01*
X73917049Y-27479163D01*
X73911634Y-27466089D01*
X73911632Y-27466086D01*
X73802138Y-27302217D01*
X73662782Y-27162861D01*
X73655393Y-27157924D01*
X73498936Y-27053382D01*
X73498910Y-27053364D01*
X73498905Y-27053362D01*
X73316850Y-26977954D01*
X73316830Y-26977947D01*
X73123543Y-26939500D01*
X73123542Y-26939500D01*
X73123541Y-26939500D01*
X72926459Y-26939500D01*
X72926457Y-26939500D01*
X72926455Y-26939500D01*
X72733168Y-26977947D01*
X72733148Y-26977954D01*
X72551093Y-27053362D01*
X72551088Y-27053364D01*
X72551063Y-27053382D01*
X72387216Y-27162861D01*
X72247861Y-27302216D01*
X72138364Y-27466088D01*
X72138362Y-27466093D01*
X72062954Y-27648148D01*
X72062947Y-27648168D01*
X72024500Y-27841455D01*
X71485499Y-27841455D01*
X71447051Y-27648165D01*
X71377049Y-27479163D01*
X71371634Y-27466089D01*
X71371632Y-27466086D01*
X71262138Y-27302217D01*
X71122782Y-27162861D01*
X71115393Y-27157924D01*
X70958936Y-27053382D01*
X70958910Y-27053364D01*
X70958905Y-27053362D01*
X70776850Y-26977954D01*
X70776830Y-26977947D01*
X70583543Y-26939500D01*
X70583542Y-26939500D01*
X70583541Y-26939500D01*
X70386459Y-26939500D01*
X70386457Y-26939500D01*
X70386455Y-26939500D01*
X70193168Y-26977947D01*
X70193148Y-26977954D01*
X70011093Y-27053362D01*
X70011088Y-27053364D01*
X70011063Y-27053382D01*
X69847216Y-27162861D01*
X69707861Y-27302216D01*
X69598364Y-27466088D01*
X69598362Y-27466093D01*
X69522954Y-27648148D01*
X69522947Y-27648168D01*
X69484500Y-27841455D01*
X68945499Y-27841455D01*
X68907051Y-27648165D01*
X68837049Y-27479163D01*
X68831634Y-27466089D01*
X68831632Y-27466086D01*
X68722138Y-27302217D01*
X68582782Y-27162861D01*
X68575393Y-27157924D01*
X68418936Y-27053382D01*
X68418910Y-27053364D01*
X68418905Y-27053362D01*
X68236850Y-26977954D01*
X68236830Y-26977947D01*
X68043543Y-26939500D01*
X68043542Y-26939500D01*
X68043541Y-26939500D01*
X67846459Y-26939500D01*
X67846457Y-26939500D01*
X67846455Y-26939500D01*
X67653168Y-26977947D01*
X67653148Y-26977954D01*
X67471093Y-27053362D01*
X67471088Y-27053364D01*
X67471063Y-27053382D01*
X67307216Y-27162861D01*
X67167861Y-27302216D01*
X67058364Y-27466088D01*
X67058362Y-27466093D01*
X66982954Y-27648148D01*
X66982947Y-27648168D01*
X66944500Y-27841455D01*
X66405499Y-27841455D01*
X66367051Y-27648165D01*
X66297049Y-27479163D01*
X66291634Y-27466089D01*
X66291632Y-27466086D01*
X66182138Y-27302217D01*
X66042782Y-27162861D01*
X66035393Y-27157924D01*
X65878936Y-27053382D01*
X65878910Y-27053364D01*
X65878905Y-27053362D01*
X65696850Y-26977954D01*
X65696830Y-26977947D01*
X65503543Y-26939500D01*
X65503542Y-26939500D01*
X65503541Y-26939500D01*
X65306459Y-26939500D01*
X65306457Y-26939500D01*
X65306455Y-26939500D01*
X65113168Y-26977947D01*
X65113148Y-26977954D01*
X64931093Y-27053362D01*
X64931088Y-27053364D01*
X64931063Y-27053382D01*
X64767216Y-27162861D01*
X64627861Y-27302216D01*
X64518364Y-27466088D01*
X64518362Y-27466093D01*
X64442954Y-27648148D01*
X64442947Y-27648168D01*
X64404500Y-27841455D01*
X63865499Y-27841455D01*
X63827051Y-27648165D01*
X63757049Y-27479163D01*
X63751634Y-27466089D01*
X63751632Y-27466086D01*
X63642138Y-27302217D01*
X63502782Y-27162861D01*
X63495393Y-27157924D01*
X63338936Y-27053382D01*
X63338910Y-27053364D01*
X63338905Y-27053362D01*
X63156850Y-26977954D01*
X63156830Y-26977947D01*
X62963543Y-26939500D01*
X62963542Y-26939500D01*
X62963541Y-26939500D01*
X62766459Y-26939500D01*
X62766457Y-26939500D01*
X62766455Y-26939500D01*
X62573168Y-26977947D01*
X62573148Y-26977954D01*
X62391093Y-27053362D01*
X62391088Y-27053364D01*
X62391063Y-27053382D01*
X62227216Y-27162861D01*
X62087861Y-27302216D01*
X61978364Y-27466088D01*
X61978362Y-27466093D01*
X61902954Y-27648148D01*
X61902947Y-27648168D01*
X61864500Y-27841455D01*
X61325499Y-27841455D01*
X61287051Y-27648165D01*
X61217049Y-27479163D01*
X61211634Y-27466089D01*
X61211632Y-27466086D01*
X61102138Y-27302217D01*
X60962782Y-27162861D01*
X60955393Y-27157924D01*
X60798936Y-27053382D01*
X60798910Y-27053364D01*
X60798905Y-27053362D01*
X60616850Y-26977954D01*
X60616830Y-26977947D01*
X60423543Y-26939500D01*
X60423542Y-26939500D01*
X60423541Y-26939500D01*
X60226459Y-26939500D01*
X60226457Y-26939500D01*
X60226455Y-26939500D01*
X60033168Y-26977947D01*
X60033148Y-26977954D01*
X59851093Y-27053362D01*
X59851088Y-27053364D01*
X59851063Y-27053382D01*
X59687216Y-27162861D01*
X59547861Y-27302216D01*
X59438364Y-27466088D01*
X59438362Y-27466093D01*
X59362954Y-27648148D01*
X59362947Y-27648168D01*
X59324500Y-27841455D01*
X58785499Y-27841455D01*
X58747051Y-27648165D01*
X58677049Y-27479163D01*
X58671634Y-27466089D01*
X58671632Y-27466086D01*
X58562138Y-27302217D01*
X58422782Y-27162861D01*
X58415393Y-27157924D01*
X58258936Y-27053382D01*
X58258910Y-27053364D01*
X58258905Y-27053362D01*
X58076850Y-26977954D01*
X58076830Y-26977947D01*
X57883543Y-26939500D01*
X57883542Y-26939500D01*
X57883541Y-26939500D01*
X57686459Y-26939500D01*
X57686457Y-26939500D01*
X57686455Y-26939500D01*
X57493168Y-26977947D01*
X57493148Y-26977954D01*
X57311093Y-27053362D01*
X57311088Y-27053364D01*
X57311063Y-27053382D01*
X57147216Y-27162861D01*
X57007861Y-27302216D01*
X56898364Y-27466088D01*
X56898362Y-27466093D01*
X56822954Y-27648148D01*
X56822947Y-27648168D01*
X56784500Y-27841455D01*
X56245499Y-27841455D01*
X56207051Y-27648165D01*
X56137049Y-27479163D01*
X56131634Y-27466089D01*
X56131632Y-27466086D01*
X56022138Y-27302217D01*
X55882782Y-27162861D01*
X55875393Y-27157924D01*
X55718936Y-27053382D01*
X55718910Y-27053364D01*
X55718905Y-27053362D01*
X55536850Y-26977954D01*
X55536830Y-26977947D01*
X55343543Y-26939500D01*
X55343542Y-26939500D01*
X55343541Y-26939500D01*
X55146459Y-26939500D01*
X55146457Y-26939500D01*
X55146455Y-26939500D01*
X54953168Y-26977947D01*
X54953148Y-26977954D01*
X54771093Y-27053362D01*
X54771088Y-27053364D01*
X54771063Y-27053382D01*
X54607216Y-27162861D01*
X54467861Y-27302216D01*
X54358364Y-27466088D01*
X54358362Y-27466093D01*
X54282954Y-27648148D01*
X54282947Y-27648168D01*
X54244500Y-27841455D01*
X53705499Y-27841455D01*
X53667051Y-27648165D01*
X53597049Y-27479163D01*
X53591634Y-27466089D01*
X53591632Y-27466086D01*
X53482138Y-27302217D01*
X53342782Y-27162861D01*
X53335393Y-27157924D01*
X53178936Y-27053382D01*
X53178910Y-27053364D01*
X53178905Y-27053362D01*
X52996850Y-26977954D01*
X52996830Y-26977947D01*
X52803543Y-26939500D01*
X52803542Y-26939500D01*
X52803541Y-26939500D01*
X52606459Y-26939500D01*
X52606457Y-26939500D01*
X52606455Y-26939500D01*
X52413168Y-26977947D01*
X52413148Y-26977954D01*
X52231093Y-27053362D01*
X52231088Y-27053364D01*
X52231063Y-27053382D01*
X52067216Y-27162861D01*
X51927861Y-27302216D01*
X51818364Y-27466088D01*
X51818362Y-27466093D01*
X51742954Y-27648148D01*
X51742947Y-27648168D01*
X51704500Y-27841455D01*
X51165499Y-27841455D01*
X51127051Y-27648165D01*
X51057049Y-27479163D01*
X51051634Y-27466089D01*
X51051632Y-27466086D01*
X50942138Y-27302217D01*
X50802782Y-27162861D01*
X50795393Y-27157924D01*
X50638936Y-27053382D01*
X50638910Y-27053364D01*
X50638905Y-27053362D01*
X50456850Y-26977954D01*
X50456830Y-26977947D01*
X50263543Y-26939500D01*
X50263542Y-26939500D01*
X50263541Y-26939500D01*
X50066459Y-26939500D01*
X50066457Y-26939500D01*
X50066455Y-26939500D01*
X49873168Y-26977947D01*
X49873148Y-26977954D01*
X49691093Y-27053362D01*
X49691088Y-27053364D01*
X49691063Y-27053382D01*
X49527216Y-27162861D01*
X49387861Y-27302216D01*
X49278364Y-27466088D01*
X49278362Y-27466093D01*
X49202954Y-27648148D01*
X49202947Y-27648168D01*
X49164500Y-27841455D01*
X48625499Y-27841455D01*
X48587051Y-27648165D01*
X48517049Y-27479163D01*
X48511634Y-27466089D01*
X48511632Y-27466086D01*
X48402138Y-27302217D01*
X48262782Y-27162861D01*
X48255393Y-27157924D01*
X48098936Y-27053382D01*
X48098910Y-27053364D01*
X48098905Y-27053362D01*
X47916850Y-26977954D01*
X47916830Y-26977947D01*
X47723543Y-26939500D01*
X47723542Y-26939500D01*
X47723541Y-26939500D01*
X47526459Y-26939500D01*
X47526457Y-26939500D01*
X47526455Y-26939500D01*
X47333168Y-26977947D01*
X47333148Y-26977954D01*
X47151093Y-27053362D01*
X47151088Y-27053364D01*
X47151063Y-27053382D01*
X46987216Y-27162861D01*
X46847861Y-27302216D01*
X46738364Y-27466088D01*
X46738362Y-27466093D01*
X46662954Y-27648148D01*
X46662947Y-27648168D01*
X46624500Y-27841455D01*
X46085499Y-27841455D01*
X46047051Y-27648165D01*
X45977049Y-27479163D01*
X45971634Y-27466089D01*
X45971632Y-27466086D01*
X45862138Y-27302217D01*
X45722782Y-27162861D01*
X45715393Y-27157924D01*
X45558936Y-27053382D01*
X45558910Y-27053364D01*
X45558905Y-27053362D01*
X45376850Y-26977954D01*
X45376830Y-26977947D01*
X45183543Y-26939500D01*
X45183542Y-26939500D01*
X45183541Y-26939500D01*
X44986459Y-26939500D01*
X44986457Y-26939500D01*
X44986455Y-26939500D01*
X44793168Y-26977947D01*
X44793148Y-26977954D01*
X44611093Y-27053362D01*
X44611088Y-27053364D01*
X44611063Y-27053382D01*
X44447216Y-27162861D01*
X44307861Y-27302216D01*
X44198364Y-27466088D01*
X44198362Y-27466093D01*
X44122954Y-27648148D01*
X44122947Y-27648168D01*
X44084500Y-27841455D01*
X43545499Y-27841455D01*
X43507051Y-27648165D01*
X43437049Y-27479163D01*
X43431634Y-27466089D01*
X43431632Y-27466086D01*
X43322138Y-27302217D01*
X43182782Y-27162861D01*
X43175393Y-27157924D01*
X43018936Y-27053382D01*
X43018910Y-27053364D01*
X43018905Y-27053362D01*
X42836850Y-26977954D01*
X42836830Y-26977947D01*
X42643543Y-26939500D01*
X42643542Y-26939500D01*
X42643541Y-26939500D01*
X42446459Y-26939500D01*
X42446457Y-26939500D01*
X42446455Y-26939500D01*
X42253168Y-26977947D01*
X42253148Y-26977954D01*
X42071093Y-27053362D01*
X42071088Y-27053364D01*
X42071063Y-27053382D01*
X41907216Y-27162861D01*
X41767861Y-27302216D01*
X41658364Y-27466088D01*
X41658362Y-27466093D01*
X41582954Y-27648148D01*
X41582947Y-27648168D01*
X41544500Y-27841455D01*
X41544500Y-28038543D01*
X41582947Y-28231830D01*
X41582954Y-28231850D01*
X41648006Y-28388904D01*
X41648006Y-28395213D01*
X41650303Y-28401094D01*
X41648006Y-28406335D01*
X41648006Y-28412056D01*
X41643543Y-28416518D01*
X41641010Y-28422300D01*
X41635679Y-28424382D01*
X41631635Y-28428427D01*
X41625325Y-28428427D01*
X41619445Y-28430724D01*
X41614203Y-28428427D01*
X41608483Y-28428427D01*
X41598239Y-28421431D01*
X41592204Y-28415146D01*
X41569181Y-28391167D01*
X41566324Y-28387713D01*
X41482923Y-28270058D01*
X41480113Y-28265190D01*
X41414104Y-28121479D01*
X41413027Y-28118800D01*
X41365512Y-27981838D01*
X41365513Y-27981838D01*
X41309607Y-27820517D01*
X41307252Y-27814072D01*
X41306967Y-27813329D01*
X41304402Y-27806978D01*
X41241695Y-27658884D01*
X41230399Y-27632205D01*
X41230397Y-27632201D01*
X41230390Y-27632184D01*
X41225819Y-27622150D01*
X41225808Y-27622127D01*
X41225254Y-27620993D01*
X41220109Y-27611146D01*
X41113252Y-27419439D01*
X41106850Y-27408732D01*
X41106086Y-27407538D01*
X41099074Y-27397277D01*
X40951369Y-27194570D01*
X40948000Y-27190076D01*
X40947612Y-27189573D01*
X40940118Y-27183210D01*
X40935226Y-27177933D01*
X40920690Y-27157927D01*
X40787075Y-27024312D01*
X40787074Y-27024311D01*
X40787073Y-27024310D01*
X40710290Y-26968523D01*
X40655556Y-26928756D01*
X40647545Y-26920089D01*
X40645843Y-26917312D01*
X40642224Y-26894446D01*
X40655833Y-26875717D01*
X40655856Y-26875703D01*
X40657081Y-26874953D01*
X40672879Y-26870500D01*
X87595512Y-26870500D01*
X87607082Y-26872800D01*
G37*
G04 #@! TD.AperFunction*
M02*
