G04 #@! TF.GenerationSoftware,KiCad,Pcbnew,10.0.3*
G04 #@! TF.CreationDate,2026-08-02T01:51:15+09:00*
G04 #@! TF.ProjectId,squeeki-kleen Video FC,73717565-656b-4692-9d6b-6c65656e2056,1.1.0*
G04 #@! TF.SameCoordinates,Original*
G04 #@! TF.FileFunction,Soldermask,Top*
G04 #@! TF.FilePolarity,Negative*
%FSLAX46Y46*%
G04 Gerber Fmt 4.6, Leading zero omitted, Abs format (unit mm)*
G04 Created by KiCad (PCBNEW 10.0.3) date 2026-08-02 01:51:15*
%MOMM*%
%LPD*%
G01*
G04 APERTURE LIST*
G04 Aperture macros list*
%AMRoundRect*
0 Rectangle with rounded corners*
0 $1 Rounding radius*
0 $2 $3 $4 $5 $6 $7 $8 $9 X,Y pos of 4 corners*
0 Add a 4 corners polygon primitive as box body*
4,1,4,$2,$3,$4,$5,$6,$7,$8,$9,$2,$3,0*
0 Add four circle primitives for the rounded corners*
1,1,$1+$1,$2,$3*
1,1,$1+$1,$4,$5*
1,1,$1+$1,$6,$7*
1,1,$1+$1,$8,$9*
0 Add four rect primitives between the rounded corners*
20,1,$1+$1,$2,$3,$4,$5,0*
20,1,$1+$1,$4,$5,$6,$7,0*
20,1,$1+$1,$6,$7,$8,$9,0*
20,1,$1+$1,$8,$9,$2,$3,0*%
G04 Aperture macros list end*
%ADD10C,1.500000*%
%ADD11RoundRect,0.250000X-0.675000X0.675000X-0.675000X-0.675000X0.675000X-0.675000X0.675000X0.675000X0*%
%ADD12C,1.850000*%
%ADD13RoundRect,0.250000X0.450000X-0.262500X0.450000X0.262500X-0.450000X0.262500X-0.450000X-0.262500X0*%
%ADD14C,0.800000*%
%ADD15RoundRect,0.250000X1.500000X0.550000X-1.500000X0.550000X-1.500000X-0.550000X1.500000X-0.550000X0*%
%ADD16C,2.000000*%
%ADD17RoundRect,0.250000X0.425000X-0.450000X0.425000X0.450000X-0.425000X0.450000X-0.425000X-0.450000X0*%
%ADD18RoundRect,0.250000X-0.550000X1.500000X-0.550000X-1.500000X0.550000X-1.500000X0.550000X1.500000X0*%
%ADD19RoundRect,0.150000X0.150000X-0.587500X0.150000X0.587500X-0.150000X0.587500X-0.150000X-0.587500X0*%
%ADD20RoundRect,0.250000X-0.475000X0.250000X-0.475000X-0.250000X0.475000X-0.250000X0.475000X0.250000X0*%
%ADD21RoundRect,0.250000X-0.450000X0.262500X-0.450000X-0.262500X0.450000X-0.262500X0.450000X0.262500X0*%
G04 APERTURE END LIST*
D10*
X79370000Y-36750000D03*
D11*
X42205000Y-33475000D03*
D12*
X42205000Y-37675000D03*
D13*
X51435000Y-33655000D03*
X51435000Y-31830000D03*
D14*
X80645000Y-27940000D03*
X57785000Y-27940000D03*
D15*
X58934000Y-37465000D03*
X53334000Y-37465000D03*
D14*
X55245000Y-27940000D03*
D16*
X40005000Y-43180000D03*
D14*
X70485000Y-43180000D03*
X80645000Y-43180000D03*
X73025000Y-43180000D03*
X52705000Y-43180000D03*
X65405000Y-27940000D03*
X70485000Y-27940000D03*
X47625000Y-27940000D03*
X57785000Y-43180000D03*
X73025000Y-27940000D03*
X60325000Y-43180000D03*
D17*
X64135000Y-32385000D03*
X64135000Y-29685000D03*
D14*
X67945000Y-43180000D03*
X55245000Y-43180000D03*
X42545000Y-27940000D03*
X85725000Y-27940000D03*
X45085000Y-27940000D03*
D16*
X88265000Y-27940000D03*
D18*
X85725000Y-33495000D03*
X85725000Y-38895000D03*
D14*
X75565000Y-43180000D03*
X62865000Y-43180000D03*
X65405000Y-43180000D03*
D17*
X53975000Y-32385000D03*
X53975000Y-29685000D03*
D14*
X78105000Y-27940000D03*
X75565000Y-27940000D03*
X45085000Y-43180000D03*
X47625000Y-43180000D03*
X52705000Y-27940000D03*
X85725000Y-43180000D03*
X50165000Y-43180000D03*
D16*
X40005000Y-27940000D03*
D14*
X88265000Y-43180000D03*
X83185000Y-27940000D03*
X42545000Y-43180000D03*
D10*
X40005000Y-40005000D03*
D14*
X83185000Y-43180000D03*
X67945000Y-27940000D03*
D17*
X59055000Y-32385000D03*
X59055000Y-29685000D03*
D19*
X47564000Y-33703500D03*
X49464000Y-33703500D03*
X48514000Y-31828500D03*
D14*
X78105000Y-43180000D03*
X62865000Y-27940000D03*
D20*
X47752000Y-35560000D03*
X47752000Y-37460000D03*
D21*
X50165000Y-35640000D03*
X50165000Y-37465000D03*
D10*
X40005000Y-31115000D03*
D14*
X60325000Y-27940000D03*
X50165000Y-27940000D03*
M02*
